<mxfile host="Electron" modified="2024-04-19T09:43:56.383Z" agent="Mozilla/5.0 (Windows NT 10.0; Win64; x64) AppleWebKit/537.36 (KHTML, like Gecko) draw.io/22.0.2 Chrome/114.0.5735.289 Electron/25.8.4 Safari/537.36" etag="aY4vbr731nlWYYozAuBd" version="22.0.2" type="device">
  <diagram name="Page-1" id="64c3da0e-402f-94eb-ee01-a36477274f13">
    <mxGraphModel dx="5374" dy="953" grid="1" gridSize="10" guides="1" tooltips="1" connect="1" arrows="1" fold="1" page="1" pageScale="1" pageWidth="1169" pageHeight="826" background="none" math="0" shadow="0">
      <root>
        <mxCell id="0" />
        <mxCell id="1" parent="0" />
        <mxCell id="2" value="Website Công Ty Mỹ Phẩm Cosmestics TVP" style="whiteSpace=wrap;rounded=1;shadow=1;fillColor=#10739E;strokeColor=none;fontColor=#FFFFFF;fontStyle=1;fontSize=24" parent="1" vertex="1">
          <mxGeometry x="500" y="20" width="380" height="80" as="geometry" />
        </mxCell>
        <mxCell id="3" value="Khởi tạo dự án" style="whiteSpace=wrap;rounded=1;fillColor=#F2931E;strokeColor=none;shadow=1;fontColor=#FFFFFF;fontStyle=1;fontSize=14" parent="1" vertex="1">
          <mxGeometry x="-2500" y="159.9999999999998" width="140" height="60" as="geometry" />
        </mxCell>
        <mxCell id="4" value="Phân tích thiết kế ứng dụng " style="whiteSpace=wrap;rounded=1;fillColor=#F2931E;strokeColor=none;shadow=1;fontColor=#FFFFFF;fontStyle=1;fontSize=14" parent="1" vertex="1">
          <mxGeometry x="-860" y="159.9999999999998" width="140" height="60" as="geometry" />
        </mxCell>
        <mxCell id="5" value="Bàn giao" style="whiteSpace=wrap;rounded=1;fillColor=#F2931E;strokeColor=none;shadow=1;fontColor=#FFFFFF;fontStyle=1;fontSize=14" parent="1" vertex="1">
          <mxGeometry x="2110" y="169.9999999999998" width="140" height="60" as="geometry" />
        </mxCell>
        <mxCell id="6" value="Thiết kế website " style="whiteSpace=wrap;rounded=1;fillColor=#F2931E;strokeColor=none;shadow=1;fontColor=#FFFFFF;fontStyle=1;fontSize=14" parent="1" vertex="1">
          <mxGeometry x="580" y="159.9999999999998" width="140" height="60" as="geometry" />
        </mxCell>
        <mxCell id="7" value="Xây dựng website" style="whiteSpace=wrap;rounded=1;fillColor=#F2931E;strokeColor=none;shadow=1;fontColor=#FFFFFF;fontStyle=1;fontSize=14" parent="1" vertex="1">
          <mxGeometry x="1270" y="169.9999999999998" width="140" height="60" as="geometry" />
        </mxCell>
        <mxCell id="8" value="Kiểm thử" style="whiteSpace=wrap;rounded=1;fillColor=#F2931E;strokeColor=none;shadow=1;fontColor=#FFFFFF;fontStyle=1;fontSize=14" parent="1" vertex="1">
          <mxGeometry x="1630" y="169.9999999999998" width="140" height="60" as="geometry" />
        </mxCell>
        <mxCell id="10" value="Xây dựng Business Case " style="whiteSpace=wrap;rounded=1;fillColor=#12AAB5;strokeColor=none;shadow=1;fontColor=#FFFFFF;" parent="1" vertex="1">
          <mxGeometry x="-2390" y="300.0000000000001" width="120" height="60" as="geometry" />
        </mxCell>
        <mxCell id="12" value="Khảo sát hiện trạng " style="whiteSpace=wrap;rounded=1;fillColor=#12AAB5;strokeColor=none;shadow=1;fontColor=#FFFFFF;" parent="1" vertex="1">
          <mxGeometry x="-2190" y="300.0000000000001" width="120" height="60" as="geometry" />
        </mxCell>
        <mxCell id="23" value="Giải pháp" style="whiteSpace=wrap;rounded=1;fillColor=#999999;strokeColor=none;shadow=1;fontColor=#FFFFFF;fontStyle=0" parent="1" vertex="1">
          <mxGeometry x="-2390" y="400.0000000000001" width="120" height="60" as="geometry" />
        </mxCell>
        <mxCell id="24" value="Phác thảo kế hoạch" style="whiteSpace=wrap;rounded=1;fillColor=#999999;strokeColor=none;shadow=1;fontColor=#FFFFFF;fontStyle=0" parent="1" vertex="1">
          <mxGeometry x="-2390" y="480.0000000000001" width="120" height="60" as="geometry" />
        </mxCell>
        <mxCell id="25" value="Cấu trúc tổ chức dự án " style="whiteSpace=wrap;rounded=1;fillColor=#999999;strokeColor=none;shadow=1;fontColor=#FFFFFF;fontStyle=0" parent="1" vertex="1">
          <mxGeometry x="-2390" y="560.0000000000001" width="120" height="60" as="geometry" />
        </mxCell>
        <mxCell id="26" value="Thẩm định tài chính " style="whiteSpace=wrap;rounded=1;fillColor=#999999;strokeColor=none;shadow=1;fontColor=#FFFFFF;fontStyle=0" parent="1" vertex="1">
          <mxGeometry x="-2390" y="640.0000000000001" width="120" height="60" as="geometry" />
        </mxCell>
        <mxCell id="27" value="Đánh giá rủi ro " style="whiteSpace=wrap;rounded=1;fillColor=#999999;strokeColor=none;shadow=1;fontColor=#FFFFFF;fontStyle=0" parent="1" vertex="1">
          <mxGeometry x="-2389.9999999999995" y="720.0000000000001" width="120" height="60" as="geometry" />
        </mxCell>
        <mxCell id="38" value="Phỏng vấn " style="whiteSpace=wrap;rounded=1;fillColor=#999999;strokeColor=none;shadow=1;fontColor=#FFFFFF;fontStyle=0" parent="1" vertex="1">
          <mxGeometry x="-2190.0000000000005" y="400.0000000000001" width="120" height="60" as="geometry" />
        </mxCell>
        <mxCell id="39" value="Hiện trạng " style="whiteSpace=wrap;rounded=1;fillColor=#999999;strokeColor=none;shadow=1;fontColor=#FFFFFF;fontStyle=0" parent="1" vertex="1">
          <mxGeometry x="-2190" y="480.0000000000001" width="120" height="60" as="geometry" />
        </mxCell>
        <mxCell id="40" value="Mô tả nghiệp vụ và quy trình dự án " style="whiteSpace=wrap;rounded=1;fillColor=#999999;strokeColor=none;shadow=1;fontColor=#FFFFFF;fontStyle=0" parent="1" vertex="1">
          <mxGeometry x="-2190" y="560.0000000000001" width="120" height="60" as="geometry" />
        </mxCell>
        <mxCell id="43" value="Xác định yêu cầu " style="whiteSpace=wrap;rounded=1;fillColor=#12AAB5;strokeColor=none;shadow=1;fontColor=#FFFFFF;" parent="1" vertex="1">
          <mxGeometry x="-1800.0000000000002" y="300.0000000000001" width="120" height="60" as="geometry" />
        </mxCell>
        <mxCell id="44" value="Mô hình hóa yêu cầu phần mềm " style="whiteSpace=wrap;rounded=1;fillColor=#12AAB5;strokeColor=none;shadow=1;fontColor=#FFFFFF;" parent="1" vertex="1">
          <mxGeometry x="-1600.0000000000002" y="300.0000000000001" width="120" height="60" as="geometry" />
        </mxCell>
        <mxCell id="45" value="Yêu cầu chức năng " style="whiteSpace=wrap;rounded=1;fillColor=#999999;strokeColor=none;shadow=1;fontColor=#FFFFFF;fontStyle=0" parent="1" vertex="1">
          <mxGeometry x="-1800.0000000000002" y="400.0000000000001" width="120" height="60" as="geometry" />
        </mxCell>
        <mxCell id="46" value="Yêu cầu phi chức năng " style="whiteSpace=wrap;rounded=1;fillColor=#999999;strokeColor=none;shadow=1;fontColor=#FFFFFF;fontStyle=0" parent="1" vertex="1">
          <mxGeometry x="-1800" y="480.0000000000001" width="120" height="60" as="geometry" />
        </mxCell>
        <mxCell id="50" value="Use-case " style="whiteSpace=wrap;rounded=1;fillColor=#999999;strokeColor=none;shadow=1;fontColor=#FFFFFF;fontStyle=0" parent="1" vertex="1">
          <mxGeometry x="-1600.0000000000007" y="400.0000000000001" width="120" height="60" as="geometry" />
        </mxCell>
        <mxCell id="51" value="Activity" style="whiteSpace=wrap;rounded=1;fillColor=#999999;strokeColor=none;shadow=1;fontColor=#FFFFFF;fontStyle=0" parent="1" vertex="1">
          <mxGeometry x="-1600.0000000000005" y="480.0000000000001" width="120" height="60" as="geometry" />
        </mxCell>
        <mxCell id="52" value="Sequence diagram" style="whiteSpace=wrap;rounded=1;fillColor=#999999;strokeColor=none;shadow=1;fontColor=#FFFFFF;fontStyle=0" parent="1" vertex="1">
          <mxGeometry x="-1600.0000000000005" y="560.0000000000001" width="120" height="60" as="geometry" />
        </mxCell>
        <mxCell id="53" value="Mô hình cơ sở dữ liệu " style="whiteSpace=wrap;rounded=1;fillColor=#999999;strokeColor=none;shadow=1;fontColor=#FFFFFF;fontStyle=0" parent="1" vertex="1">
          <mxGeometry x="-1600.0000000000005" y="640.0000000000001" width="120" height="60" as="geometry" />
        </mxCell>
        <mxCell id="103" value="" style="edgeStyle=elbowEdgeStyle;elbow=vertical;rounded=0;fontColor=#000000;endArrow=none;endFill=0;strokeWidth=8;strokeColor=#23445D;" parent="1" source="3" target="10" edge="1">
          <mxGeometry width="100" height="100" relative="1" as="geometry">
            <mxPoint x="-2440" y="290" as="sourcePoint" />
            <mxPoint x="-2340" y="190" as="targetPoint" />
          </mxGeometry>
        </mxCell>
        <mxCell id="104" value="" style="edgeStyle=elbowEdgeStyle;elbow=vertical;rounded=0;fontColor=#000000;endArrow=none;endFill=0;strokeWidth=8;strokeColor=#23445D;" parent="1" source="3" target="12" edge="1">
          <mxGeometry width="100" height="100" relative="1" as="geometry">
            <mxPoint x="-2100" y="290" as="sourcePoint" />
            <mxPoint x="-2000" y="190" as="targetPoint" />
          </mxGeometry>
        </mxCell>
        <mxCell id="105" value="" style="edgeStyle=elbowEdgeStyle;elbow=horizontal;rounded=0;fontColor=#000000;endArrow=none;endFill=0;strokeWidth=8;strokeColor=#23445D;" parent="1" source="10" target="23" edge="1">
          <mxGeometry width="100" height="100" relative="1" as="geometry">
            <mxPoint x="-2450" y="480" as="sourcePoint" />
            <mxPoint x="-2350" y="380" as="targetPoint" />
            <Array as="points">
              <mxPoint x="-2410" y="380" />
            </Array>
          </mxGeometry>
        </mxCell>
        <mxCell id="106" value="" style="edgeStyle=elbowEdgeStyle;elbow=horizontal;rounded=0;fontColor=#000000;endArrow=none;endFill=0;strokeWidth=8;strokeColor=#23445D;" parent="1" source="10" target="24" edge="1">
          <mxGeometry width="100" height="100" relative="1" as="geometry">
            <mxPoint x="-2380" y="340" as="sourcePoint" />
            <mxPoint x="-2380" y="440" as="targetPoint" />
            <Array as="points">
              <mxPoint x="-2410" y="400" />
            </Array>
          </mxGeometry>
        </mxCell>
        <mxCell id="107" value="" style="edgeStyle=elbowEdgeStyle;elbow=horizontal;rounded=0;fontColor=#000000;endArrow=none;endFill=0;strokeWidth=8;strokeColor=#23445D;" parent="1" source="10" target="27" edge="1">
          <mxGeometry width="100" height="100" relative="1" as="geometry">
            <mxPoint x="-2380" y="340" as="sourcePoint" />
            <mxPoint x="-2380" y="440" as="targetPoint" />
            <Array as="points">
              <mxPoint x="-2410" y="540" />
            </Array>
          </mxGeometry>
        </mxCell>
        <mxCell id="109" value="" style="edgeStyle=elbowEdgeStyle;elbow=horizontal;rounded=0;fontColor=#000000;endArrow=none;endFill=0;strokeWidth=8;strokeColor=#23445D;" parent="1" source="10" target="26" edge="1">
          <mxGeometry width="100" height="100" relative="1" as="geometry">
            <mxPoint x="-2360" y="360" as="sourcePoint" />
            <mxPoint x="-2360" y="460" as="targetPoint" />
            <Array as="points">
              <mxPoint x="-2410" y="410" />
            </Array>
          </mxGeometry>
        </mxCell>
        <mxCell id="110" value="" style="edgeStyle=elbowEdgeStyle;elbow=horizontal;rounded=0;fontColor=#000000;endArrow=none;endFill=0;strokeWidth=8;strokeColor=#23445D;" parent="1" source="10" target="25" edge="1">
          <mxGeometry width="100" height="100" relative="1" as="geometry">
            <mxPoint x="-2350" y="370" as="sourcePoint" />
            <mxPoint x="-2350" y="470" as="targetPoint" />
            <Array as="points">
              <mxPoint x="-2410" y="430" />
            </Array>
          </mxGeometry>
        </mxCell>
        <mxCell id="111" value="" style="edgeStyle=elbowEdgeStyle;elbow=horizontal;rounded=0;fontColor=#000000;endArrow=none;endFill=0;strokeWidth=8;strokeColor=#23445D;" parent="1" target="38" edge="1">
          <mxGeometry width="100" height="100" relative="1" as="geometry">
            <mxPoint x="-2200" y="330.0000000000004" as="sourcePoint" />
            <mxPoint x="-2200" y="430.0000000000004" as="targetPoint" />
            <Array as="points">
              <mxPoint x="-2210" y="380" />
            </Array>
          </mxGeometry>
        </mxCell>
        <mxCell id="112" value="" style="edgeStyle=elbowEdgeStyle;elbow=horizontal;rounded=0;fontColor=#000000;endArrow=none;endFill=0;strokeWidth=8;strokeColor=#23445D;" parent="1" source="12" target="39" edge="1">
          <mxGeometry width="100" height="100" relative="1" as="geometry">
            <mxPoint x="-2200" y="330.0000000000004" as="sourcePoint" />
            <mxPoint x="-2200" y="510.0000000000004" as="targetPoint" />
            <Array as="points">
              <mxPoint x="-2210" y="420" />
            </Array>
          </mxGeometry>
        </mxCell>
        <mxCell id="115" value="" style="edgeStyle=elbowEdgeStyle;elbow=horizontal;rounded=0;fontColor=#000000;endArrow=none;endFill=0;strokeWidth=8;strokeColor=#23445D;" parent="1" source="12" target="40" edge="1">
          <mxGeometry width="100" height="100" relative="1" as="geometry">
            <mxPoint x="-2200" y="330.0000000000004" as="sourcePoint" />
            <mxPoint x="-2200" y="590.0000000000003" as="targetPoint" />
            <Array as="points">
              <mxPoint x="-2210" y="460" />
            </Array>
          </mxGeometry>
        </mxCell>
        <mxCell id="116" value="" style="edgeStyle=elbowEdgeStyle;elbow=vertical;rounded=0;fontColor=#000000;endArrow=none;endFill=0;strokeWidth=8;strokeColor=#23445D;" parent="1" source="4" target="43" edge="1">
          <mxGeometry width="100" height="100" relative="1" as="geometry">
            <mxPoint x="-2000" y="239.99999999999977" as="sourcePoint" />
            <mxPoint x="-2100" y="310" as="targetPoint" />
          </mxGeometry>
        </mxCell>
        <mxCell id="117" value="" style="edgeStyle=elbowEdgeStyle;elbow=vertical;rounded=0;fontColor=#000000;endArrow=none;endFill=0;strokeWidth=8;strokeColor=#23445D;" parent="1" source="4" target="44" edge="1">
          <mxGeometry width="100" height="100" relative="1" as="geometry">
            <mxPoint x="-2000" y="239.99999999999977" as="sourcePoint" />
            <mxPoint x="-1900" y="310" as="targetPoint" />
          </mxGeometry>
        </mxCell>
        <mxCell id="118" value="" style="edgeStyle=elbowEdgeStyle;elbow=horizontal;rounded=0;fontColor=#000000;endArrow=none;endFill=0;strokeWidth=8;strokeColor=#23445D;" parent="1" source="43" target="45" edge="1">
          <mxGeometry width="100" height="100" relative="1" as="geometry">
            <mxPoint x="-1820" y="330.00000000000045" as="sourcePoint" />
            <mxPoint x="-1810.0000000000005" y="430" as="targetPoint" />
            <Array as="points">
              <mxPoint x="-1820" y="380" />
            </Array>
          </mxGeometry>
        </mxCell>
        <mxCell id="119" value="" style="edgeStyle=elbowEdgeStyle;elbow=horizontal;rounded=0;fontColor=#000000;endArrow=none;endFill=0;strokeWidth=8;strokeColor=#23445D;" parent="1" source="43" target="46" edge="1">
          <mxGeometry width="100" height="100" relative="1" as="geometry">
            <mxPoint x="-1810" y="330" as="sourcePoint" />
            <mxPoint x="-1810.0000000000002" y="510" as="targetPoint" />
            <Array as="points">
              <mxPoint x="-1820" y="420" />
            </Array>
          </mxGeometry>
        </mxCell>
        <mxCell id="123" value="" style="edgeStyle=elbowEdgeStyle;elbow=horizontal;rounded=0;fontColor=#000000;endArrow=none;endFill=0;strokeWidth=8;strokeColor=#23445D;" parent="1" source="44" target="50" edge="1">
          <mxGeometry width="100" height="100" relative="1" as="geometry">
            <mxPoint x="-1630" y="330.00000000000045" as="sourcePoint" />
            <mxPoint x="-1620.0000000000005" y="430" as="targetPoint" />
            <Array as="points">
              <mxPoint x="-1620" y="380" />
            </Array>
          </mxGeometry>
        </mxCell>
        <mxCell id="124" value="" style="edgeStyle=elbowEdgeStyle;elbow=horizontal;rounded=0;fontColor=#000000;endArrow=none;endFill=0;strokeWidth=8;strokeColor=#23445D;" parent="1" source="44" target="51" edge="1">
          <mxGeometry width="100" height="100" relative="1" as="geometry">
            <mxPoint x="-1620" y="330" as="sourcePoint" />
            <mxPoint x="-1620.0000000000002" y="510" as="targetPoint" />
            <Array as="points">
              <mxPoint x="-1620" y="420" />
            </Array>
          </mxGeometry>
        </mxCell>
        <mxCell id="126" value="" style="edgeStyle=elbowEdgeStyle;elbow=horizontal;rounded=0;fontColor=#000000;endArrow=none;endFill=0;strokeWidth=8;strokeColor=#23445D;" parent="1" source="44" target="53" edge="1">
          <mxGeometry width="100" height="100" relative="1" as="geometry">
            <mxPoint x="-1620" y="330" as="sourcePoint" />
            <mxPoint x="-1620" y="670" as="targetPoint" />
            <Array as="points">
              <mxPoint x="-1620" y="500" />
            </Array>
          </mxGeometry>
        </mxCell>
        <mxCell id="127" value="" style="edgeStyle=elbowEdgeStyle;elbow=horizontal;rounded=0;fontColor=#000000;endArrow=none;endFill=0;strokeWidth=8;strokeColor=#23445D;" parent="1" source="44" target="52" edge="1">
          <mxGeometry width="100" height="100" relative="1" as="geometry">
            <mxPoint x="-1620" y="330" as="sourcePoint" />
            <mxPoint x="-1620.0000000000002" y="590" as="targetPoint" />
            <Array as="points">
              <mxPoint x="-1620" y="470" />
            </Array>
          </mxGeometry>
        </mxCell>
        <mxCell id="133" value="Thiết kế Back-End " style="whiteSpace=wrap;rounded=1;fillColor=#12AAB5;strokeColor=none;shadow=1;fontColor=#FFFFFF;" parent="1" vertex="1">
          <mxGeometry x="809.9999999999998" y="300.0000000000001" width="120" height="60" as="geometry" />
        </mxCell>
        <mxCell id="134" value="Xây dựng Frontend" style="whiteSpace=wrap;rounded=1;fillColor=#12AAB5;strokeColor=none;shadow=1;fontColor=#FFFFFF;" parent="1" vertex="1">
          <mxGeometry x="1009.9999999999998" y="300.0000000000001" width="120" height="60" as="geometry" />
        </mxCell>
        <mxCell id="135" value="Thiết kế các biểu mẫu " style="whiteSpace=wrap;rounded=1;fillColor=#999999;strokeColor=none;shadow=1;fontColor=#FFFFFF;fontStyle=0" parent="1" vertex="1">
          <mxGeometry x="809.9999999999998" y="400.0000000000001" width="120" height="60" as="geometry" />
        </mxCell>
        <mxCell id="136" value="Thiết kế cơ sở dữ liệu " style="whiteSpace=wrap;rounded=1;fillColor=#999999;strokeColor=none;shadow=1;fontColor=#FFFFFF;fontStyle=0" parent="1" vertex="1">
          <mxGeometry x="809.9999999999999" y="480.0000000000001" width="120" height="60" as="geometry" />
        </mxCell>
        <mxCell id="137" value="Thiết kế mô hình dữ liệu logic " style="whiteSpace=wrap;rounded=1;fillColor=#999999;strokeColor=none;shadow=1;fontColor=#FFFFFF;fontStyle=0" parent="1" vertex="1">
          <mxGeometry x="839.9999999999998" y="560.0000000000001" width="120" height="60" as="geometry" />
        </mxCell>
        <mxCell id="138" value="Thiết kế mô hình dữ liệu vật lý " style="whiteSpace=wrap;rounded=1;fillColor=#999999;strokeColor=none;shadow=1;fontColor=#FFFFFF;fontStyle=0" parent="1" vertex="1">
          <mxGeometry x="840" y="640.0000000000001" width="120" height="60" as="geometry" />
        </mxCell>
        <mxCell id="139" value="Xác định các ràng buộc dữ liệu (constraints) " style="whiteSpace=wrap;rounded=1;fillColor=#999999;strokeColor=none;shadow=1;fontColor=#FFFFFF;fontStyle=0" parent="1" vertex="1">
          <mxGeometry x="840.0000000000001" y="720.0000000000001" width="120" height="60" as="geometry" />
        </mxCell>
        <mxCell id="140" value="Giao diện đăng nhập" style="whiteSpace=wrap;rounded=1;fillColor=#999999;strokeColor=none;shadow=1;fontColor=#FFFFFF;fontStyle=0" parent="1" vertex="1">
          <mxGeometry x="1009.9999999999993" y="400.0000000000001" width="120" height="60" as="geometry" />
        </mxCell>
        <mxCell id="141" value="Giao diện bảng tin nội bộ" style="whiteSpace=wrap;rounded=1;fillColor=#999999;strokeColor=none;shadow=1;fontColor=#FFFFFF;fontStyle=0" parent="1" vertex="1">
          <mxGeometry x="1009.9999999999995" y="480.0000000000001" width="120" height="60" as="geometry" />
        </mxCell>
        <mxCell id="142" value="Giao diện thông báo chung" style="whiteSpace=wrap;rounded=1;fillColor=#999999;strokeColor=none;shadow=1;fontColor=#FFFFFF;fontStyle=0" parent="1" vertex="1">
          <mxGeometry x="1009.9999999999995" y="560.0000000000001" width="120" height="60" as="geometry" />
        </mxCell>
        <mxCell id="143" value="Giao diện truyền thông nội bộ" style="whiteSpace=wrap;rounded=1;fillColor=#999999;strokeColor=none;shadow=1;fontColor=#FFFFFF;fontStyle=0" parent="1" vertex="1">
          <mxGeometry x="1009.9999999999997" y="640.0000000000001" width="120" height="60" as="geometry" />
        </mxCell>
        <mxCell id="144" value="Giao diện lịch công việc" style="whiteSpace=wrap;rounded=1;fillColor=#999999;strokeColor=none;shadow=1;fontColor=#FFFFFF;fontStyle=0" parent="1" vertex="1">
          <mxGeometry x="1009.9999999999998" y="720.0000000000001" width="120" height="60" as="geometry" />
        </mxCell>
        <mxCell id="145" value="" style="edgeStyle=elbowEdgeStyle;elbow=horizontal;rounded=0;fontColor=#000000;endArrow=none;endFill=0;strokeWidth=8;strokeColor=#23445D;" parent="1" source="133" target="135" edge="1">
          <mxGeometry width="100" height="100" relative="1" as="geometry">
            <mxPoint x="790" y="330.00000000000045" as="sourcePoint" />
            <mxPoint x="799.9999999999995" y="430" as="targetPoint" />
            <Array as="points">
              <mxPoint x="790" y="380" />
            </Array>
          </mxGeometry>
        </mxCell>
        <mxCell id="146" value="" style="edgeStyle=elbowEdgeStyle;elbow=horizontal;rounded=0;fontColor=#000000;endArrow=none;endFill=0;strokeWidth=8;strokeColor=#23445D;" parent="1" source="133" target="136" edge="1">
          <mxGeometry width="100" height="100" relative="1" as="geometry">
            <mxPoint x="800" y="330" as="sourcePoint" />
            <mxPoint x="799.9999999999998" y="510" as="targetPoint" />
            <Array as="points">
              <mxPoint x="790" y="420" />
            </Array>
          </mxGeometry>
        </mxCell>
        <mxCell id="149" value="" style="edgeStyle=elbowEdgeStyle;elbow=horizontal;rounded=0;fontColor=#000000;endArrow=none;endFill=0;strokeWidth=8;strokeColor=#23445D;" parent="1" target="137" edge="1">
          <mxGeometry width="100" height="100" relative="1" as="geometry">
            <mxPoint x="830" y="540" as="sourcePoint" />
            <mxPoint x="799.9999999999998" y="590" as="targetPoint" />
            <Array as="points">
              <mxPoint x="830" y="550" />
            </Array>
          </mxGeometry>
        </mxCell>
        <mxCell id="150" value="" style="edgeStyle=elbowEdgeStyle;elbow=horizontal;rounded=0;fontColor=#000000;endArrow=none;endFill=0;strokeWidth=8;strokeColor=#23445D;" parent="1" source="134" target="140" edge="1">
          <mxGeometry width="100" height="100" relative="1" as="geometry">
            <mxPoint x="980" y="330.00000000000045" as="sourcePoint" />
            <mxPoint x="989.9999999999995" y="430" as="targetPoint" />
            <Array as="points">
              <mxPoint x="990" y="380" />
            </Array>
          </mxGeometry>
        </mxCell>
        <mxCell id="151" value="" style="edgeStyle=elbowEdgeStyle;elbow=horizontal;rounded=0;fontColor=#000000;endArrow=none;endFill=0;strokeWidth=8;strokeColor=#23445D;" parent="1" source="134" target="141" edge="1">
          <mxGeometry width="100" height="100" relative="1" as="geometry">
            <mxPoint x="990" y="330" as="sourcePoint" />
            <mxPoint x="989.9999999999998" y="510" as="targetPoint" />
            <Array as="points">
              <mxPoint x="990" y="420" />
            </Array>
          </mxGeometry>
        </mxCell>
        <mxCell id="152" value="" style="edgeStyle=elbowEdgeStyle;elbow=horizontal;rounded=0;fontColor=#000000;endArrow=none;endFill=0;strokeWidth=8;strokeColor=#23445D;" parent="1" source="134" target="144" edge="1">
          <mxGeometry width="100" height="100" relative="1" as="geometry">
            <mxPoint x="990" y="330" as="sourcePoint" />
            <mxPoint x="990" y="750" as="targetPoint" />
            <Array as="points">
              <mxPoint x="990" y="540" />
            </Array>
          </mxGeometry>
        </mxCell>
        <mxCell id="153" value="" style="edgeStyle=elbowEdgeStyle;elbow=horizontal;rounded=0;fontColor=#000000;endArrow=none;endFill=0;strokeWidth=8;strokeColor=#23445D;" parent="1" source="134" target="143" edge="1">
          <mxGeometry width="100" height="100" relative="1" as="geometry">
            <mxPoint x="990" y="330" as="sourcePoint" />
            <mxPoint x="990" y="670" as="targetPoint" />
            <Array as="points">
              <mxPoint x="990" y="500" />
            </Array>
          </mxGeometry>
        </mxCell>
        <mxCell id="154" value="" style="edgeStyle=elbowEdgeStyle;elbow=horizontal;rounded=0;fontColor=#000000;endArrow=none;endFill=0;strokeWidth=8;strokeColor=#23445D;" parent="1" source="134" target="142" edge="1">
          <mxGeometry width="100" height="100" relative="1" as="geometry">
            <mxPoint x="990" y="330" as="sourcePoint" />
            <mxPoint x="989.9999999999998" y="590" as="targetPoint" />
            <Array as="points">
              <mxPoint x="990" y="470" />
            </Array>
          </mxGeometry>
        </mxCell>
        <mxCell id="155" value="Xây dựng Backend" style="whiteSpace=wrap;rounded=1;fillColor=#12AAB5;strokeColor=none;shadow=1;fontColor=#FFFFFF;" parent="1" vertex="1">
          <mxGeometry x="1179.9999999999998" y="300.0000000000002" width="120" height="60" as="geometry" />
        </mxCell>
        <mxCell id="156" value="Xây dựng Cơ sở dữ liệu" style="whiteSpace=wrap;rounded=1;fillColor=#12AAB5;strokeColor=none;shadow=1;fontColor=#FFFFFF;" parent="1" vertex="1">
          <mxGeometry x="1379.9999999999998" y="300.0000000000002" width="120" height="60" as="geometry" />
        </mxCell>
        <mxCell id="157" value="Chức năng xác thực người dùng" style="whiteSpace=wrap;rounded=1;fillColor=#999999;strokeColor=none;shadow=1;fontColor=#FFFFFF;fontStyle=0" parent="1" vertex="1">
          <mxGeometry x="1179.9999999999998" y="400.0000000000002" width="120" height="60" as="geometry" />
        </mxCell>
        <mxCell id="158" value="Chức năng cập nhật thông tin và tin tức" style="whiteSpace=wrap;rounded=1;fillColor=#999999;strokeColor=none;shadow=1;fontColor=#FFFFFF;fontStyle=0" parent="1" vertex="1">
          <mxGeometry x="1180" y="480.0000000000002" width="120" height="60" as="geometry" />
        </mxCell>
        <mxCell id="159" value="Chức năng tạo thông báo chung" style="whiteSpace=wrap;rounded=1;fillColor=#999999;strokeColor=none;shadow=1;fontColor=#FFFFFF;fontStyle=0" parent="1" vertex="1">
          <mxGeometry x="1179.9999999999998" y="560.0000000000002" width="120" height="60" as="geometry" />
        </mxCell>
        <mxCell id="160" value="Chức năng tạo lịch công việc" style="whiteSpace=wrap;rounded=1;fillColor=#999999;strokeColor=none;shadow=1;fontColor=#FFFFFF;fontStyle=0" parent="1" vertex="1">
          <mxGeometry x="1180" y="640.0000000000002" width="120" height="60" as="geometry" />
        </mxCell>
        <mxCell id="161" value="Chức năng đặt lịch phòng họp và tài nguyên" style="whiteSpace=wrap;rounded=1;fillColor=#999999;strokeColor=none;shadow=1;fontColor=#FFFFFF;fontStyle=0" parent="1" vertex="1">
          <mxGeometry x="1180" y="720.0000000000002" width="120" height="60" as="geometry" />
        </mxCell>
        <mxCell id="162" value="Thiết lập máy chủ" style="whiteSpace=wrap;rounded=1;fillColor=#999999;strokeColor=none;shadow=1;fontColor=#FFFFFF;fontStyle=0" parent="1" vertex="1">
          <mxGeometry x="1379.9999999999993" y="400.0000000000002" width="120" height="60" as="geometry" />
        </mxCell>
        <mxCell id="163" value="Tạo CSDL" style="whiteSpace=wrap;rounded=1;fillColor=#999999;strokeColor=none;shadow=1;fontColor=#FFFFFF;fontStyle=0" parent="1" vertex="1">
          <mxGeometry x="1379.9999999999995" y="640.0000000000002" width="120" height="60" as="geometry" />
        </mxCell>
        <mxCell id="164" value="Xây dựng API cho các nghiệp vụ" style="whiteSpace=wrap;rounded=1;fillColor=#999999;strokeColor=none;shadow=1;fontColor=#FFFFFF;fontStyle=0" parent="1" vertex="1">
          <mxGeometry x="1379.9999999999995" y="880.0000000000002" width="120" height="60" as="geometry" />
        </mxCell>
        <mxCell id="165" value="Kết nối với CSDL" style="whiteSpace=wrap;rounded=1;fillColor=#999999;strokeColor=none;shadow=1;fontColor=#FFFFFF;fontStyle=0" parent="1" vertex="1">
          <mxGeometry x="1379.9999999999995" y="1280.0000000000002" width="120" height="60" as="geometry" />
        </mxCell>
        <mxCell id="167" value="" style="edgeStyle=elbowEdgeStyle;elbow=horizontal;rounded=0;fontColor=#000000;endArrow=none;endFill=0;strokeWidth=8;strokeColor=#23445D;" parent="1" source="155" target="157" edge="1">
          <mxGeometry width="100" height="100" relative="1" as="geometry">
            <mxPoint x="1160" y="330.00000000000057" as="sourcePoint" />
            <mxPoint x="1169.9999999999995" y="430.0000000000001" as="targetPoint" />
            <Array as="points">
              <mxPoint x="1160" y="380.0000000000001" />
            </Array>
          </mxGeometry>
        </mxCell>
        <mxCell id="168" value="" style="edgeStyle=elbowEdgeStyle;elbow=horizontal;rounded=0;fontColor=#000000;endArrow=none;endFill=0;strokeWidth=8;strokeColor=#23445D;" parent="1" source="155" target="158" edge="1">
          <mxGeometry width="100" height="100" relative="1" as="geometry">
            <mxPoint x="1170" y="330.0000000000001" as="sourcePoint" />
            <mxPoint x="1169.9999999999998" y="510.0000000000001" as="targetPoint" />
            <Array as="points">
              <mxPoint x="1160" y="420.0000000000001" />
            </Array>
          </mxGeometry>
        </mxCell>
        <mxCell id="169" value="" style="edgeStyle=elbowEdgeStyle;elbow=horizontal;rounded=0;fontColor=#000000;endArrow=none;endFill=0;strokeWidth=8;strokeColor=#23445D;" parent="1" source="155" target="161" edge="1">
          <mxGeometry width="100" height="100" relative="1" as="geometry">
            <mxPoint x="1170" y="330.0000000000001" as="sourcePoint" />
            <mxPoint x="1170" y="750.0000000000001" as="targetPoint" />
            <Array as="points">
              <mxPoint x="1160" y="550.0000000000001" />
            </Array>
          </mxGeometry>
        </mxCell>
        <mxCell id="170" value="" style="edgeStyle=elbowEdgeStyle;elbow=horizontal;rounded=0;fontColor=#000000;endArrow=none;endFill=0;strokeWidth=8;strokeColor=#23445D;" parent="1" source="155" target="160" edge="1">
          <mxGeometry width="100" height="100" relative="1" as="geometry">
            <mxPoint x="1170" y="330.0000000000001" as="sourcePoint" />
            <mxPoint x="1170" y="670.0000000000001" as="targetPoint" />
            <Array as="points">
              <mxPoint x="1160" y="500.0000000000001" />
            </Array>
          </mxGeometry>
        </mxCell>
        <mxCell id="171" value="" style="edgeStyle=elbowEdgeStyle;elbow=horizontal;rounded=0;fontColor=#000000;endArrow=none;endFill=0;strokeWidth=8;strokeColor=#23445D;" parent="1" source="155" target="159" edge="1">
          <mxGeometry width="100" height="100" relative="1" as="geometry">
            <mxPoint x="1170" y="330.0000000000001" as="sourcePoint" />
            <mxPoint x="1169.9999999999998" y="590.0000000000001" as="targetPoint" />
            <Array as="points">
              <mxPoint x="1160" y="470.0000000000001" />
            </Array>
          </mxGeometry>
        </mxCell>
        <mxCell id="172" value="" style="edgeStyle=elbowEdgeStyle;elbow=horizontal;rounded=0;fontColor=#000000;endArrow=none;endFill=0;strokeWidth=8;strokeColor=#23445D;" parent="1" source="156" target="162" edge="1">
          <mxGeometry width="100" height="100" relative="1" as="geometry">
            <mxPoint x="1350" y="330.00000000000057" as="sourcePoint" />
            <mxPoint x="1359.9999999999995" y="430.0000000000001" as="targetPoint" />
            <Array as="points">
              <mxPoint x="1360" y="380.0000000000001" />
            </Array>
          </mxGeometry>
        </mxCell>
        <mxCell id="173" value="" style="edgeStyle=elbowEdgeStyle;elbow=horizontal;rounded=0;fontColor=#000000;endArrow=none;endFill=0;strokeWidth=8;strokeColor=#23445D;" parent="1" source="156" target="163" edge="1">
          <mxGeometry width="100" height="100" relative="1" as="geometry">
            <mxPoint x="1360" y="330.0000000000001" as="sourcePoint" />
            <mxPoint x="1359.9999999999998" y="510.0000000000001" as="targetPoint" />
            <Array as="points">
              <mxPoint x="1360" y="420.0000000000001" />
            </Array>
          </mxGeometry>
        </mxCell>
        <mxCell id="175" value="" style="edgeStyle=elbowEdgeStyle;elbow=horizontal;rounded=0;fontColor=#000000;endArrow=none;endFill=0;strokeWidth=8;strokeColor=#23445D;" parent="1" source="156" target="165" edge="1">
          <mxGeometry width="100" height="100" relative="1" as="geometry">
            <mxPoint x="1360" y="330.0000000000001" as="sourcePoint" />
            <mxPoint x="1360" y="670.0000000000001" as="targetPoint" />
            <Array as="points">
              <mxPoint x="1360" y="500.0000000000001" />
            </Array>
          </mxGeometry>
        </mxCell>
        <mxCell id="176" value="" style="edgeStyle=elbowEdgeStyle;elbow=horizontal;rounded=0;fontColor=#000000;endArrow=none;endFill=0;strokeWidth=8;strokeColor=#23445D;" parent="1" source="156" target="164" edge="1">
          <mxGeometry width="100" height="100" relative="1" as="geometry">
            <mxPoint x="1360" y="330.0000000000001" as="sourcePoint" />
            <mxPoint x="1359.9999999999998" y="590.0000000000001" as="targetPoint" />
            <Array as="points">
              <mxPoint x="1360" y="470.0000000000001" />
            </Array>
          </mxGeometry>
        </mxCell>
        <mxCell id="177" value="Xem lại code" style="whiteSpace=wrap;rounded=1;fillColor=#12AAB5;strokeColor=none;shadow=1;fontColor=#FFFFFF;" parent="1" vertex="1">
          <mxGeometry x="1710" y="299.9999999999999" width="120" height="60" as="geometry" />
        </mxCell>
        <mxCell id="178" value="Đánh giá mã nguồn theo chuẩn" style="whiteSpace=wrap;rounded=1;fillColor=#12AAB5;strokeColor=none;shadow=1;fontColor=#FFFFFF;" parent="1" vertex="1">
          <mxGeometry x="1709.9999999999998" y="389.9999999999999" width="120" height="60" as="geometry" />
        </mxCell>
        <mxCell id="199" value="Viết test case" style="whiteSpace=wrap;rounded=1;fillColor=#12AAB5;strokeColor=none;shadow=1;fontColor=#FFFFFF;" parent="1" vertex="1">
          <mxGeometry x="1709.9999999999998" y="479.9999999999998" width="120" height="60" as="geometry" />
        </mxCell>
        <mxCell id="200" value="Thực hiện kiểm thử" style="whiteSpace=wrap;rounded=1;fillColor=#12AAB5;strokeColor=none;shadow=1;fontColor=#FFFFFF;" parent="1" vertex="1">
          <mxGeometry x="1710" y="569.9999999999998" width="120" height="60" as="geometry" />
        </mxCell>
        <mxCell id="221" value="" style="edgeStyle=elbowEdgeStyle;elbow=vertical;rounded=0;fontColor=#000000;endArrow=none;endFill=0;strokeWidth=8;strokeColor=#23445D;" parent="1" source="6" target="133" edge="1">
          <mxGeometry width="100" height="100" relative="1" as="geometry">
            <mxPoint x="780" y="270" as="sourcePoint" />
            <mxPoint x="880" y="170" as="targetPoint" />
          </mxGeometry>
        </mxCell>
        <mxCell id="222" value="" style="edgeStyle=elbowEdgeStyle;elbow=vertical;rounded=0;fontColor=#000000;endArrow=none;endFill=0;strokeWidth=8;strokeColor=#23445D;exitX=0.5;exitY=1;exitDx=0;exitDy=0;" parent="1" source="7" target="134" edge="1">
          <mxGeometry width="100" height="100" relative="1" as="geometry">
            <mxPoint x="1030" y="280" as="sourcePoint" />
            <mxPoint x="1130" y="180" as="targetPoint" />
          </mxGeometry>
        </mxCell>
        <mxCell id="223" value="" style="edgeStyle=elbowEdgeStyle;elbow=vertical;rounded=0;fontColor=#000000;endArrow=none;endFill=0;strokeWidth=8;strokeColor=#23445D;" parent="1" source="7" target="155" edge="1">
          <mxGeometry width="100" height="100" relative="1" as="geometry">
            <mxPoint x="1340" y="300" as="sourcePoint" />
            <mxPoint x="1240" y="190" as="targetPoint" />
          </mxGeometry>
        </mxCell>
        <mxCell id="224" value="" style="edgeStyle=elbowEdgeStyle;elbow=vertical;rounded=0;fontColor=#000000;endArrow=none;endFill=0;strokeWidth=8;strokeColor=#23445D;" parent="1" source="7" target="156" edge="1">
          <mxGeometry width="100" height="100" relative="1" as="geometry">
            <mxPoint x="1430" y="290" as="sourcePoint" />
            <mxPoint x="1530" y="190" as="targetPoint" />
          </mxGeometry>
        </mxCell>
        <mxCell id="225" value="" style="edgeStyle=elbowEdgeStyle;elbow=vertical;rounded=0;fontColor=#000000;endArrow=none;endFill=0;strokeWidth=8;strokeColor=#23445D;" parent="1" source="8" target="177" edge="1">
          <mxGeometry width="100" height="100" relative="1" as="geometry">
            <mxPoint x="1680" y="229.99999999999977" as="sourcePoint" />
            <mxPoint x="1710" y="190" as="targetPoint" />
            <Array as="points">
              <mxPoint x="1680" y="330" />
            </Array>
          </mxGeometry>
        </mxCell>
        <mxCell id="229" value="" style="edgeStyle=elbowEdgeStyle;elbow=vertical;rounded=0;fontColor=#000000;endArrow=none;endFill=0;strokeWidth=8;strokeColor=#23445D;" parent="1" source="2" target="3" edge="1">
          <mxGeometry width="100" height="100" relative="1" as="geometry">
            <mxPoint x="540" y="140" as="sourcePoint" />
            <mxPoint x="640" y="40" as="targetPoint" />
          </mxGeometry>
        </mxCell>
        <mxCell id="230" value="" style="edgeStyle=elbowEdgeStyle;elbow=vertical;rounded=0;fontColor=#000000;endArrow=none;endFill=0;strokeWidth=8;strokeColor=#23445D;" parent="1" source="2" target="4" edge="1">
          <mxGeometry width="100" height="100" relative="1" as="geometry">
            <mxPoint x="550" y="150" as="sourcePoint" />
            <mxPoint x="650" y="50" as="targetPoint" />
          </mxGeometry>
        </mxCell>
        <mxCell id="231" value="" style="edgeStyle=elbowEdgeStyle;elbow=vertical;rounded=0;fontColor=#000000;endArrow=none;endFill=0;strokeWidth=8;strokeColor=#23445D;" parent="1" source="2" target="6" edge="1">
          <mxGeometry width="100" height="100" relative="1" as="geometry">
            <mxPoint x="560" y="160" as="sourcePoint" />
            <mxPoint x="660" y="60" as="targetPoint" />
          </mxGeometry>
        </mxCell>
        <mxCell id="232" value="" style="edgeStyle=elbowEdgeStyle;elbow=vertical;rounded=0;fontColor=#000000;endArrow=none;endFill=0;strokeWidth=8;strokeColor=#23445D;" parent="1" source="2" target="7" edge="1">
          <mxGeometry width="100" height="100" relative="1" as="geometry">
            <mxPoint x="570" y="170" as="sourcePoint" />
            <mxPoint x="670" y="70" as="targetPoint" />
            <Array as="points">
              <mxPoint x="1020" y="130" />
            </Array>
          </mxGeometry>
        </mxCell>
        <mxCell id="233" value="" style="edgeStyle=elbowEdgeStyle;elbow=vertical;rounded=0;fontColor=#000000;endArrow=none;endFill=0;strokeWidth=8;strokeColor=#23445D;" parent="1" source="2" target="8" edge="1">
          <mxGeometry width="100" height="100" relative="1" as="geometry">
            <mxPoint x="580" y="180" as="sourcePoint" />
            <mxPoint x="680" y="80" as="targetPoint" />
            <Array as="points">
              <mxPoint x="1200" y="130" />
            </Array>
          </mxGeometry>
        </mxCell>
        <mxCell id="234" value="" style="elbow=vertical;rounded=0;fontColor=#000000;endArrow=none;endFill=0;strokeWidth=8;strokeColor=#23445D;edgeStyle=orthogonalEdgeStyle;" parent="1" source="2" target="5" edge="1">
          <mxGeometry width="100" height="100" relative="1" as="geometry">
            <mxPoint x="1790" y="140" as="sourcePoint" />
            <mxPoint x="770" y="90" as="targetPoint" />
            <Array as="points">
              <mxPoint x="690" y="130" />
              <mxPoint x="2180" y="130" />
            </Array>
          </mxGeometry>
        </mxCell>
        <mxCell id="uvsx1aoXTzuLejHF6nzz-234" value="Tổng kết" style="whiteSpace=wrap;rounded=1;fillColor=#F2931E;strokeColor=none;shadow=1;fontColor=#FFFFFF;fontStyle=1;fontSize=14" parent="1" vertex="1">
          <mxGeometry x="3280" y="169.9999999999998" width="140" height="60" as="geometry" />
        </mxCell>
        <mxCell id="uvsx1aoXTzuLejHF6nzz-235" value="Bảo trì" style="whiteSpace=wrap;rounded=1;fillColor=#F2931E;strokeColor=none;shadow=1;fontColor=#FFFFFF;fontStyle=1;fontSize=14" parent="1" vertex="1">
          <mxGeometry x="2620" y="169.9999999999998" width="140" height="60" as="geometry" />
        </mxCell>
        <mxCell id="uvsx1aoXTzuLejHF6nzz-236" value="Phân tích kết quả kiểm thử" style="whiteSpace=wrap;rounded=1;fillColor=#12AAB5;strokeColor=none;shadow=1;fontColor=#FFFFFF;" parent="1" vertex="1">
          <mxGeometry x="1710" y="659.9999999999999" width="120" height="60" as="geometry" />
        </mxCell>
        <mxCell id="uvsx1aoXTzuLejHF6nzz-237" value="Xác định lỗi và cảnh báo" style="whiteSpace=wrap;rounded=1;fillColor=#12AAB5;strokeColor=none;shadow=1;fontColor=#FFFFFF;" parent="1" vertex="1">
          <mxGeometry x="1710" y="759.9999999999999" width="120" height="60" as="geometry" />
        </mxCell>
        <mxCell id="uvsx1aoXTzuLejHF6nzz-258" value="Phân công nhân sự sửa đổi" style="whiteSpace=wrap;rounded=1;fillColor=#12AAB5;strokeColor=none;shadow=1;fontColor=#FFFFFF;" parent="1" vertex="1">
          <mxGeometry x="1710" y="859.9999999999998" width="120" height="60" as="geometry" />
        </mxCell>
        <mxCell id="uvsx1aoXTzuLejHF6nzz-259" value="Sửa lỗi " style="whiteSpace=wrap;rounded=1;fillColor=#12AAB5;strokeColor=none;shadow=1;fontColor=#FFFFFF;" parent="1" vertex="1">
          <mxGeometry x="1710" y="949.9999999999998" width="120" height="60" as="geometry" />
        </mxCell>
        <mxCell id="uvsx1aoXTzuLejHF6nzz-285" value="" style="elbow=vertical;rounded=0;fontColor=#000000;endArrow=none;endFill=0;strokeWidth=8;strokeColor=#23445D;edgeStyle=orthogonalEdgeStyle;" parent="1" source="2" target="uvsx1aoXTzuLejHF6nzz-235" edge="1">
          <mxGeometry width="100" height="100" relative="1" as="geometry">
            <mxPoint x="1560" y="120" as="sourcePoint" />
            <mxPoint x="2760" y="170" as="targetPoint" />
            <Array as="points">
              <mxPoint x="690" y="130" />
              <mxPoint x="2690" y="130" />
            </Array>
          </mxGeometry>
        </mxCell>
        <mxCell id="uvsx1aoXTzuLejHF6nzz-286" value="" style="elbow=vertical;rounded=0;fontColor=#000000;endArrow=none;endFill=0;strokeWidth=8;strokeColor=#23445D;edgeStyle=orthogonalEdgeStyle;" parent="1" source="2" target="uvsx1aoXTzuLejHF6nzz-234" edge="1">
          <mxGeometry width="100" height="100" relative="1" as="geometry">
            <mxPoint x="2700" y="140" as="sourcePoint" />
            <mxPoint x="3120" y="140" as="targetPoint" />
            <Array as="points">
              <mxPoint x="690" y="130" />
              <mxPoint x="3350" y="130" />
            </Array>
          </mxGeometry>
        </mxCell>
        <mxCell id="uvsx1aoXTzuLejHF6nzz-287" value="Xây dựng Project Charter" style="whiteSpace=wrap;rounded=1;fillColor=#12AAB5;strokeColor=none;shadow=1;fontColor=#FFFFFF;" parent="1" vertex="1">
          <mxGeometry x="-2780" y="300.0000000000001" width="120" height="60" as="geometry" />
        </mxCell>
        <mxCell id="uvsx1aoXTzuLejHF6nzz-288" value="Xây dựng SOW  " style="whiteSpace=wrap;rounded=1;fillColor=#12AAB5;strokeColor=none;shadow=1;fontColor=#FFFFFF;" parent="1" vertex="1">
          <mxGeometry x="-2580" y="300.0000000000001" width="120" height="60" as="geometry" />
        </mxCell>
        <mxCell id="uvsx1aoXTzuLejHF6nzz-289" value="Xác định mục tiêu dự án" style="whiteSpace=wrap;rounded=1;fillColor=#999999;strokeColor=none;shadow=1;fontColor=#FFFFFF;fontStyle=0" parent="1" vertex="1">
          <mxGeometry x="-2780" y="400.0000000000001" width="120" height="60" as="geometry" />
        </mxCell>
        <mxCell id="uvsx1aoXTzuLejHF6nzz-290" value="Sản phẩm bàn giao " style="whiteSpace=wrap;rounded=1;fillColor=#999999;strokeColor=none;shadow=1;fontColor=#FFFFFF;fontStyle=0" parent="1" vertex="1">
          <mxGeometry x="-2780" y="480.0000000000001" width="120" height="60" as="geometry" />
        </mxCell>
        <mxCell id="uvsx1aoXTzuLejHF6nzz-291" value="Định nghĩa phạm vi " style="whiteSpace=wrap;rounded=1;fillColor=#999999;strokeColor=none;shadow=1;fontColor=#FFFFFF;fontStyle=0" parent="1" vertex="1">
          <mxGeometry x="-2780" y="560.0000000000001" width="120" height="60" as="geometry" />
        </mxCell>
        <mxCell id="uvsx1aoXTzuLejHF6nzz-292" value="Các mốc quan trọng của dự án " style="whiteSpace=wrap;rounded=1;fillColor=#999999;strokeColor=none;shadow=1;fontColor=#FFFFFF;fontStyle=0" parent="1" vertex="1">
          <mxGeometry x="-2780" y="640.0000000000001" width="120" height="60" as="geometry" />
        </mxCell>
        <mxCell id="uvsx1aoXTzuLejHF6nzz-293" value="Giả định, ràng buộc và phụ thuộc" style="whiteSpace=wrap;rounded=1;fillColor=#999999;strokeColor=none;shadow=1;fontColor=#FFFFFF;fontStyle=0" parent="1" vertex="1">
          <mxGeometry x="-2779.9999999999995" y="720.0000000000001" width="120" height="60" as="geometry" />
        </mxCell>
        <mxCell id="uvsx1aoXTzuLejHF6nzz-294" value="Phạm vi công việc " style="whiteSpace=wrap;rounded=1;fillColor=#999999;strokeColor=none;shadow=1;fontColor=#FFFFFF;fontStyle=0" parent="1" vertex="1">
          <mxGeometry x="-2580.0000000000005" y="400.0000000000001" width="120" height="60" as="geometry" />
        </mxCell>
        <mxCell id="uvsx1aoXTzuLejHF6nzz-295" value="Vị trí " style="whiteSpace=wrap;rounded=1;fillColor=#999999;strokeColor=none;shadow=1;fontColor=#FFFFFF;fontStyle=0" parent="1" vertex="1">
          <mxGeometry x="-2580" y="480.0000000000001" width="120" height="60" as="geometry" />
        </mxCell>
        <mxCell id="uvsx1aoXTzuLejHF6nzz-296" value="Lịch trình " style="whiteSpace=wrap;rounded=1;fillColor=#999999;strokeColor=none;shadow=1;fontColor=#FFFFFF;fontStyle=0" parent="1" vertex="1">
          <mxGeometry x="-2580" y="560.0000000000001" width="120" height="60" as="geometry" />
        </mxCell>
        <mxCell id="uvsx1aoXTzuLejHF6nzz-297" value="Sản phẩm bàn giao " style="whiteSpace=wrap;rounded=1;fillColor=#999999;strokeColor=none;shadow=1;fontColor=#FFFFFF;fontStyle=0" parent="1" vertex="1">
          <mxGeometry x="-2580" y="640.0000000000001" width="120" height="60" as="geometry" />
        </mxCell>
        <mxCell id="uvsx1aoXTzuLejHF6nzz-298" value="Tiêu chuẩn và kiểm thử " style="whiteSpace=wrap;rounded=1;fillColor=#999999;strokeColor=none;shadow=1;fontColor=#FFFFFF;fontStyle=0" parent="1" vertex="1">
          <mxGeometry x="-2580" y="720.0000000000001" width="120" height="60" as="geometry" />
        </mxCell>
        <mxCell id="uvsx1aoXTzuLejHF6nzz-299" value="" style="edgeStyle=elbowEdgeStyle;elbow=horizontal;rounded=0;fontColor=#000000;endArrow=none;endFill=0;strokeWidth=8;strokeColor=#23445D;" parent="1" source="uvsx1aoXTzuLejHF6nzz-287" target="uvsx1aoXTzuLejHF6nzz-289" edge="1">
          <mxGeometry width="100" height="100" relative="1" as="geometry">
            <mxPoint x="-2840" y="480" as="sourcePoint" />
            <mxPoint x="-2740" y="380" as="targetPoint" />
            <Array as="points">
              <mxPoint x="-2800" y="380" />
            </Array>
          </mxGeometry>
        </mxCell>
        <mxCell id="uvsx1aoXTzuLejHF6nzz-300" value="" style="edgeStyle=elbowEdgeStyle;elbow=horizontal;rounded=0;fontColor=#000000;endArrow=none;endFill=0;strokeWidth=8;strokeColor=#23445D;" parent="1" source="uvsx1aoXTzuLejHF6nzz-287" target="uvsx1aoXTzuLejHF6nzz-290" edge="1">
          <mxGeometry width="100" height="100" relative="1" as="geometry">
            <mxPoint x="-2770" y="340" as="sourcePoint" />
            <mxPoint x="-2770" y="440" as="targetPoint" />
            <Array as="points">
              <mxPoint x="-2800" y="400" />
            </Array>
          </mxGeometry>
        </mxCell>
        <mxCell id="uvsx1aoXTzuLejHF6nzz-301" value="" style="edgeStyle=elbowEdgeStyle;elbow=horizontal;rounded=0;fontColor=#000000;endArrow=none;endFill=0;strokeWidth=8;strokeColor=#23445D;" parent="1" source="uvsx1aoXTzuLejHF6nzz-287" target="uvsx1aoXTzuLejHF6nzz-293" edge="1">
          <mxGeometry width="100" height="100" relative="1" as="geometry">
            <mxPoint x="-2770" y="340" as="sourcePoint" />
            <mxPoint x="-2770" y="440" as="targetPoint" />
            <Array as="points">
              <mxPoint x="-2800" y="540" />
            </Array>
          </mxGeometry>
        </mxCell>
        <mxCell id="uvsx1aoXTzuLejHF6nzz-302" value="" style="edgeStyle=elbowEdgeStyle;elbow=horizontal;rounded=0;fontColor=#000000;endArrow=none;endFill=0;strokeWidth=8;strokeColor=#23445D;" parent="1" source="uvsx1aoXTzuLejHF6nzz-287" target="uvsx1aoXTzuLejHF6nzz-292" edge="1">
          <mxGeometry width="100" height="100" relative="1" as="geometry">
            <mxPoint x="-2750" y="360" as="sourcePoint" />
            <mxPoint x="-2750" y="460" as="targetPoint" />
            <Array as="points">
              <mxPoint x="-2800" y="410" />
            </Array>
          </mxGeometry>
        </mxCell>
        <mxCell id="uvsx1aoXTzuLejHF6nzz-303" value="" style="edgeStyle=elbowEdgeStyle;elbow=horizontal;rounded=0;fontColor=#000000;endArrow=none;endFill=0;strokeWidth=8;strokeColor=#23445D;" parent="1" source="uvsx1aoXTzuLejHF6nzz-287" target="uvsx1aoXTzuLejHF6nzz-291" edge="1">
          <mxGeometry width="100" height="100" relative="1" as="geometry">
            <mxPoint x="-2740" y="370" as="sourcePoint" />
            <mxPoint x="-2740" y="470" as="targetPoint" />
            <Array as="points">
              <mxPoint x="-2800" y="430" />
            </Array>
          </mxGeometry>
        </mxCell>
        <mxCell id="uvsx1aoXTzuLejHF6nzz-304" value="" style="edgeStyle=elbowEdgeStyle;elbow=horizontal;rounded=0;fontColor=#000000;endArrow=none;endFill=0;strokeWidth=8;strokeColor=#23445D;" parent="1" target="uvsx1aoXTzuLejHF6nzz-294" edge="1">
          <mxGeometry width="100" height="100" relative="1" as="geometry">
            <mxPoint x="-2590" y="330.0000000000004" as="sourcePoint" />
            <mxPoint x="-2590" y="430.0000000000004" as="targetPoint" />
            <Array as="points">
              <mxPoint x="-2600" y="380" />
            </Array>
          </mxGeometry>
        </mxCell>
        <mxCell id="uvsx1aoXTzuLejHF6nzz-305" value="" style="edgeStyle=elbowEdgeStyle;elbow=horizontal;rounded=0;fontColor=#000000;endArrow=none;endFill=0;strokeWidth=8;strokeColor=#23445D;" parent="1" source="uvsx1aoXTzuLejHF6nzz-288" target="uvsx1aoXTzuLejHF6nzz-295" edge="1">
          <mxGeometry width="100" height="100" relative="1" as="geometry">
            <mxPoint x="-2590" y="330.0000000000004" as="sourcePoint" />
            <mxPoint x="-2590" y="510.00000000000045" as="targetPoint" />
            <Array as="points">
              <mxPoint x="-2600" y="420" />
            </Array>
          </mxGeometry>
        </mxCell>
        <mxCell id="uvsx1aoXTzuLejHF6nzz-306" value="" style="edgeStyle=elbowEdgeStyle;elbow=horizontal;rounded=0;fontColor=#000000;endArrow=none;endFill=0;strokeWidth=8;strokeColor=#23445D;" parent="1" source="uvsx1aoXTzuLejHF6nzz-288" target="uvsx1aoXTzuLejHF6nzz-298" edge="1">
          <mxGeometry width="100" height="100" relative="1" as="geometry">
            <mxPoint x="-2590" y="330.0000000000004" as="sourcePoint" />
            <mxPoint x="-2589.9999999999995" y="750.0000000000003" as="targetPoint" />
            <Array as="points">
              <mxPoint x="-2600" y="540" />
            </Array>
          </mxGeometry>
        </mxCell>
        <mxCell id="uvsx1aoXTzuLejHF6nzz-307" value="" style="edgeStyle=elbowEdgeStyle;elbow=horizontal;rounded=0;fontColor=#000000;endArrow=none;endFill=0;strokeWidth=8;strokeColor=#23445D;" parent="1" source="uvsx1aoXTzuLejHF6nzz-288" target="uvsx1aoXTzuLejHF6nzz-297" edge="1">
          <mxGeometry width="100" height="100" relative="1" as="geometry">
            <mxPoint x="-2590" y="330.0000000000004" as="sourcePoint" />
            <mxPoint x="-2590" y="670.0000000000003" as="targetPoint" />
            <Array as="points">
              <mxPoint x="-2600" y="500" />
            </Array>
          </mxGeometry>
        </mxCell>
        <mxCell id="uvsx1aoXTzuLejHF6nzz-308" value="" style="edgeStyle=elbowEdgeStyle;elbow=horizontal;rounded=0;fontColor=#000000;endArrow=none;endFill=0;strokeWidth=8;strokeColor=#23445D;" parent="1" source="uvsx1aoXTzuLejHF6nzz-288" target="uvsx1aoXTzuLejHF6nzz-296" edge="1">
          <mxGeometry width="100" height="100" relative="1" as="geometry">
            <mxPoint x="-2590" y="330.0000000000004" as="sourcePoint" />
            <mxPoint x="-2590" y="590.0000000000003" as="targetPoint" />
            <Array as="points">
              <mxPoint x="-2600" y="460" />
            </Array>
          </mxGeometry>
        </mxCell>
        <mxCell id="uvsx1aoXTzuLejHF6nzz-311" value="" style="edgeStyle=elbowEdgeStyle;elbow=vertical;rounded=0;fontColor=#000000;endArrow=none;endFill=0;strokeWidth=8;strokeColor=#23445D;exitX=0.5;exitY=1;exitDx=0;exitDy=0;" parent="1" source="3" edge="1">
          <mxGeometry width="100" height="100" relative="1" as="geometry">
            <mxPoint x="-2230" y="230" as="sourcePoint" />
            <mxPoint x="-2530" y="300" as="targetPoint" />
          </mxGeometry>
        </mxCell>
        <mxCell id="uvsx1aoXTzuLejHF6nzz-312" value="" style="edgeStyle=elbowEdgeStyle;elbow=vertical;rounded=0;fontColor=#000000;endArrow=none;endFill=0;strokeWidth=8;strokeColor=#23445D;exitX=0.5;exitY=1;exitDx=0;exitDy=0;" parent="1" source="3" edge="1">
          <mxGeometry width="100" height="100" relative="1" as="geometry">
            <mxPoint x="-2230" y="230" as="sourcePoint" />
            <mxPoint x="-2730" y="300" as="targetPoint" />
          </mxGeometry>
        </mxCell>
        <mxCell id="uvsx1aoXTzuLejHF6nzz-313" value="Phương án thực hiện " style="whiteSpace=wrap;rounded=1;fillColor=#12AAB5;strokeColor=none;shadow=1;fontColor=#FFFFFF;" parent="1" vertex="1">
          <mxGeometry x="-1980" y="300.0000000000001" width="120" height="60" as="geometry" />
        </mxCell>
        <mxCell id="uvsx1aoXTzuLejHF6nzz-314" value="Mô tả các phương án thực hiện dự án " style="whiteSpace=wrap;rounded=1;fillColor=#999999;strokeColor=none;shadow=1;fontColor=#FFFFFF;fontStyle=0" parent="1" vertex="1">
          <mxGeometry x="-1980.0000000000005" y="400.0000000000001" width="120" height="60" as="geometry" />
        </mxCell>
        <mxCell id="uvsx1aoXTzuLejHF6nzz-315" value="Đánh giá mỗi phương án " style="whiteSpace=wrap;rounded=1;fillColor=#999999;strokeColor=none;shadow=1;fontColor=#FFFFFF;fontStyle=0" parent="1" vertex="1">
          <mxGeometry x="-1980.0000000000002" y="480.0000000000001" width="120" height="60" as="geometry" />
        </mxCell>
        <mxCell id="uvsx1aoXTzuLejHF6nzz-316" value="Chọn phương án " style="whiteSpace=wrap;rounded=1;fillColor=#999999;strokeColor=none;shadow=1;fontColor=#FFFFFF;fontStyle=0" parent="1" vertex="1">
          <mxGeometry x="-1980.0000000000002" y="560.0000000000001" width="120" height="60" as="geometry" />
        </mxCell>
        <mxCell id="uvsx1aoXTzuLejHF6nzz-319" value="" style="edgeStyle=elbowEdgeStyle;elbow=horizontal;rounded=0;fontColor=#000000;endArrow=none;endFill=0;strokeWidth=8;strokeColor=#23445D;" parent="1" target="uvsx1aoXTzuLejHF6nzz-314" edge="1">
          <mxGeometry width="100" height="100" relative="1" as="geometry">
            <mxPoint x="-1990" y="330.0000000000004" as="sourcePoint" />
            <mxPoint x="-1990" y="430.0000000000004" as="targetPoint" />
            <Array as="points">
              <mxPoint x="-2000" y="380" />
            </Array>
          </mxGeometry>
        </mxCell>
        <mxCell id="uvsx1aoXTzuLejHF6nzz-320" value="" style="edgeStyle=elbowEdgeStyle;elbow=horizontal;rounded=0;fontColor=#000000;endArrow=none;endFill=0;strokeWidth=8;strokeColor=#23445D;" parent="1" source="uvsx1aoXTzuLejHF6nzz-313" target="uvsx1aoXTzuLejHF6nzz-315" edge="1">
          <mxGeometry width="100" height="100" relative="1" as="geometry">
            <mxPoint x="-1990" y="330.0000000000004" as="sourcePoint" />
            <mxPoint x="-1990" y="510.00000000000045" as="targetPoint" />
            <Array as="points">
              <mxPoint x="-2000" y="420" />
            </Array>
          </mxGeometry>
        </mxCell>
        <mxCell id="uvsx1aoXTzuLejHF6nzz-323" value="" style="edgeStyle=elbowEdgeStyle;elbow=horizontal;rounded=0;fontColor=#000000;endArrow=none;endFill=0;strokeWidth=8;strokeColor=#23445D;" parent="1" source="uvsx1aoXTzuLejHF6nzz-313" target="uvsx1aoXTzuLejHF6nzz-316" edge="1">
          <mxGeometry width="100" height="100" relative="1" as="geometry">
            <mxPoint x="-1990" y="330.0000000000004" as="sourcePoint" />
            <mxPoint x="-1990" y="590.0000000000003" as="targetPoint" />
            <Array as="points">
              <mxPoint x="-2000" y="460" />
            </Array>
          </mxGeometry>
        </mxCell>
        <mxCell id="uvsx1aoXTzuLejHF6nzz-324" value="" style="edgeStyle=elbowEdgeStyle;elbow=vertical;rounded=0;fontColor=#000000;endArrow=none;endFill=0;strokeWidth=8;strokeColor=#23445D;entryX=0.5;entryY=0;entryDx=0;entryDy=0;" parent="1" source="3" target="uvsx1aoXTzuLejHF6nzz-313" edge="1">
          <mxGeometry width="100" height="100" relative="1" as="geometry">
            <mxPoint x="-2410" y="230" as="sourcePoint" />
            <mxPoint x="-2130" y="300" as="targetPoint" />
          </mxGeometry>
        </mxCell>
        <mxCell id="uvsx1aoXTzuLejHF6nzz-325" value="Cơ cấu tổ chức dự án" style="whiteSpace=wrap;rounded=1;fillColor=#999999;strokeColor=none;shadow=1;fontColor=#FFFFFF;fontStyle=0" parent="1" vertex="1">
          <mxGeometry x="-2779.9999999999995" y="810.0000000000001" width="120" height="60" as="geometry" />
        </mxCell>
        <mxCell id="uvsx1aoXTzuLejHF6nzz-326" value="" style="edgeStyle=elbowEdgeStyle;elbow=horizontal;rounded=0;fontColor=#000000;endArrow=none;endFill=0;strokeWidth=8;strokeColor=#23445D;entryX=0;entryY=0.5;entryDx=0;entryDy=0;" parent="1" target="uvsx1aoXTzuLejHF6nzz-325" edge="1">
          <mxGeometry width="100" height="100" relative="1" as="geometry">
            <mxPoint x="-2780" y="330" as="sourcePoint" />
            <mxPoint x="-2790" y="840" as="targetPoint" />
            <Array as="points">
              <mxPoint x="-2800" y="550" />
            </Array>
          </mxGeometry>
        </mxCell>
        <mxCell id="uvsx1aoXTzuLejHF6nzz-327" value="Xác định thành công " style="whiteSpace=wrap;rounded=1;fillColor=#999999;strokeColor=none;shadow=1;fontColor=#FFFFFF;fontStyle=0" parent="1" vertex="1">
          <mxGeometry x="-2580" y="810.0000000000001" width="120" height="60" as="geometry" />
        </mxCell>
        <mxCell id="uvsx1aoXTzuLejHF6nzz-328" value="Thanh toán " style="whiteSpace=wrap;rounded=1;fillColor=#999999;strokeColor=none;shadow=1;fontColor=#FFFFFF;fontStyle=0" parent="1" vertex="1">
          <mxGeometry x="-2580" y="900.0000000000001" width="120" height="60" as="geometry" />
        </mxCell>
        <mxCell id="uvsx1aoXTzuLejHF6nzz-329" value="" style="edgeStyle=elbowEdgeStyle;elbow=horizontal;rounded=0;fontColor=#000000;endArrow=none;endFill=0;strokeWidth=8;strokeColor=#23445D;entryX=0;entryY=0.5;entryDx=0;entryDy=0;" parent="1" target="uvsx1aoXTzuLejHF6nzz-327" edge="1">
          <mxGeometry width="100" height="100" relative="1" as="geometry">
            <mxPoint x="-2580" y="430" as="sourcePoint" />
            <mxPoint x="-2580" y="840" as="targetPoint" />
            <Array as="points">
              <mxPoint x="-2600" y="640" />
            </Array>
          </mxGeometry>
        </mxCell>
        <mxCell id="uvsx1aoXTzuLejHF6nzz-330" value="" style="edgeStyle=elbowEdgeStyle;elbow=horizontal;rounded=0;fontColor=#000000;endArrow=none;endFill=0;strokeWidth=8;strokeColor=#23445D;entryX=0;entryY=0.5;entryDx=0;entryDy=0;" parent="1" target="uvsx1aoXTzuLejHF6nzz-328" edge="1">
          <mxGeometry width="100" height="100" relative="1" as="geometry">
            <mxPoint x="-2580" y="510" as="sourcePoint" />
            <mxPoint x="-2580" y="920" as="targetPoint" />
            <Array as="points">
              <mxPoint x="-2600" y="720" />
            </Array>
          </mxGeometry>
        </mxCell>
        <mxCell id="uvsx1aoXTzuLejHF6nzz-331" value="Quản lý phạm vi " style="whiteSpace=wrap;rounded=1;fillColor=#12AAB5;strokeColor=none;shadow=1;fontColor=#FFFFFF;" parent="1" vertex="1">
          <mxGeometry x="-1390.0000000000002" y="300.0000000000001" width="120" height="60" as="geometry" />
        </mxCell>
        <mxCell id="uvsx1aoXTzuLejHF6nzz-332" value="Quản lý lịch biểu " style="whiteSpace=wrap;rounded=1;fillColor=#12AAB5;strokeColor=none;shadow=1;fontColor=#FFFFFF;" parent="1" vertex="1">
          <mxGeometry x="-1190.0000000000002" y="300.0000000000001" width="120" height="60" as="geometry" />
        </mxCell>
        <mxCell id="uvsx1aoXTzuLejHF6nzz-333" value="Tiêu chí bàn giao và chấp nhận " style="whiteSpace=wrap;rounded=1;fillColor=#999999;strokeColor=none;shadow=1;fontColor=#FFFFFF;fontStyle=0" parent="1" vertex="1">
          <mxGeometry x="-1390.0000000000002" y="400.0000000000001" width="120" height="60" as="geometry" />
        </mxCell>
        <mxCell id="uvsx1aoXTzuLejHF6nzz-334" value="Định nghĩa phạm vi " style="whiteSpace=wrap;rounded=1;fillColor=#999999;strokeColor=none;shadow=1;fontColor=#FFFFFF;fontStyle=0" parent="1" vertex="1">
          <mxGeometry x="-1390" y="480.0000000000001" width="120" height="60" as="geometry" />
        </mxCell>
        <mxCell id="uvsx1aoXTzuLejHF6nzz-335" value="Tài liệu giả lập  " style="whiteSpace=wrap;rounded=1;fillColor=#999999;strokeColor=none;shadow=1;fontColor=#FFFFFF;fontStyle=0" parent="1" vertex="1">
          <mxGeometry x="-1390.0000000000002" y="560.0000000000001" width="120" height="60" as="geometry" />
        </mxCell>
        <mxCell id="uvsx1aoXTzuLejHF6nzz-338" value="Xây dựng WBS " style="whiteSpace=wrap;rounded=1;fillColor=#999999;strokeColor=none;shadow=1;fontColor=#FFFFFF;fontStyle=0" parent="1" vertex="1">
          <mxGeometry x="-1190.0000000000007" y="400.0000000000001" width="120" height="60" as="geometry" />
        </mxCell>
        <mxCell id="uvsx1aoXTzuLejHF6nzz-339" value="Xây dựng kế hoạch tài nguyên " style="whiteSpace=wrap;rounded=1;fillColor=#999999;strokeColor=none;shadow=1;fontColor=#FFFFFF;fontStyle=0" parent="1" vertex="1">
          <mxGeometry x="-1190.0000000000005" y="480.0000000000001" width="120" height="60" as="geometry" />
        </mxCell>
        <mxCell id="uvsx1aoXTzuLejHF6nzz-340" value="Xác định các bên và xây dựng lịch trình dự án " style="whiteSpace=wrap;rounded=1;fillColor=#999999;strokeColor=none;shadow=1;fontColor=#FFFFFF;fontStyle=0" parent="1" vertex="1">
          <mxGeometry x="-1190.0000000000005" y="560.0000000000001" width="120" height="60" as="geometry" />
        </mxCell>
        <mxCell id="uvsx1aoXTzuLejHF6nzz-341" value="Tài liệu giả lập " style="whiteSpace=wrap;rounded=1;fillColor=#999999;strokeColor=none;shadow=1;fontColor=#FFFFFF;fontStyle=0" parent="1" vertex="1">
          <mxGeometry x="-1190.0000000000005" y="640.0000000000001" width="120" height="60" as="geometry" />
        </mxCell>
        <mxCell id="uvsx1aoXTzuLejHF6nzz-343" value="" style="edgeStyle=elbowEdgeStyle;elbow=vertical;rounded=0;fontColor=#000000;endArrow=none;endFill=0;strokeWidth=8;strokeColor=#23445D;exitX=0.5;exitY=1;exitDx=0;exitDy=0;" parent="1" source="4" target="uvsx1aoXTzuLejHF6nzz-331" edge="1">
          <mxGeometry width="100" height="100" relative="1" as="geometry">
            <mxPoint x="-1230" y="230" as="sourcePoint" />
            <mxPoint x="-1690" y="310" as="targetPoint" />
          </mxGeometry>
        </mxCell>
        <mxCell id="uvsx1aoXTzuLejHF6nzz-344" value="" style="edgeStyle=elbowEdgeStyle;elbow=vertical;rounded=0;fontColor=#000000;endArrow=none;endFill=0;strokeWidth=8;strokeColor=#23445D;exitX=0.5;exitY=1;exitDx=0;exitDy=0;" parent="1" source="4" target="uvsx1aoXTzuLejHF6nzz-332" edge="1">
          <mxGeometry width="100" height="100" relative="1" as="geometry">
            <mxPoint x="-1230" y="230" as="sourcePoint" />
            <mxPoint x="-1490" y="310" as="targetPoint" />
          </mxGeometry>
        </mxCell>
        <mxCell id="uvsx1aoXTzuLejHF6nzz-345" value="" style="edgeStyle=elbowEdgeStyle;elbow=horizontal;rounded=0;fontColor=#000000;endArrow=none;endFill=0;strokeWidth=8;strokeColor=#23445D;" parent="1" source="uvsx1aoXTzuLejHF6nzz-331" target="uvsx1aoXTzuLejHF6nzz-333" edge="1">
          <mxGeometry width="100" height="100" relative="1" as="geometry">
            <mxPoint x="-1410" y="330.00000000000045" as="sourcePoint" />
            <mxPoint x="-1400.0000000000005" y="430" as="targetPoint" />
            <Array as="points">
              <mxPoint x="-1410" y="380" />
            </Array>
          </mxGeometry>
        </mxCell>
        <mxCell id="uvsx1aoXTzuLejHF6nzz-346" value="" style="edgeStyle=elbowEdgeStyle;elbow=horizontal;rounded=0;fontColor=#000000;endArrow=none;endFill=0;strokeWidth=8;strokeColor=#23445D;" parent="1" source="uvsx1aoXTzuLejHF6nzz-331" target="uvsx1aoXTzuLejHF6nzz-334" edge="1">
          <mxGeometry width="100" height="100" relative="1" as="geometry">
            <mxPoint x="-1400" y="330" as="sourcePoint" />
            <mxPoint x="-1400.0000000000002" y="510" as="targetPoint" />
            <Array as="points">
              <mxPoint x="-1410" y="420" />
            </Array>
          </mxGeometry>
        </mxCell>
        <mxCell id="uvsx1aoXTzuLejHF6nzz-349" value="" style="edgeStyle=elbowEdgeStyle;elbow=horizontal;rounded=0;fontColor=#000000;endArrow=none;endFill=0;strokeWidth=8;strokeColor=#23445D;" parent="1" source="uvsx1aoXTzuLejHF6nzz-331" target="uvsx1aoXTzuLejHF6nzz-335" edge="1">
          <mxGeometry width="100" height="100" relative="1" as="geometry">
            <mxPoint x="-1400" y="330" as="sourcePoint" />
            <mxPoint x="-1400.0000000000002" y="590" as="targetPoint" />
            <Array as="points">
              <mxPoint x="-1410" y="470" />
            </Array>
          </mxGeometry>
        </mxCell>
        <mxCell id="uvsx1aoXTzuLejHF6nzz-350" value="" style="edgeStyle=elbowEdgeStyle;elbow=horizontal;rounded=0;fontColor=#000000;endArrow=none;endFill=0;strokeWidth=8;strokeColor=#23445D;" parent="1" source="uvsx1aoXTzuLejHF6nzz-332" target="uvsx1aoXTzuLejHF6nzz-338" edge="1">
          <mxGeometry width="100" height="100" relative="1" as="geometry">
            <mxPoint x="-1220" y="330.00000000000045" as="sourcePoint" />
            <mxPoint x="-1210.0000000000005" y="430" as="targetPoint" />
            <Array as="points">
              <mxPoint x="-1210" y="380" />
            </Array>
          </mxGeometry>
        </mxCell>
        <mxCell id="uvsx1aoXTzuLejHF6nzz-351" value="" style="edgeStyle=elbowEdgeStyle;elbow=horizontal;rounded=0;fontColor=#000000;endArrow=none;endFill=0;strokeWidth=8;strokeColor=#23445D;" parent="1" source="uvsx1aoXTzuLejHF6nzz-332" target="uvsx1aoXTzuLejHF6nzz-339" edge="1">
          <mxGeometry width="100" height="100" relative="1" as="geometry">
            <mxPoint x="-1210" y="330" as="sourcePoint" />
            <mxPoint x="-1210.0000000000002" y="510" as="targetPoint" />
            <Array as="points">
              <mxPoint x="-1210" y="420" />
            </Array>
          </mxGeometry>
        </mxCell>
        <mxCell id="uvsx1aoXTzuLejHF6nzz-353" value="" style="edgeStyle=elbowEdgeStyle;elbow=horizontal;rounded=0;fontColor=#000000;endArrow=none;endFill=0;strokeWidth=8;strokeColor=#23445D;" parent="1" source="uvsx1aoXTzuLejHF6nzz-332" target="uvsx1aoXTzuLejHF6nzz-341" edge="1">
          <mxGeometry width="100" height="100" relative="1" as="geometry">
            <mxPoint x="-1210" y="330" as="sourcePoint" />
            <mxPoint x="-1210" y="670" as="targetPoint" />
            <Array as="points">
              <mxPoint x="-1210" y="500" />
            </Array>
          </mxGeometry>
        </mxCell>
        <mxCell id="uvsx1aoXTzuLejHF6nzz-354" value="" style="edgeStyle=elbowEdgeStyle;elbow=horizontal;rounded=0;fontColor=#000000;endArrow=none;endFill=0;strokeWidth=8;strokeColor=#23445D;" parent="1" source="uvsx1aoXTzuLejHF6nzz-332" target="uvsx1aoXTzuLejHF6nzz-340" edge="1">
          <mxGeometry width="100" height="100" relative="1" as="geometry">
            <mxPoint x="-1210" y="330" as="sourcePoint" />
            <mxPoint x="-1210.0000000000002" y="590" as="targetPoint" />
            <Array as="points">
              <mxPoint x="-1210" y="470" />
            </Array>
          </mxGeometry>
        </mxCell>
        <mxCell id="uvsx1aoXTzuLejHF6nzz-355" value="Quản lý chi phí" style="whiteSpace=wrap;rounded=1;fillColor=#12AAB5;strokeColor=none;shadow=1;fontColor=#FFFFFF;" parent="1" vertex="1">
          <mxGeometry x="-940.0000000000002" y="300.0000000000001" width="120" height="60" as="geometry" />
        </mxCell>
        <mxCell id="uvsx1aoXTzuLejHF6nzz-356" value="Quản lý rủi ro" style="whiteSpace=wrap;rounded=1;fillColor=#12AAB5;strokeColor=none;shadow=1;fontColor=#FFFFFF;" parent="1" vertex="1">
          <mxGeometry x="-750.0000000000002" y="300.0000000000001" width="120" height="60" as="geometry" />
        </mxCell>
        <mxCell id="uvsx1aoXTzuLejHF6nzz-357" value="Chuẩn bị kế hoạch tài chính " style="whiteSpace=wrap;rounded=1;fillColor=#999999;strokeColor=none;shadow=1;fontColor=#FFFFFF;fontStyle=0" parent="1" vertex="1">
          <mxGeometry x="-940.0000000000002" y="405.0000000000001" width="120" height="60" as="geometry" />
        </mxCell>
        <mxCell id="uvsx1aoXTzuLejHF6nzz-358" value="Tài liệu giả lập " style="whiteSpace=wrap;rounded=1;fillColor=#999999;strokeColor=none;shadow=1;fontColor=#FFFFFF;fontStyle=0" parent="1" vertex="1">
          <mxGeometry x="-940.0000000000001" y="485.0000000000001" width="120" height="60" as="geometry" />
        </mxCell>
        <mxCell id="uvsx1aoXTzuLejHF6nzz-362" value="Xác định rủi ro " style="whiteSpace=wrap;rounded=1;fillColor=#999999;strokeColor=none;shadow=1;fontColor=#FFFFFF;fontStyle=0" parent="1" vertex="1">
          <mxGeometry x="-740.0000000000007" y="405.0000000000001" width="120" height="60" as="geometry" />
        </mxCell>
        <mxCell id="uvsx1aoXTzuLejHF6nzz-363" value="Phân tích rủi ro " style="whiteSpace=wrap;rounded=1;fillColor=#999999;strokeColor=none;shadow=1;fontColor=#FFFFFF;fontStyle=0" parent="1" vertex="1">
          <mxGeometry x="-740.0000000000005" y="485.0000000000001" width="120" height="60" as="geometry" />
        </mxCell>
        <mxCell id="uvsx1aoXTzuLejHF6nzz-364" value="Tài liệu kế hoạch quản lý rủi ro " style="whiteSpace=wrap;rounded=1;fillColor=#999999;strokeColor=none;shadow=1;fontColor=#FFFFFF;fontStyle=0" parent="1" vertex="1">
          <mxGeometry x="-740.0000000000005" y="565.0000000000001" width="120" height="60" as="geometry" />
        </mxCell>
        <mxCell id="uvsx1aoXTzuLejHF6nzz-367" value="" style="edgeStyle=elbowEdgeStyle;elbow=vertical;rounded=0;fontColor=#000000;endArrow=none;endFill=0;strokeWidth=8;strokeColor=#23445D;exitX=0.5;exitY=1;exitDx=0;exitDy=0;" parent="1" source="4" target="uvsx1aoXTzuLejHF6nzz-355" edge="1">
          <mxGeometry width="100" height="100" relative="1" as="geometry">
            <mxPoint x="-780" y="235" as="sourcePoint" />
            <mxPoint x="-1240" y="315" as="targetPoint" />
          </mxGeometry>
        </mxCell>
        <mxCell id="uvsx1aoXTzuLejHF6nzz-368" value="" style="edgeStyle=elbowEdgeStyle;elbow=vertical;rounded=0;fontColor=#000000;endArrow=none;endFill=0;strokeWidth=8;strokeColor=#23445D;exitX=0.5;exitY=1;exitDx=0;exitDy=0;" parent="1" source="4" target="uvsx1aoXTzuLejHF6nzz-356" edge="1">
          <mxGeometry width="100" height="100" relative="1" as="geometry">
            <mxPoint x="-780" y="235" as="sourcePoint" />
            <mxPoint x="-1040" y="315" as="targetPoint" />
          </mxGeometry>
        </mxCell>
        <mxCell id="uvsx1aoXTzuLejHF6nzz-369" value="" style="edgeStyle=elbowEdgeStyle;elbow=horizontal;rounded=0;fontColor=#000000;endArrow=none;endFill=0;strokeWidth=8;strokeColor=#23445D;" parent="1" source="uvsx1aoXTzuLejHF6nzz-355" target="uvsx1aoXTzuLejHF6nzz-357" edge="1">
          <mxGeometry width="100" height="100" relative="1" as="geometry">
            <mxPoint x="-960" y="335.00000000000045" as="sourcePoint" />
            <mxPoint x="-950.0000000000005" y="435" as="targetPoint" />
            <Array as="points">
              <mxPoint x="-960" y="385" />
            </Array>
          </mxGeometry>
        </mxCell>
        <mxCell id="uvsx1aoXTzuLejHF6nzz-370" value="" style="edgeStyle=elbowEdgeStyle;elbow=horizontal;rounded=0;fontColor=#000000;endArrow=none;endFill=0;strokeWidth=8;strokeColor=#23445D;" parent="1" source="uvsx1aoXTzuLejHF6nzz-355" target="uvsx1aoXTzuLejHF6nzz-358" edge="1">
          <mxGeometry width="100" height="100" relative="1" as="geometry">
            <mxPoint x="-950" y="335" as="sourcePoint" />
            <mxPoint x="-950.0000000000002" y="515" as="targetPoint" />
            <Array as="points">
              <mxPoint x="-960" y="425" />
            </Array>
          </mxGeometry>
        </mxCell>
        <mxCell id="uvsx1aoXTzuLejHF6nzz-374" value="" style="edgeStyle=elbowEdgeStyle;elbow=horizontal;rounded=0;fontColor=#000000;endArrow=none;endFill=0;strokeWidth=8;strokeColor=#23445D;" parent="1" source="uvsx1aoXTzuLejHF6nzz-356" target="uvsx1aoXTzuLejHF6nzz-362" edge="1">
          <mxGeometry width="100" height="100" relative="1" as="geometry">
            <mxPoint x="-770" y="335.00000000000045" as="sourcePoint" />
            <mxPoint x="-760.0000000000005" y="435" as="targetPoint" />
            <Array as="points">
              <mxPoint x="-760" y="385" />
            </Array>
          </mxGeometry>
        </mxCell>
        <mxCell id="uvsx1aoXTzuLejHF6nzz-375" value="" style="edgeStyle=elbowEdgeStyle;elbow=horizontal;rounded=0;fontColor=#000000;endArrow=none;endFill=0;strokeWidth=8;strokeColor=#23445D;" parent="1" source="uvsx1aoXTzuLejHF6nzz-356" target="uvsx1aoXTzuLejHF6nzz-363" edge="1">
          <mxGeometry width="100" height="100" relative="1" as="geometry">
            <mxPoint x="-760" y="335" as="sourcePoint" />
            <mxPoint x="-760.0000000000002" y="515" as="targetPoint" />
            <Array as="points">
              <mxPoint x="-760" y="425" />
            </Array>
          </mxGeometry>
        </mxCell>
        <mxCell id="uvsx1aoXTzuLejHF6nzz-378" value="" style="edgeStyle=elbowEdgeStyle;elbow=horizontal;rounded=0;fontColor=#000000;endArrow=none;endFill=0;strokeWidth=8;strokeColor=#23445D;" parent="1" source="uvsx1aoXTzuLejHF6nzz-356" target="uvsx1aoXTzuLejHF6nzz-364" edge="1">
          <mxGeometry width="100" height="100" relative="1" as="geometry">
            <mxPoint x="-760" y="335" as="sourcePoint" />
            <mxPoint x="-760.0000000000002" y="595" as="targetPoint" />
            <Array as="points">
              <mxPoint x="-760" y="475" />
            </Array>
          </mxGeometry>
        </mxCell>
        <mxCell id="uvsx1aoXTzuLejHF6nzz-379" value="Quản lý truyền thông " style="whiteSpace=wrap;rounded=1;fillColor=#12AAB5;strokeColor=none;shadow=1;fontColor=#FFFFFF;" parent="1" vertex="1">
          <mxGeometry x="-490.0000000000002" y="300.0000000000001" width="120" height="60" as="geometry" />
        </mxCell>
        <mxCell id="uvsx1aoXTzuLejHF6nzz-380" value="Quản lý các bên liên quan, mua sắm" style="whiteSpace=wrap;rounded=1;fillColor=#12AAB5;strokeColor=none;shadow=1;fontColor=#FFFFFF;" parent="1" vertex="1">
          <mxGeometry x="-290.0000000000002" y="300.0000000000001" width="120" height="60" as="geometry" />
        </mxCell>
        <mxCell id="uvsx1aoXTzuLejHF6nzz-381" value="Kế hoạch quản lý truyền thông " style="whiteSpace=wrap;rounded=1;fillColor=#999999;strokeColor=none;shadow=1;fontColor=#FFFFFF;fontStyle=0" parent="1" vertex="1">
          <mxGeometry x="-490.0000000000002" y="405.0000000000001" width="120" height="60" as="geometry" />
        </mxCell>
        <mxCell id="uvsx1aoXTzuLejHF6nzz-382" value="Kế hoạch quản lý  tài liệu " style="whiteSpace=wrap;rounded=1;fillColor=#999999;strokeColor=none;shadow=1;fontColor=#FFFFFF;fontStyle=0" parent="1" vertex="1">
          <mxGeometry x="-490" y="485.0000000000001" width="120" height="60" as="geometry" />
        </mxCell>
        <mxCell id="uvsx1aoXTzuLejHF6nzz-386" value="Xác định các yêu cầu mua sắm" style="whiteSpace=wrap;rounded=1;fillColor=#999999;strokeColor=none;shadow=1;fontColor=#FFFFFF;fontStyle=0" parent="1" vertex="1">
          <mxGeometry x="-290.0000000000007" y="405.0000000000001" width="120" height="60" as="geometry" />
        </mxCell>
        <mxCell id="uvsx1aoXTzuLejHF6nzz-387" value="Xác định các bên liên quan " style="whiteSpace=wrap;rounded=1;fillColor=#999999;strokeColor=none;shadow=1;fontColor=#FFFFFF;fontStyle=0" parent="1" vertex="1">
          <mxGeometry x="-290.00000000000045" y="485.0000000000001" width="120" height="60" as="geometry" />
        </mxCell>
        <mxCell id="uvsx1aoXTzuLejHF6nzz-388" value="Tài liệu quản lý các bên liên quan, mua sắm " style="whiteSpace=wrap;rounded=1;fillColor=#999999;strokeColor=none;shadow=1;fontColor=#FFFFFF;fontStyle=0" parent="1" vertex="1">
          <mxGeometry x="-290.00000000000045" y="565.0000000000001" width="120" height="60" as="geometry" />
        </mxCell>
        <mxCell id="uvsx1aoXTzuLejHF6nzz-391" value="" style="edgeStyle=elbowEdgeStyle;elbow=vertical;rounded=0;fontColor=#000000;endArrow=none;endFill=0;strokeWidth=8;strokeColor=#23445D;exitX=0.5;exitY=1;exitDx=0;exitDy=0;" parent="1" source="4" target="uvsx1aoXTzuLejHF6nzz-379" edge="1">
          <mxGeometry width="100" height="100" relative="1" as="geometry">
            <mxPoint x="-310" y="237.5" as="sourcePoint" />
            <mxPoint x="-770" y="317.5" as="targetPoint" />
          </mxGeometry>
        </mxCell>
        <mxCell id="uvsx1aoXTzuLejHF6nzz-392" value="" style="edgeStyle=elbowEdgeStyle;elbow=vertical;rounded=0;fontColor=#000000;endArrow=none;endFill=0;strokeWidth=8;strokeColor=#23445D;exitX=0.5;exitY=1;exitDx=0;exitDy=0;" parent="1" source="4" target="uvsx1aoXTzuLejHF6nzz-380" edge="1">
          <mxGeometry width="100" height="100" relative="1" as="geometry">
            <mxPoint x="-310" y="237.5" as="sourcePoint" />
            <mxPoint x="-570" y="317.5" as="targetPoint" />
          </mxGeometry>
        </mxCell>
        <mxCell id="uvsx1aoXTzuLejHF6nzz-393" value="" style="edgeStyle=elbowEdgeStyle;elbow=horizontal;rounded=0;fontColor=#000000;endArrow=none;endFill=0;strokeWidth=8;strokeColor=#23445D;" parent="1" source="uvsx1aoXTzuLejHF6nzz-379" target="uvsx1aoXTzuLejHF6nzz-381" edge="1">
          <mxGeometry width="100" height="100" relative="1" as="geometry">
            <mxPoint x="-510" y="335.00000000000045" as="sourcePoint" />
            <mxPoint x="-500.00000000000045" y="435" as="targetPoint" />
            <Array as="points">
              <mxPoint x="-510" y="385" />
            </Array>
          </mxGeometry>
        </mxCell>
        <mxCell id="uvsx1aoXTzuLejHF6nzz-394" value="" style="edgeStyle=elbowEdgeStyle;elbow=horizontal;rounded=0;fontColor=#000000;endArrow=none;endFill=0;strokeWidth=8;strokeColor=#23445D;" parent="1" source="uvsx1aoXTzuLejHF6nzz-379" target="uvsx1aoXTzuLejHF6nzz-382" edge="1">
          <mxGeometry width="100" height="100" relative="1" as="geometry">
            <mxPoint x="-500" y="335" as="sourcePoint" />
            <mxPoint x="-500.0000000000002" y="515" as="targetPoint" />
            <Array as="points">
              <mxPoint x="-510" y="425" />
            </Array>
          </mxGeometry>
        </mxCell>
        <mxCell id="uvsx1aoXTzuLejHF6nzz-398" value="" style="edgeStyle=elbowEdgeStyle;elbow=horizontal;rounded=0;fontColor=#000000;endArrow=none;endFill=0;strokeWidth=8;strokeColor=#23445D;" parent="1" source="uvsx1aoXTzuLejHF6nzz-380" target="uvsx1aoXTzuLejHF6nzz-386" edge="1">
          <mxGeometry width="100" height="100" relative="1" as="geometry">
            <mxPoint x="-320" y="335.00000000000045" as="sourcePoint" />
            <mxPoint x="-310.00000000000045" y="435" as="targetPoint" />
            <Array as="points">
              <mxPoint x="-310" y="385" />
            </Array>
          </mxGeometry>
        </mxCell>
        <mxCell id="uvsx1aoXTzuLejHF6nzz-399" value="" style="edgeStyle=elbowEdgeStyle;elbow=horizontal;rounded=0;fontColor=#000000;endArrow=none;endFill=0;strokeWidth=8;strokeColor=#23445D;" parent="1" source="uvsx1aoXTzuLejHF6nzz-380" target="uvsx1aoXTzuLejHF6nzz-387" edge="1">
          <mxGeometry width="100" height="100" relative="1" as="geometry">
            <mxPoint x="-310" y="335" as="sourcePoint" />
            <mxPoint x="-310.0000000000002" y="515" as="targetPoint" />
            <Array as="points">
              <mxPoint x="-310" y="425" />
            </Array>
          </mxGeometry>
        </mxCell>
        <mxCell id="uvsx1aoXTzuLejHF6nzz-402" value="" style="edgeStyle=elbowEdgeStyle;elbow=horizontal;rounded=0;fontColor=#000000;endArrow=none;endFill=0;strokeWidth=8;strokeColor=#23445D;" parent="1" source="uvsx1aoXTzuLejHF6nzz-380" target="uvsx1aoXTzuLejHF6nzz-388" edge="1">
          <mxGeometry width="100" height="100" relative="1" as="geometry">
            <mxPoint x="-310" y="335" as="sourcePoint" />
            <mxPoint x="-310.0000000000002" y="595" as="targetPoint" />
            <Array as="points">
              <mxPoint x="-310" y="475" />
            </Array>
          </mxGeometry>
        </mxCell>
        <mxCell id="uvsx1aoXTzuLejHF6nzz-403" value="Quản lý chất lượng " style="whiteSpace=wrap;rounded=1;fillColor=#12AAB5;strokeColor=none;shadow=1;fontColor=#FFFFFF;" parent="1" vertex="1">
          <mxGeometry x="-40.00000000000023" y="300.0000000000001" width="120" height="60" as="geometry" />
        </mxCell>
        <mxCell id="uvsx1aoXTzuLejHF6nzz-404" value="Quản lý tích hợp dự án " style="whiteSpace=wrap;rounded=1;fillColor=#12AAB5;strokeColor=none;shadow=1;fontColor=#FFFFFF;" parent="1" vertex="1">
          <mxGeometry x="159.99999999999977" y="300.0000000000001" width="120" height="60" as="geometry" />
        </mxCell>
        <mxCell id="uvsx1aoXTzuLejHF6nzz-405" value="Xác định các tiêu chuẩn chất lượng " style="whiteSpace=wrap;rounded=1;fillColor=#999999;strokeColor=none;shadow=1;fontColor=#FFFFFF;fontStyle=0" parent="1" vertex="1">
          <mxGeometry x="-40.00000000000023" y="410.0000000000001" width="120" height="60" as="geometry" />
        </mxCell>
        <mxCell id="uvsx1aoXTzuLejHF6nzz-406" value="Phân tích yêu cầu chất lượng " style="whiteSpace=wrap;rounded=1;fillColor=#999999;strokeColor=none;shadow=1;fontColor=#FFFFFF;fontStyle=0" parent="1" vertex="1">
          <mxGeometry x="-40.000000000000114" y="490.0000000000001" width="120" height="60" as="geometry" />
        </mxCell>
        <mxCell id="uvsx1aoXTzuLejHF6nzz-407" value="Phương pháp kiểm tra và quy trình kiểm soát chất lượng" style="whiteSpace=wrap;rounded=1;fillColor=#999999;strokeColor=none;shadow=1;fontColor=#FFFFFF;fontStyle=0" parent="1" vertex="1">
          <mxGeometry x="-40.00000000000023" y="570.0000000000001" width="120" height="60" as="geometry" />
        </mxCell>
        <mxCell id="uvsx1aoXTzuLejHF6nzz-410" value="Xác định các yêu cầu tích hợp của dự án " style="whiteSpace=wrap;rounded=1;fillColor=#999999;strokeColor=none;shadow=1;fontColor=#FFFFFF;fontStyle=0" parent="1" vertex="1">
          <mxGeometry x="159.99999999999932" y="410.0000000000001" width="120" height="60" as="geometry" />
        </mxCell>
        <mxCell id="uvsx1aoXTzuLejHF6nzz-411" value="Xác định các phụ thuộc và thành phần của dự án  " style="whiteSpace=wrap;rounded=1;fillColor=#999999;strokeColor=none;shadow=1;fontColor=#FFFFFF;fontStyle=0" parent="1" vertex="1">
          <mxGeometry x="159.99999999999955" y="490.0000000000001" width="120" height="60" as="geometry" />
        </mxCell>
        <mxCell id="uvsx1aoXTzuLejHF6nzz-412" value="Đề xuất phương án tích hợp dự án " style="whiteSpace=wrap;rounded=1;fillColor=#999999;strokeColor=none;shadow=1;fontColor=#FFFFFF;fontStyle=0" parent="1" vertex="1">
          <mxGeometry x="159.99999999999955" y="570.0000000000001" width="120" height="60" as="geometry" />
        </mxCell>
        <mxCell id="uvsx1aoXTzuLejHF6nzz-415" value="" style="edgeStyle=elbowEdgeStyle;elbow=vertical;rounded=0;fontColor=#000000;endArrow=none;endFill=0;strokeWidth=8;strokeColor=#23445D;exitX=0.5;exitY=1;exitDx=0;exitDy=0;" parent="1" source="4" target="uvsx1aoXTzuLejHF6nzz-403" edge="1">
          <mxGeometry width="100" height="100" relative="1" as="geometry">
            <mxPoint x="140" y="242.5" as="sourcePoint" />
            <mxPoint x="-320" y="322.5" as="targetPoint" />
          </mxGeometry>
        </mxCell>
        <mxCell id="uvsx1aoXTzuLejHF6nzz-416" value="" style="edgeStyle=elbowEdgeStyle;elbow=vertical;rounded=0;fontColor=#000000;endArrow=none;endFill=0;strokeWidth=8;strokeColor=#23445D;exitX=0.5;exitY=1;exitDx=0;exitDy=0;" parent="1" source="4" target="uvsx1aoXTzuLejHF6nzz-404" edge="1">
          <mxGeometry width="100" height="100" relative="1" as="geometry">
            <mxPoint x="140" y="242.5" as="sourcePoint" />
            <mxPoint x="-120" y="322.5" as="targetPoint" />
          </mxGeometry>
        </mxCell>
        <mxCell id="uvsx1aoXTzuLejHF6nzz-417" value="" style="edgeStyle=elbowEdgeStyle;elbow=horizontal;rounded=0;fontColor=#000000;endArrow=none;endFill=0;strokeWidth=8;strokeColor=#23445D;" parent="1" source="uvsx1aoXTzuLejHF6nzz-403" target="uvsx1aoXTzuLejHF6nzz-405" edge="1">
          <mxGeometry width="100" height="100" relative="1" as="geometry">
            <mxPoint x="-60" y="340.00000000000045" as="sourcePoint" />
            <mxPoint x="-50.000000000000455" y="440" as="targetPoint" />
            <Array as="points">
              <mxPoint x="-60" y="390" />
            </Array>
          </mxGeometry>
        </mxCell>
        <mxCell id="uvsx1aoXTzuLejHF6nzz-418" value="" style="edgeStyle=elbowEdgeStyle;elbow=horizontal;rounded=0;fontColor=#000000;endArrow=none;endFill=0;strokeWidth=8;strokeColor=#23445D;" parent="1" source="uvsx1aoXTzuLejHF6nzz-403" target="uvsx1aoXTzuLejHF6nzz-406" edge="1">
          <mxGeometry width="100" height="100" relative="1" as="geometry">
            <mxPoint x="-50" y="340" as="sourcePoint" />
            <mxPoint x="-50.00000000000023" y="520" as="targetPoint" />
            <Array as="points">
              <mxPoint x="-60" y="430" />
            </Array>
          </mxGeometry>
        </mxCell>
        <mxCell id="uvsx1aoXTzuLejHF6nzz-421" value="" style="edgeStyle=elbowEdgeStyle;elbow=horizontal;rounded=0;fontColor=#000000;endArrow=none;endFill=0;strokeWidth=8;strokeColor=#23445D;" parent="1" source="uvsx1aoXTzuLejHF6nzz-403" target="uvsx1aoXTzuLejHF6nzz-407" edge="1">
          <mxGeometry width="100" height="100" relative="1" as="geometry">
            <mxPoint x="-50" y="340" as="sourcePoint" />
            <mxPoint x="-50.00000000000023" y="600" as="targetPoint" />
            <Array as="points">
              <mxPoint x="-60" y="480" />
            </Array>
          </mxGeometry>
        </mxCell>
        <mxCell id="uvsx1aoXTzuLejHF6nzz-422" value="" style="edgeStyle=elbowEdgeStyle;elbow=horizontal;rounded=0;fontColor=#000000;endArrow=none;endFill=0;strokeWidth=8;strokeColor=#23445D;" parent="1" source="uvsx1aoXTzuLejHF6nzz-404" target="uvsx1aoXTzuLejHF6nzz-410" edge="1">
          <mxGeometry width="100" height="100" relative="1" as="geometry">
            <mxPoint x="130" y="340.00000000000045" as="sourcePoint" />
            <mxPoint x="139.99999999999955" y="440" as="targetPoint" />
            <Array as="points">
              <mxPoint x="140" y="390" />
            </Array>
          </mxGeometry>
        </mxCell>
        <mxCell id="uvsx1aoXTzuLejHF6nzz-423" value="" style="edgeStyle=elbowEdgeStyle;elbow=horizontal;rounded=0;fontColor=#000000;endArrow=none;endFill=0;strokeWidth=8;strokeColor=#23445D;" parent="1" source="uvsx1aoXTzuLejHF6nzz-404" target="uvsx1aoXTzuLejHF6nzz-411" edge="1">
          <mxGeometry width="100" height="100" relative="1" as="geometry">
            <mxPoint x="140" y="340" as="sourcePoint" />
            <mxPoint x="139.99999999999977" y="520" as="targetPoint" />
            <Array as="points">
              <mxPoint x="140" y="430" />
            </Array>
          </mxGeometry>
        </mxCell>
        <mxCell id="uvsx1aoXTzuLejHF6nzz-426" value="" style="edgeStyle=elbowEdgeStyle;elbow=horizontal;rounded=0;fontColor=#000000;endArrow=none;endFill=0;strokeWidth=8;strokeColor=#23445D;" parent="1" source="uvsx1aoXTzuLejHF6nzz-404" target="uvsx1aoXTzuLejHF6nzz-412" edge="1">
          <mxGeometry width="100" height="100" relative="1" as="geometry">
            <mxPoint x="140" y="340" as="sourcePoint" />
            <mxPoint x="139.99999999999977" y="600" as="targetPoint" />
            <Array as="points">
              <mxPoint x="140" y="480" />
            </Array>
          </mxGeometry>
        </mxCell>
        <mxCell id="uvsx1aoXTzuLejHF6nzz-451" value="Thiết lập môi trường dự án " style="whiteSpace=wrap;rounded=1;fillColor=#12AAB5;strokeColor=none;shadow=1;fontColor=#FFFFFF;" parent="1" vertex="1">
          <mxGeometry x="379.9999999999998" y="300.0000000000001" width="120" height="60" as="geometry" />
        </mxCell>
        <mxCell id="uvsx1aoXTzuLejHF6nzz-452" value="Thiết kế Front-End " style="whiteSpace=wrap;rounded=1;fillColor=#12AAB5;strokeColor=none;shadow=1;fontColor=#FFFFFF;" parent="1" vertex="1">
          <mxGeometry x="579.9999999999998" y="300.0000000000001" width="120" height="60" as="geometry" />
        </mxCell>
        <mxCell id="uvsx1aoXTzuLejHF6nzz-453" value="Chuẩn bị cơ sở vật chất " style="whiteSpace=wrap;rounded=1;fillColor=#999999;strokeColor=none;shadow=1;fontColor=#FFFFFF;fontStyle=0" parent="1" vertex="1">
          <mxGeometry x="379.9999999999998" y="410.0000000000001" width="120" height="60" as="geometry" />
        </mxCell>
        <mxCell id="uvsx1aoXTzuLejHF6nzz-454" value="Thiết lập các tiêu chuẩn và quy trình dự án " style="whiteSpace=wrap;rounded=1;fillColor=#999999;strokeColor=none;shadow=1;fontColor=#FFFFFF;fontStyle=0" parent="1" vertex="1">
          <mxGeometry x="379.9999999999999" y="490.0000000000001" width="120" height="60" as="geometry" />
        </mxCell>
        <mxCell id="uvsx1aoXTzuLejHF6nzz-455" value="Thiết lập công cụ quản lý dự án " style="whiteSpace=wrap;rounded=1;fillColor=#999999;strokeColor=none;shadow=1;fontColor=#FFFFFF;fontStyle=0" parent="1" vertex="1">
          <mxGeometry x="379.9999999999998" y="570.0000000000001" width="120" height="60" as="geometry" />
        </mxCell>
        <mxCell id="uvsx1aoXTzuLejHF6nzz-456" value="Thiết lập tài liệu dự án " style="whiteSpace=wrap;rounded=1;fillColor=#999999;strokeColor=none;shadow=1;fontColor=#FFFFFF;fontStyle=0" parent="1" vertex="1">
          <mxGeometry x="380" y="650.0000000000001" width="120" height="60" as="geometry" />
        </mxCell>
        <mxCell id="uvsx1aoXTzuLejHF6nzz-458" value="Màn hình đăng nhập " style="whiteSpace=wrap;rounded=1;fillColor=#999999;strokeColor=none;shadow=1;fontColor=#FFFFFF;fontStyle=0" parent="1" vertex="1">
          <mxGeometry x="579.9999999999993" y="410.0000000000001" width="120" height="60" as="geometry" />
        </mxCell>
        <mxCell id="uvsx1aoXTzuLejHF6nzz-459" value="Màn hình bảng tin nội bộ " style="whiteSpace=wrap;rounded=1;fillColor=#999999;strokeColor=none;shadow=1;fontColor=#FFFFFF;fontStyle=0" parent="1" vertex="1">
          <mxGeometry x="579.9999999999995" y="490.0000000000001" width="120" height="60" as="geometry" />
        </mxCell>
        <mxCell id="uvsx1aoXTzuLejHF6nzz-460" value="Màn hình thông báo nội bộ " style="whiteSpace=wrap;rounded=1;fillColor=#999999;strokeColor=none;shadow=1;fontColor=#FFFFFF;fontStyle=0" parent="1" vertex="1">
          <mxGeometry x="579.9999999999995" y="570.0000000000001" width="120" height="60" as="geometry" />
        </mxCell>
        <mxCell id="uvsx1aoXTzuLejHF6nzz-461" value="Màn hình thông báo nội bộ " style="whiteSpace=wrap;rounded=1;fillColor=#999999;strokeColor=none;shadow=1;fontColor=#FFFFFF;fontStyle=0" parent="1" vertex="1">
          <mxGeometry x="579.9999999999997" y="650.0000000000001" width="120" height="60" as="geometry" />
        </mxCell>
        <mxCell id="uvsx1aoXTzuLejHF6nzz-462" value="Màn hình lịch phòng họp và đăng ký tài nguyên " style="whiteSpace=wrap;rounded=1;fillColor=#999999;strokeColor=none;shadow=1;fontColor=#FFFFFF;fontStyle=0" parent="1" vertex="1">
          <mxGeometry x="579.9999999999998" y="730.0000000000001" width="120" height="60" as="geometry" />
        </mxCell>
        <mxCell id="uvsx1aoXTzuLejHF6nzz-463" value="" style="edgeStyle=elbowEdgeStyle;elbow=vertical;rounded=0;fontColor=#000000;endArrow=none;endFill=0;strokeWidth=8;strokeColor=#23445D;exitX=0.5;exitY=1;exitDx=0;exitDy=0;" parent="1" source="6" target="uvsx1aoXTzuLejHF6nzz-451" edge="1">
          <mxGeometry width="100" height="100" relative="1" as="geometry">
            <mxPoint x="600" y="230" as="sourcePoint" />
            <mxPoint x="100" y="322.5" as="targetPoint" />
          </mxGeometry>
        </mxCell>
        <mxCell id="uvsx1aoXTzuLejHF6nzz-464" value="" style="edgeStyle=elbowEdgeStyle;elbow=vertical;rounded=0;fontColor=#000000;endArrow=none;endFill=0;strokeWidth=8;strokeColor=#23445D;exitX=0.5;exitY=1;exitDx=0;exitDy=0;" parent="1" source="6" target="uvsx1aoXTzuLejHF6nzz-452" edge="1">
          <mxGeometry width="100" height="100" relative="1" as="geometry">
            <mxPoint x="770" y="220" as="sourcePoint" />
            <mxPoint x="300" y="322.5" as="targetPoint" />
          </mxGeometry>
        </mxCell>
        <mxCell id="uvsx1aoXTzuLejHF6nzz-465" value="" style="edgeStyle=elbowEdgeStyle;elbow=horizontal;rounded=0;fontColor=#000000;endArrow=none;endFill=0;strokeWidth=8;strokeColor=#23445D;" parent="1" source="uvsx1aoXTzuLejHF6nzz-451" target="uvsx1aoXTzuLejHF6nzz-453" edge="1">
          <mxGeometry width="100" height="100" relative="1" as="geometry">
            <mxPoint x="360" y="340.00000000000045" as="sourcePoint" />
            <mxPoint x="369.99999999999955" y="440" as="targetPoint" />
            <Array as="points">
              <mxPoint x="360" y="390" />
            </Array>
          </mxGeometry>
        </mxCell>
        <mxCell id="uvsx1aoXTzuLejHF6nzz-466" value="" style="edgeStyle=elbowEdgeStyle;elbow=horizontal;rounded=0;fontColor=#000000;endArrow=none;endFill=0;strokeWidth=8;strokeColor=#23445D;" parent="1" source="uvsx1aoXTzuLejHF6nzz-451" target="uvsx1aoXTzuLejHF6nzz-454" edge="1">
          <mxGeometry width="100" height="100" relative="1" as="geometry">
            <mxPoint x="370" y="340" as="sourcePoint" />
            <mxPoint x="369.9999999999998" y="520" as="targetPoint" />
            <Array as="points">
              <mxPoint x="360" y="430" />
            </Array>
          </mxGeometry>
        </mxCell>
        <mxCell id="uvsx1aoXTzuLejHF6nzz-468" value="" style="edgeStyle=elbowEdgeStyle;elbow=horizontal;rounded=0;fontColor=#000000;endArrow=none;endFill=0;strokeWidth=8;strokeColor=#23445D;" parent="1" source="uvsx1aoXTzuLejHF6nzz-451" target="uvsx1aoXTzuLejHF6nzz-456" edge="1">
          <mxGeometry width="100" height="100" relative="1" as="geometry">
            <mxPoint x="370" y="340" as="sourcePoint" />
            <mxPoint x="370" y="680" as="targetPoint" />
            <Array as="points">
              <mxPoint x="360" y="510" />
            </Array>
          </mxGeometry>
        </mxCell>
        <mxCell id="uvsx1aoXTzuLejHF6nzz-469" value="" style="edgeStyle=elbowEdgeStyle;elbow=horizontal;rounded=0;fontColor=#000000;endArrow=none;endFill=0;strokeWidth=8;strokeColor=#23445D;" parent="1" source="uvsx1aoXTzuLejHF6nzz-451" target="uvsx1aoXTzuLejHF6nzz-455" edge="1">
          <mxGeometry width="100" height="100" relative="1" as="geometry">
            <mxPoint x="370" y="340" as="sourcePoint" />
            <mxPoint x="369.9999999999998" y="600" as="targetPoint" />
            <Array as="points">
              <mxPoint x="360" y="480" />
            </Array>
          </mxGeometry>
        </mxCell>
        <mxCell id="uvsx1aoXTzuLejHF6nzz-470" value="" style="edgeStyle=elbowEdgeStyle;elbow=horizontal;rounded=0;fontColor=#000000;endArrow=none;endFill=0;strokeWidth=8;strokeColor=#23445D;" parent="1" source="uvsx1aoXTzuLejHF6nzz-452" target="uvsx1aoXTzuLejHF6nzz-458" edge="1">
          <mxGeometry width="100" height="100" relative="1" as="geometry">
            <mxPoint x="550" y="340.00000000000045" as="sourcePoint" />
            <mxPoint x="559.9999999999995" y="440" as="targetPoint" />
            <Array as="points">
              <mxPoint x="560" y="390" />
            </Array>
          </mxGeometry>
        </mxCell>
        <mxCell id="uvsx1aoXTzuLejHF6nzz-471" value="" style="edgeStyle=elbowEdgeStyle;elbow=horizontal;rounded=0;fontColor=#000000;endArrow=none;endFill=0;strokeWidth=8;strokeColor=#23445D;" parent="1" source="uvsx1aoXTzuLejHF6nzz-452" target="uvsx1aoXTzuLejHF6nzz-459" edge="1">
          <mxGeometry width="100" height="100" relative="1" as="geometry">
            <mxPoint x="560" y="340" as="sourcePoint" />
            <mxPoint x="559.9999999999998" y="520" as="targetPoint" />
            <Array as="points">
              <mxPoint x="560" y="430" />
            </Array>
          </mxGeometry>
        </mxCell>
        <mxCell id="uvsx1aoXTzuLejHF6nzz-472" value="" style="edgeStyle=elbowEdgeStyle;elbow=horizontal;rounded=0;fontColor=#000000;endArrow=none;endFill=0;strokeWidth=8;strokeColor=#23445D;" parent="1" source="uvsx1aoXTzuLejHF6nzz-452" target="uvsx1aoXTzuLejHF6nzz-462" edge="1">
          <mxGeometry width="100" height="100" relative="1" as="geometry">
            <mxPoint x="560" y="340" as="sourcePoint" />
            <mxPoint x="560" y="760" as="targetPoint" />
            <Array as="points">
              <mxPoint x="560" y="550" />
            </Array>
          </mxGeometry>
        </mxCell>
        <mxCell id="uvsx1aoXTzuLejHF6nzz-473" value="" style="edgeStyle=elbowEdgeStyle;elbow=horizontal;rounded=0;fontColor=#000000;endArrow=none;endFill=0;strokeWidth=8;strokeColor=#23445D;" parent="1" source="uvsx1aoXTzuLejHF6nzz-452" target="uvsx1aoXTzuLejHF6nzz-461" edge="1">
          <mxGeometry width="100" height="100" relative="1" as="geometry">
            <mxPoint x="560" y="340" as="sourcePoint" />
            <mxPoint x="560" y="680" as="targetPoint" />
            <Array as="points">
              <mxPoint x="560" y="510" />
            </Array>
          </mxGeometry>
        </mxCell>
        <mxCell id="uvsx1aoXTzuLejHF6nzz-474" value="" style="edgeStyle=elbowEdgeStyle;elbow=horizontal;rounded=0;fontColor=#000000;endArrow=none;endFill=0;strokeWidth=8;strokeColor=#23445D;" parent="1" source="uvsx1aoXTzuLejHF6nzz-452" target="uvsx1aoXTzuLejHF6nzz-460" edge="1">
          <mxGeometry width="100" height="100" relative="1" as="geometry">
            <mxPoint x="560" y="340" as="sourcePoint" />
            <mxPoint x="559.9999999999998" y="600" as="targetPoint" />
            <Array as="points">
              <mxPoint x="560" y="480" />
            </Array>
          </mxGeometry>
        </mxCell>
        <mxCell id="uvsx1aoXTzuLejHF6nzz-475" value="Màn hình đăng ký tài nguyên" style="whiteSpace=wrap;rounded=1;fillColor=#999999;strokeColor=none;shadow=1;fontColor=#FFFFFF;fontStyle=0" parent="1" vertex="1">
          <mxGeometry x="579.9999999999993" y="810.0000000000001" width="120" height="60" as="geometry" />
        </mxCell>
        <mxCell id="uvsx1aoXTzuLejHF6nzz-476" value="Màn hình quản lý thư viện tài liệu " style="whiteSpace=wrap;rounded=1;fillColor=#999999;strokeColor=none;shadow=1;fontColor=#FFFFFF;fontStyle=0" parent="1" vertex="1">
          <mxGeometry x="579.9999999999995" y="890.0000000000001" width="120" height="60" as="geometry" />
        </mxCell>
        <mxCell id="uvsx1aoXTzuLejHF6nzz-477" value="Màn hình cơ cấu tổ chức " style="whiteSpace=wrap;rounded=1;fillColor=#999999;strokeColor=none;shadow=1;fontColor=#FFFFFF;fontStyle=0" parent="1" vertex="1">
          <mxGeometry x="579.9999999999995" y="970.0000000000001" width="120" height="60" as="geometry" />
        </mxCell>
        <mxCell id="uvsx1aoXTzuLejHF6nzz-478" value="Màn hình nhập yêu cầu " style="whiteSpace=wrap;rounded=1;fillColor=#999999;strokeColor=none;shadow=1;fontColor=#FFFFFF;fontStyle=0" parent="1" vertex="1">
          <mxGeometry x="579.9999999999997" y="1050" width="120" height="60" as="geometry" />
        </mxCell>
        <mxCell id="uvsx1aoXTzuLejHF6nzz-479" value="Màn hình phê duyệt yêu cầu " style="whiteSpace=wrap;rounded=1;fillColor=#999999;strokeColor=none;shadow=1;fontColor=#FFFFFF;fontStyle=0" parent="1" vertex="1">
          <mxGeometry x="579.9999999999998" y="1130" width="120" height="60" as="geometry" />
        </mxCell>
        <mxCell id="uvsx1aoXTzuLejHF6nzz-480" value="" style="edgeStyle=elbowEdgeStyle;elbow=horizontal;rounded=0;fontColor=#000000;endArrow=none;endFill=0;strokeWidth=8;strokeColor=#23445D;entryX=0;entryY=0.5;entryDx=0;entryDy=0;" parent="1" target="uvsx1aoXTzuLejHF6nzz-475" edge="1">
          <mxGeometry width="100" height="100" relative="1" as="geometry">
            <mxPoint x="580" y="330" as="sourcePoint" />
            <mxPoint x="580" y="440" as="targetPoint" />
            <Array as="points">
              <mxPoint x="560" y="390" />
            </Array>
          </mxGeometry>
        </mxCell>
        <mxCell id="uvsx1aoXTzuLejHF6nzz-481" value="" style="edgeStyle=elbowEdgeStyle;elbow=horizontal;rounded=0;fontColor=#000000;endArrow=none;endFill=0;strokeWidth=8;strokeColor=#23445D;entryX=0;entryY=0.5;entryDx=0;entryDy=0;" parent="1" target="uvsx1aoXTzuLejHF6nzz-476" edge="1">
          <mxGeometry width="100" height="100" relative="1" as="geometry">
            <mxPoint x="580" y="330" as="sourcePoint" />
            <mxPoint x="580" y="520" as="targetPoint" />
            <Array as="points">
              <mxPoint x="560" y="430" />
            </Array>
          </mxGeometry>
        </mxCell>
        <mxCell id="uvsx1aoXTzuLejHF6nzz-482" value="" style="edgeStyle=elbowEdgeStyle;elbow=horizontal;rounded=0;fontColor=#000000;endArrow=none;endFill=0;strokeWidth=8;strokeColor=#23445D;entryX=0;entryY=0.5;entryDx=0;entryDy=0;" parent="1" target="uvsx1aoXTzuLejHF6nzz-479" edge="1">
          <mxGeometry width="100" height="100" relative="1" as="geometry">
            <mxPoint x="580" y="330" as="sourcePoint" />
            <mxPoint x="580" y="760" as="targetPoint" />
            <Array as="points">
              <mxPoint x="560" y="550" />
            </Array>
          </mxGeometry>
        </mxCell>
        <mxCell id="uvsx1aoXTzuLejHF6nzz-483" value="" style="edgeStyle=elbowEdgeStyle;elbow=horizontal;rounded=0;fontColor=#000000;endArrow=none;endFill=0;strokeWidth=8;strokeColor=#23445D;entryX=0;entryY=0.5;entryDx=0;entryDy=0;" parent="1" target="uvsx1aoXTzuLejHF6nzz-478" edge="1">
          <mxGeometry width="100" height="100" relative="1" as="geometry">
            <mxPoint x="580" y="330" as="sourcePoint" />
            <mxPoint x="580" y="680" as="targetPoint" />
            <Array as="points">
              <mxPoint x="560" y="510" />
            </Array>
          </mxGeometry>
        </mxCell>
        <mxCell id="uvsx1aoXTzuLejHF6nzz-484" value="" style="edgeStyle=elbowEdgeStyle;elbow=horizontal;rounded=0;fontColor=#000000;endArrow=none;endFill=0;strokeWidth=8;strokeColor=#23445D;entryX=0;entryY=0.5;entryDx=0;entryDy=0;" parent="1" target="uvsx1aoXTzuLejHF6nzz-477" edge="1">
          <mxGeometry width="100" height="100" relative="1" as="geometry">
            <mxPoint x="580" y="330" as="sourcePoint" />
            <mxPoint x="580" y="600" as="targetPoint" />
            <Array as="points">
              <mxPoint x="560" y="480" />
            </Array>
          </mxGeometry>
        </mxCell>
        <mxCell id="uvsx1aoXTzuLejHF6nzz-486" value="" style="edgeStyle=elbowEdgeStyle;elbow=horizontal;rounded=0;fontColor=#000000;endArrow=none;endFill=0;strokeWidth=8;strokeColor=#23445D;entryX=0;entryY=0.5;entryDx=0;entryDy=0;" parent="1" target="138" edge="1">
          <mxGeometry width="100" height="100" relative="1" as="geometry">
            <mxPoint x="830" y="540" as="sourcePoint" />
            <mxPoint x="840" y="590" as="targetPoint" />
            <Array as="points">
              <mxPoint x="830" y="550" />
            </Array>
          </mxGeometry>
        </mxCell>
        <mxCell id="uvsx1aoXTzuLejHF6nzz-487" value="" style="edgeStyle=elbowEdgeStyle;elbow=horizontal;rounded=0;fontColor=#000000;endArrow=none;endFill=0;strokeWidth=8;strokeColor=#23445D;entryX=0;entryY=0.5;entryDx=0;entryDy=0;" parent="1" target="139" edge="1">
          <mxGeometry width="100" height="100" relative="1" as="geometry">
            <mxPoint x="830" y="540" as="sourcePoint" />
            <mxPoint x="840" y="670" as="targetPoint" />
            <Array as="points">
              <mxPoint x="830" y="550" />
            </Array>
          </mxGeometry>
        </mxCell>
        <mxCell id="uvsx1aoXTzuLejHF6nzz-488" value="Giao diện thư viện tài liệu" style="whiteSpace=wrap;rounded=1;fillColor=#999999;strokeColor=none;shadow=1;fontColor=#FFFFFF;fontStyle=0" parent="1" vertex="1">
          <mxGeometry x="1009.9999999999995" y="810.0000000000001" width="120" height="60" as="geometry" />
        </mxCell>
        <mxCell id="uvsx1aoXTzuLejHF6nzz-489" value="Giao diện cơ cấu tổ chức" style="whiteSpace=wrap;rounded=1;fillColor=#999999;strokeColor=none;shadow=1;fontColor=#FFFFFF;fontStyle=0" parent="1" vertex="1">
          <mxGeometry x="1009.9999999999997" y="890.0000000000001" width="120" height="60" as="geometry" />
        </mxCell>
        <mxCell id="uvsx1aoXTzuLejHF6nzz-490" value="Giao diện xử lý yêu cầu liên đơn vị" style="whiteSpace=wrap;rounded=1;fillColor=#999999;strokeColor=none;shadow=1;fontColor=#FFFFFF;fontStyle=0" parent="1" vertex="1">
          <mxGeometry x="1009.9999999999998" y="970.0000000000001" width="120" height="60" as="geometry" />
        </mxCell>
        <mxCell id="uvsx1aoXTzuLejHF6nzz-491" value="" style="edgeStyle=elbowEdgeStyle;elbow=horizontal;rounded=0;fontColor=#000000;endArrow=none;endFill=0;strokeWidth=8;strokeColor=#23445D;entryX=0;entryY=0.5;entryDx=0;entryDy=0;" parent="1" target="uvsx1aoXTzuLejHF6nzz-490" edge="1">
          <mxGeometry width="100" height="100" relative="1" as="geometry">
            <mxPoint x="1010" y="330" as="sourcePoint" />
            <mxPoint x="1010" y="750" as="targetPoint" />
            <Array as="points">
              <mxPoint x="990" y="540" />
            </Array>
          </mxGeometry>
        </mxCell>
        <mxCell id="uvsx1aoXTzuLejHF6nzz-492" value="" style="edgeStyle=elbowEdgeStyle;elbow=horizontal;rounded=0;fontColor=#000000;endArrow=none;endFill=0;strokeWidth=8;strokeColor=#23445D;entryX=0;entryY=0.5;entryDx=0;entryDy=0;" parent="1" target="uvsx1aoXTzuLejHF6nzz-489" edge="1">
          <mxGeometry width="100" height="100" relative="1" as="geometry">
            <mxPoint x="1010" y="330" as="sourcePoint" />
            <mxPoint x="1010" y="670" as="targetPoint" />
            <Array as="points">
              <mxPoint x="990" y="500" />
            </Array>
          </mxGeometry>
        </mxCell>
        <mxCell id="uvsx1aoXTzuLejHF6nzz-493" value="" style="edgeStyle=elbowEdgeStyle;elbow=horizontal;rounded=0;fontColor=#000000;endArrow=none;endFill=0;strokeWidth=8;strokeColor=#23445D;entryX=0;entryY=0.5;entryDx=0;entryDy=0;" parent="1" target="uvsx1aoXTzuLejHF6nzz-488" edge="1">
          <mxGeometry width="100" height="100" relative="1" as="geometry">
            <mxPoint x="1010" y="330" as="sourcePoint" />
            <mxPoint x="1010" y="590" as="targetPoint" />
            <Array as="points">
              <mxPoint x="990" y="470" />
            </Array>
          </mxGeometry>
        </mxCell>
        <mxCell id="uvsx1aoXTzuLejHF6nzz-494" value="Chức năng quản lí lịch công việc chung và cá nhân" style="whiteSpace=wrap;rounded=1;fillColor=#999999;strokeColor=none;shadow=1;fontColor=#FFFFFF;fontStyle=0" parent="1" vertex="1">
          <mxGeometry x="1179.9999999999995" y="810.0000000000001" width="120" height="60" as="geometry" />
        </mxCell>
        <mxCell id="uvsx1aoXTzuLejHF6nzz-495" value="Chức năng quản lý cơ cấu tổ chức" style="whiteSpace=wrap;rounded=1;fillColor=#999999;strokeColor=none;shadow=1;fontColor=#FFFFFF;fontStyle=0" parent="1" vertex="1">
          <mxGeometry x="1179.9999999999995" y="890.0000000000001" width="120" height="60" as="geometry" />
        </mxCell>
        <mxCell id="uvsx1aoXTzuLejHF6nzz-496" value="Chức năng Xử lý yêu cầu liên đơn vị" style="whiteSpace=wrap;rounded=1;fillColor=#999999;strokeColor=none;shadow=1;fontColor=#FFFFFF;fontStyle=0" parent="1" vertex="1">
          <mxGeometry x="1179.9999999999998" y="970.0000000000001" width="120" height="60" as="geometry" />
        </mxCell>
        <mxCell id="uvsx1aoXTzuLejHF6nzz-497" value="" style="edgeStyle=elbowEdgeStyle;elbow=horizontal;rounded=0;fontColor=#000000;endArrow=none;endFill=0;strokeWidth=8;strokeColor=#23445D;entryX=0;entryY=0.5;entryDx=0;entryDy=0;" parent="1" target="uvsx1aoXTzuLejHF6nzz-496" edge="1">
          <mxGeometry width="100" height="100" relative="1" as="geometry">
            <mxPoint x="1180" y="330" as="sourcePoint" />
            <mxPoint x="1180" y="750" as="targetPoint" />
            <Array as="points">
              <mxPoint x="1160" y="540" />
            </Array>
          </mxGeometry>
        </mxCell>
        <mxCell id="uvsx1aoXTzuLejHF6nzz-498" value="" style="edgeStyle=elbowEdgeStyle;elbow=horizontal;rounded=0;fontColor=#000000;endArrow=none;endFill=0;strokeWidth=8;strokeColor=#23445D;entryX=0;entryY=0.5;entryDx=0;entryDy=0;" parent="1" target="uvsx1aoXTzuLejHF6nzz-495" edge="1">
          <mxGeometry width="100" height="100" relative="1" as="geometry">
            <mxPoint x="1180" y="330" as="sourcePoint" />
            <mxPoint x="1180" y="670" as="targetPoint" />
            <Array as="points">
              <mxPoint x="1160" y="500" />
            </Array>
          </mxGeometry>
        </mxCell>
        <mxCell id="uvsx1aoXTzuLejHF6nzz-499" value="" style="edgeStyle=elbowEdgeStyle;elbow=horizontal;rounded=0;fontColor=#000000;endArrow=none;endFill=0;strokeWidth=8;strokeColor=#23445D;entryX=0;entryY=0.5;entryDx=0;entryDy=0;" parent="1" target="uvsx1aoXTzuLejHF6nzz-494" edge="1">
          <mxGeometry width="100" height="100" relative="1" as="geometry">
            <mxPoint x="1180" y="330" as="sourcePoint" />
            <mxPoint x="1180" y="590" as="targetPoint" />
            <Array as="points">
              <mxPoint x="1160" y="470" />
            </Array>
          </mxGeometry>
        </mxCell>
        <mxCell id="uvsx1aoXTzuLejHF6nzz-500" value="Chức năng nhập yêu cầu" style="whiteSpace=wrap;rounded=1;fillColor=#999999;strokeColor=none;shadow=1;fontColor=#FFFFFF;fontStyle=0" parent="1" vertex="1">
          <mxGeometry x="1219.9999999999998" y="1050" width="120" height="60" as="geometry" />
        </mxCell>
        <mxCell id="uvsx1aoXTzuLejHF6nzz-501" value="Chức năng xem, phê duyệt hoặc từ chối yêu cầu" style="whiteSpace=wrap;rounded=1;fillColor=#999999;strokeColor=none;shadow=1;fontColor=#FFFFFF;fontStyle=0" parent="1" vertex="1">
          <mxGeometry x="1220" y="1130" width="120" height="60" as="geometry" />
        </mxCell>
        <mxCell id="uvsx1aoXTzuLejHF6nzz-502" value="Chức năng tự động chuyển yêu cầu đến đơn vị liên quan" style="whiteSpace=wrap;rounded=1;fillColor=#999999;strokeColor=none;shadow=1;fontColor=#FFFFFF;fontStyle=0" parent="1" vertex="1">
          <mxGeometry x="1220" y="1210" width="120" height="60" as="geometry" />
        </mxCell>
        <mxCell id="uvsx1aoXTzuLejHF6nzz-503" value="" style="edgeStyle=elbowEdgeStyle;elbow=horizontal;rounded=0;fontColor=#000000;endArrow=none;endFill=0;strokeWidth=8;strokeColor=#23445D;" parent="1" source="uvsx1aoXTzuLejHF6nzz-496" target="uvsx1aoXTzuLejHF6nzz-500" edge="1">
          <mxGeometry width="100" height="100" relative="1" as="geometry">
            <mxPoint x="1210" y="1030" as="sourcePoint" />
            <mxPoint x="1179.9999999999998" y="1080" as="targetPoint" />
            <Array as="points">
              <mxPoint x="1210" y="1040" />
            </Array>
          </mxGeometry>
        </mxCell>
        <mxCell id="uvsx1aoXTzuLejHF6nzz-504" value="" style="edgeStyle=elbowEdgeStyle;elbow=horizontal;rounded=0;fontColor=#000000;endArrow=none;endFill=0;strokeWidth=8;strokeColor=#23445D;entryX=0;entryY=0.5;entryDx=0;entryDy=0;" parent="1" source="uvsx1aoXTzuLejHF6nzz-496" target="uvsx1aoXTzuLejHF6nzz-501" edge="1">
          <mxGeometry width="100" height="100" relative="1" as="geometry">
            <mxPoint x="1210" y="1030" as="sourcePoint" />
            <mxPoint x="1220" y="1080" as="targetPoint" />
            <Array as="points">
              <mxPoint x="1210" y="1040" />
            </Array>
          </mxGeometry>
        </mxCell>
        <mxCell id="uvsx1aoXTzuLejHF6nzz-505" value="" style="edgeStyle=elbowEdgeStyle;elbow=horizontal;rounded=0;fontColor=#000000;endArrow=none;endFill=0;strokeWidth=8;strokeColor=#23445D;entryX=0;entryY=0.5;entryDx=0;entryDy=0;" parent="1" source="uvsx1aoXTzuLejHF6nzz-496" target="uvsx1aoXTzuLejHF6nzz-502" edge="1">
          <mxGeometry width="100" height="100" relative="1" as="geometry">
            <mxPoint x="1210" y="1030" as="sourcePoint" />
            <mxPoint x="1220" y="1160" as="targetPoint" />
            <Array as="points">
              <mxPoint x="1210" y="1040" />
            </Array>
          </mxGeometry>
        </mxCell>
        <mxCell id="uvsx1aoXTzuLejHF6nzz-506" value="Chức năng xử lý yêu cầu và cập nhật tiến trình" style="whiteSpace=wrap;rounded=1;fillColor=#999999;strokeColor=none;shadow=1;fontColor=#FFFFFF;fontStyle=0" parent="1" vertex="1">
          <mxGeometry x="1220" y="1290" width="120" height="60" as="geometry" />
        </mxCell>
        <mxCell id="uvsx1aoXTzuLejHF6nzz-507" value="" style="edgeStyle=elbowEdgeStyle;elbow=horizontal;rounded=0;fontColor=#000000;endArrow=none;endFill=0;strokeWidth=8;strokeColor=#23445D;entryX=0;entryY=0.5;entryDx=0;entryDy=0;" parent="1" target="uvsx1aoXTzuLejHF6nzz-506" edge="1">
          <mxGeometry width="100" height="100" relative="1" as="geometry">
            <mxPoint x="1210" y="1110" as="sourcePoint" />
            <mxPoint x="1220" y="1240" as="targetPoint" />
            <Array as="points">
              <mxPoint x="1210" y="1120" />
            </Array>
          </mxGeometry>
        </mxCell>
        <mxCell id="uvsx1aoXTzuLejHF6nzz-509" value="Chức năng thông báo kết quả xử lý yêu cầu đến nhân viên" style="whiteSpace=wrap;rounded=1;fillColor=#999999;strokeColor=none;shadow=1;fontColor=#FFFFFF;fontStyle=0" parent="1" vertex="1">
          <mxGeometry x="1220" y="1370" width="120" height="60" as="geometry" />
        </mxCell>
        <mxCell id="uvsx1aoXTzuLejHF6nzz-510" value="" style="edgeStyle=elbowEdgeStyle;elbow=horizontal;rounded=0;fontColor=#000000;endArrow=none;endFill=0;strokeWidth=8;strokeColor=#23445D;entryX=0;entryY=0.5;entryDx=0;entryDy=0;" parent="1" target="uvsx1aoXTzuLejHF6nzz-509" edge="1">
          <mxGeometry width="100" height="100" relative="1" as="geometry">
            <mxPoint x="1210" y="1190" as="sourcePoint" />
            <mxPoint x="1220" y="1320" as="targetPoint" />
            <Array as="points">
              <mxPoint x="1210" y="1200" />
            </Array>
          </mxGeometry>
        </mxCell>
        <mxCell id="uvsx1aoXTzuLejHF6nzz-511" value="Cài đặt môi trường" style="whiteSpace=wrap;rounded=1;fillColor=#999999;strokeColor=none;shadow=1;fontColor=#FFFFFF;fontStyle=0" parent="1" vertex="1">
          <mxGeometry x="1399.9999999999998" y="480" width="120" height="60" as="geometry" />
        </mxCell>
        <mxCell id="uvsx1aoXTzuLejHF6nzz-512" value="Cấu hình máy chủ" style="whiteSpace=wrap;rounded=1;fillColor=#999999;strokeColor=none;shadow=1;fontColor=#FFFFFF;fontStyle=0" parent="1" vertex="1">
          <mxGeometry x="1400" y="560" width="120" height="60" as="geometry" />
        </mxCell>
        <mxCell id="uvsx1aoXTzuLejHF6nzz-513" value="" style="edgeStyle=elbowEdgeStyle;elbow=horizontal;rounded=0;fontColor=#000000;endArrow=none;endFill=0;strokeWidth=8;strokeColor=#23445D;" parent="1" target="uvsx1aoXTzuLejHF6nzz-511" edge="1">
          <mxGeometry width="100" height="100" relative="1" as="geometry">
            <mxPoint x="1390" y="460" as="sourcePoint" />
            <mxPoint x="1359.9999999999998" y="510" as="targetPoint" />
            <Array as="points">
              <mxPoint x="1390" y="470" />
            </Array>
          </mxGeometry>
        </mxCell>
        <mxCell id="uvsx1aoXTzuLejHF6nzz-514" value="" style="edgeStyle=elbowEdgeStyle;elbow=horizontal;rounded=0;fontColor=#000000;endArrow=none;endFill=0;strokeWidth=8;strokeColor=#23445D;entryX=0;entryY=0.5;entryDx=0;entryDy=0;" parent="1" target="uvsx1aoXTzuLejHF6nzz-512" edge="1">
          <mxGeometry width="100" height="100" relative="1" as="geometry">
            <mxPoint x="1390" y="460" as="sourcePoint" />
            <mxPoint x="1400" y="510" as="targetPoint" />
            <Array as="points">
              <mxPoint x="1390" y="470" />
            </Array>
          </mxGeometry>
        </mxCell>
        <mxCell id="uvsx1aoXTzuLejHF6nzz-515" value="Cài đặt môi trường" style="whiteSpace=wrap;rounded=1;fillColor=#999999;strokeColor=none;shadow=1;fontColor=#FFFFFF;fontStyle=0" parent="1" vertex="1">
          <mxGeometry x="1399.9999999999998" y="720" width="120" height="60" as="geometry" />
        </mxCell>
        <mxCell id="uvsx1aoXTzuLejHF6nzz-516" value="Cấu hình máy chủ" style="whiteSpace=wrap;rounded=1;fillColor=#999999;strokeColor=none;shadow=1;fontColor=#FFFFFF;fontStyle=0" parent="1" vertex="1">
          <mxGeometry x="1400" y="800" width="120" height="60" as="geometry" />
        </mxCell>
        <mxCell id="uvsx1aoXTzuLejHF6nzz-517" value="" style="edgeStyle=elbowEdgeStyle;elbow=horizontal;rounded=0;fontColor=#000000;endArrow=none;endFill=0;strokeWidth=8;strokeColor=#23445D;" parent="1" target="uvsx1aoXTzuLejHF6nzz-515" edge="1">
          <mxGeometry width="100" height="100" relative="1" as="geometry">
            <mxPoint x="1390" y="700" as="sourcePoint" />
            <mxPoint x="1359.9999999999998" y="750" as="targetPoint" />
            <Array as="points">
              <mxPoint x="1390" y="710" />
            </Array>
          </mxGeometry>
        </mxCell>
        <mxCell id="uvsx1aoXTzuLejHF6nzz-518" value="" style="edgeStyle=elbowEdgeStyle;elbow=horizontal;rounded=0;fontColor=#000000;endArrow=none;endFill=0;strokeWidth=8;strokeColor=#23445D;entryX=0;entryY=0.5;entryDx=0;entryDy=0;" parent="1" target="uvsx1aoXTzuLejHF6nzz-516" edge="1">
          <mxGeometry width="100" height="100" relative="1" as="geometry">
            <mxPoint x="1390" y="700" as="sourcePoint" />
            <mxPoint x="1400" y="750" as="targetPoint" />
            <Array as="points">
              <mxPoint x="1390" y="710" />
            </Array>
          </mxGeometry>
        </mxCell>
        <mxCell id="uvsx1aoXTzuLejHF6nzz-519" value="Thiết kế endpoint" style="whiteSpace=wrap;rounded=1;fillColor=#999999;strokeColor=none;shadow=1;fontColor=#FFFFFF;fontStyle=0" parent="1" vertex="1">
          <mxGeometry x="1404.9999999999998" y="960" width="120" height="60" as="geometry" />
        </mxCell>
        <mxCell id="uvsx1aoXTzuLejHF6nzz-520" value="Xác định phương thức HTTP" style="whiteSpace=wrap;rounded=1;fillColor=#999999;strokeColor=none;shadow=1;fontColor=#FFFFFF;fontStyle=0" parent="1" vertex="1">
          <mxGeometry x="1405" y="1040" width="120" height="60" as="geometry" />
        </mxCell>
        <mxCell id="uvsx1aoXTzuLejHF6nzz-521" value="" style="edgeStyle=elbowEdgeStyle;elbow=horizontal;rounded=0;fontColor=#000000;endArrow=none;endFill=0;strokeWidth=8;strokeColor=#23445D;" parent="1" target="uvsx1aoXTzuLejHF6nzz-519" edge="1">
          <mxGeometry width="100" height="100" relative="1" as="geometry">
            <mxPoint x="1395" y="940" as="sourcePoint" />
            <mxPoint x="1364.9999999999998" y="990" as="targetPoint" />
            <Array as="points">
              <mxPoint x="1395" y="950" />
            </Array>
          </mxGeometry>
        </mxCell>
        <mxCell id="uvsx1aoXTzuLejHF6nzz-522" value="" style="edgeStyle=elbowEdgeStyle;elbow=horizontal;rounded=0;fontColor=#000000;endArrow=none;endFill=0;strokeWidth=8;strokeColor=#23445D;entryX=0;entryY=0.5;entryDx=0;entryDy=0;" parent="1" target="uvsx1aoXTzuLejHF6nzz-520" edge="1">
          <mxGeometry width="100" height="100" relative="1" as="geometry">
            <mxPoint x="1395" y="940" as="sourcePoint" />
            <mxPoint x="1405" y="990" as="targetPoint" />
            <Array as="points">
              <mxPoint x="1395" y="950" />
            </Array>
          </mxGeometry>
        </mxCell>
        <mxCell id="uvsx1aoXTzuLejHF6nzz-523" value="Xử lý resquest/response" style="whiteSpace=wrap;rounded=1;fillColor=#999999;strokeColor=none;shadow=1;fontColor=#FFFFFF;fontStyle=0" parent="1" vertex="1">
          <mxGeometry x="1404.9999999999998" y="1120" width="120" height="60" as="geometry" />
        </mxCell>
        <mxCell id="uvsx1aoXTzuLejHF6nzz-524" value="Triển khai xác thực và phân quyền" style="whiteSpace=wrap;rounded=1;fillColor=#999999;strokeColor=none;shadow=1;fontColor=#FFFFFF;fontStyle=0" parent="1" vertex="1">
          <mxGeometry x="1405" y="1200" width="120" height="60" as="geometry" />
        </mxCell>
        <mxCell id="uvsx1aoXTzuLejHF6nzz-525" value="" style="edgeStyle=elbowEdgeStyle;elbow=horizontal;rounded=0;fontColor=#000000;endArrow=none;endFill=0;strokeWidth=8;strokeColor=#23445D;" parent="1" source="164" target="uvsx1aoXTzuLejHF6nzz-523" edge="1">
          <mxGeometry width="100" height="100" relative="1" as="geometry">
            <mxPoint x="1395" y="1100" as="sourcePoint" />
            <mxPoint x="1364.9999999999998" y="1150" as="targetPoint" />
            <Array as="points">
              <mxPoint x="1395" y="1110" />
            </Array>
          </mxGeometry>
        </mxCell>
        <mxCell id="uvsx1aoXTzuLejHF6nzz-526" value="" style="edgeStyle=elbowEdgeStyle;elbow=horizontal;rounded=0;fontColor=#000000;endArrow=none;endFill=0;strokeWidth=8;strokeColor=#23445D;entryX=0;entryY=0.5;entryDx=0;entryDy=0;" parent="1" source="164" target="uvsx1aoXTzuLejHF6nzz-524" edge="1">
          <mxGeometry width="100" height="100" relative="1" as="geometry">
            <mxPoint x="1395" y="1100" as="sourcePoint" />
            <mxPoint x="1405" y="1150" as="targetPoint" />
            <Array as="points">
              <mxPoint x="1395" y="1110" />
            </Array>
          </mxGeometry>
        </mxCell>
        <mxCell id="uvsx1aoXTzuLejHF6nzz-528" value="Thiết kế lớp truy xuất dữ liệu" style="whiteSpace=wrap;rounded=1;fillColor=#999999;strokeColor=none;shadow=1;fontColor=#FFFFFF;fontStyle=0" parent="1" vertex="1">
          <mxGeometry x="1404.9999999999998" y="1360" width="120" height="60" as="geometry" />
        </mxCell>
        <mxCell id="uvsx1aoXTzuLejHF6nzz-529" value="Viết mã truy xuất" style="whiteSpace=wrap;rounded=1;fillColor=#999999;strokeColor=none;shadow=1;fontColor=#FFFFFF;fontStyle=0" parent="1" vertex="1">
          <mxGeometry x="1405" y="1440" width="120" height="60" as="geometry" />
        </mxCell>
        <mxCell id="uvsx1aoXTzuLejHF6nzz-530" value="" style="edgeStyle=elbowEdgeStyle;elbow=horizontal;rounded=0;fontColor=#000000;endArrow=none;endFill=0;strokeWidth=8;strokeColor=#23445D;" parent="1" target="uvsx1aoXTzuLejHF6nzz-528" edge="1">
          <mxGeometry width="100" height="100" relative="1" as="geometry">
            <mxPoint x="1395" y="1340" as="sourcePoint" />
            <mxPoint x="1364.9999999999998" y="1390" as="targetPoint" />
            <Array as="points">
              <mxPoint x="1395" y="1350" />
            </Array>
          </mxGeometry>
        </mxCell>
        <mxCell id="uvsx1aoXTzuLejHF6nzz-531" value="" style="edgeStyle=elbowEdgeStyle;elbow=horizontal;rounded=0;fontColor=#000000;endArrow=none;endFill=0;strokeWidth=8;strokeColor=#23445D;entryX=0;entryY=0.5;entryDx=0;entryDy=0;" parent="1" target="uvsx1aoXTzuLejHF6nzz-529" edge="1">
          <mxGeometry width="100" height="100" relative="1" as="geometry">
            <mxPoint x="1395" y="1340" as="sourcePoint" />
            <mxPoint x="1405" y="1390" as="targetPoint" />
            <Array as="points">
              <mxPoint x="1395" y="1350" />
            </Array>
          </mxGeometry>
        </mxCell>
        <mxCell id="uvsx1aoXTzuLejHF6nzz-532" value="Xử lý CRUD" style="whiteSpace=wrap;rounded=1;fillColor=#999999;strokeColor=none;shadow=1;fontColor=#FFFFFF;fontStyle=0" parent="1" vertex="1">
          <mxGeometry x="1405" y="1520" width="120" height="60" as="geometry" />
        </mxCell>
        <mxCell id="uvsx1aoXTzuLejHF6nzz-533" value="" style="edgeStyle=elbowEdgeStyle;elbow=horizontal;rounded=0;fontColor=#000000;endArrow=none;endFill=0;strokeWidth=8;strokeColor=#23445D;entryX=0;entryY=0.5;entryDx=0;entryDy=0;" parent="1" target="uvsx1aoXTzuLejHF6nzz-532" edge="1">
          <mxGeometry width="100" height="100" relative="1" as="geometry">
            <mxPoint x="1395" y="1420" as="sourcePoint" />
            <mxPoint x="1405" y="1470" as="targetPoint" />
            <Array as="points">
              <mxPoint x="1395" y="1430" />
            </Array>
          </mxGeometry>
        </mxCell>
        <mxCell id="uvsx1aoXTzuLejHF6nzz-534" value="" style="edgeStyle=elbowEdgeStyle;elbow=vertical;rounded=0;fontColor=#000000;endArrow=none;endFill=0;strokeWidth=8;strokeColor=#23445D;" parent="1" source="8" target="178" edge="1">
          <mxGeometry width="100" height="100" relative="1" as="geometry">
            <mxPoint x="1680" y="229.99999999999977" as="sourcePoint" />
            <mxPoint x="1710" y="370" as="targetPoint" />
            <Array as="points">
              <mxPoint x="1680" y="420" />
            </Array>
          </mxGeometry>
        </mxCell>
        <mxCell id="uvsx1aoXTzuLejHF6nzz-535" value="" style="edgeStyle=elbowEdgeStyle;elbow=vertical;rounded=0;fontColor=#000000;endArrow=none;endFill=0;strokeWidth=8;strokeColor=#23445D;" parent="1" source="8" target="199" edge="1">
          <mxGeometry width="100" height="100" relative="1" as="geometry">
            <mxPoint x="1680" y="319.9999999999998" as="sourcePoint" />
            <mxPoint x="1710" y="550" as="targetPoint" />
            <Array as="points">
              <mxPoint x="1680" y="500" />
            </Array>
          </mxGeometry>
        </mxCell>
        <mxCell id="uvsx1aoXTzuLejHF6nzz-536" value="" style="edgeStyle=elbowEdgeStyle;elbow=vertical;rounded=0;fontColor=#000000;endArrow=none;endFill=0;strokeWidth=8;strokeColor=#23445D;" parent="1" source="8" target="200" edge="1">
          <mxGeometry width="100" height="100" relative="1" as="geometry">
            <mxPoint x="1680" y="409.9999999999998" as="sourcePoint" />
            <mxPoint x="1710" y="640" as="targetPoint" />
            <Array as="points">
              <mxPoint x="1680" y="590" />
            </Array>
          </mxGeometry>
        </mxCell>
        <mxCell id="uvsx1aoXTzuLejHF6nzz-537" value="" style="edgeStyle=elbowEdgeStyle;elbow=vertical;rounded=0;fontColor=#000000;endArrow=none;endFill=0;strokeWidth=8;strokeColor=#23445D;" parent="1" source="8" target="uvsx1aoXTzuLejHF6nzz-236" edge="1">
          <mxGeometry width="100" height="100" relative="1" as="geometry">
            <mxPoint x="1680" y="499.9999999999998" as="sourcePoint" />
            <mxPoint x="1710" y="730" as="targetPoint" />
            <Array as="points">
              <mxPoint x="1680" y="680" />
            </Array>
          </mxGeometry>
        </mxCell>
        <mxCell id="uvsx1aoXTzuLejHF6nzz-538" value="" style="edgeStyle=elbowEdgeStyle;elbow=vertical;rounded=0;fontColor=#000000;endArrow=none;endFill=0;strokeWidth=8;strokeColor=#23445D;" parent="1" source="8" target="uvsx1aoXTzuLejHF6nzz-237" edge="1">
          <mxGeometry width="100" height="100" relative="1" as="geometry">
            <mxPoint x="1680" y="595.9999999999998" as="sourcePoint" />
            <mxPoint x="1710" y="826" as="targetPoint" />
            <Array as="points">
              <mxPoint x="1680" y="790" />
            </Array>
          </mxGeometry>
        </mxCell>
        <mxCell id="uvsx1aoXTzuLejHF6nzz-540" value="" style="edgeStyle=elbowEdgeStyle;elbow=vertical;rounded=0;fontColor=#000000;endArrow=none;endFill=0;strokeWidth=8;strokeColor=#23445D;" parent="1" source="8" target="uvsx1aoXTzuLejHF6nzz-258" edge="1">
          <mxGeometry width="100" height="100" relative="1" as="geometry">
            <mxPoint x="1680" y="699.9999999999998" as="sourcePoint" />
            <mxPoint x="1710" y="930" as="targetPoint" />
            <Array as="points">
              <mxPoint x="1680" y="880" />
            </Array>
          </mxGeometry>
        </mxCell>
        <mxCell id="uvsx1aoXTzuLejHF6nzz-541" value="Kiểm tra lỗi đã sửa" style="whiteSpace=wrap;rounded=1;fillColor=#12AAB5;strokeColor=none;shadow=1;fontColor=#FFFFFF;" parent="1" vertex="1">
          <mxGeometry x="1710" y="1049.9999999999998" width="120" height="60" as="geometry" />
        </mxCell>
        <mxCell id="uvsx1aoXTzuLejHF6nzz-543" value="" style="edgeStyle=elbowEdgeStyle;elbow=vertical;rounded=0;fontColor=#000000;endArrow=none;endFill=0;strokeWidth=8;strokeColor=#23445D;" parent="1" source="8" target="uvsx1aoXTzuLejHF6nzz-259" edge="1">
          <mxGeometry width="100" height="100" relative="1" as="geometry">
            <mxPoint x="1680" y="330" as="sourcePoint" />
            <mxPoint x="1710" y="980" as="targetPoint" />
            <Array as="points">
              <mxPoint x="1680" y="980" />
            </Array>
          </mxGeometry>
        </mxCell>
        <mxCell id="uvsx1aoXTzuLejHF6nzz-544" value="" style="edgeStyle=elbowEdgeStyle;elbow=vertical;rounded=0;fontColor=#000000;endArrow=none;endFill=0;strokeWidth=8;strokeColor=#23445D;" parent="1" source="8" target="uvsx1aoXTzuLejHF6nzz-541" edge="1">
          <mxGeometry width="100" height="100" relative="1" as="geometry">
            <mxPoint x="1680" y="425" as="sourcePoint" />
            <mxPoint x="1710" y="1075" as="targetPoint" />
            <Array as="points">
              <mxPoint x="1680" y="1075" />
            </Array>
          </mxGeometry>
        </mxCell>
        <mxCell id="uvsx1aoXTzuLejHF6nzz-545" value="Đào tạo, hướng dẫn sử dụng " style="whiteSpace=wrap;rounded=1;fillColor=#12AAB5;strokeColor=none;shadow=1;fontColor=#FFFFFF;" parent="1" vertex="1">
          <mxGeometry x="2010" y="300.0000000000002" width="120" height="60" as="geometry" />
        </mxCell>
        <mxCell id="uvsx1aoXTzuLejHF6nzz-546" value="Tài liệu về phần mềm" style="whiteSpace=wrap;rounded=1;fillColor=#12AAB5;strokeColor=none;shadow=1;fontColor=#FFFFFF;" parent="1" vertex="1">
          <mxGeometry x="2210" y="300.0000000000002" width="120" height="60" as="geometry" />
        </mxCell>
        <mxCell id="uvsx1aoXTzuLejHF6nzz-547" value="Xây dựng kế hoạch đào tạo người dùng cuối" style="whiteSpace=wrap;rounded=1;fillColor=#999999;strokeColor=none;shadow=1;fontColor=#FFFFFF;fontStyle=0" parent="1" vertex="1">
          <mxGeometry x="2010" y="400.0000000000002" width="120" height="60" as="geometry" />
        </mxCell>
        <mxCell id="uvsx1aoXTzuLejHF6nzz-548" value="Xây dựng kế hoạch đào tạo nhân viên hỗ trợ" style="whiteSpace=wrap;rounded=1;fillColor=#999999;strokeColor=none;shadow=1;fontColor=#FFFFFF;fontStyle=0" parent="1" vertex="1">
          <mxGeometry x="2010" y="480.0000000000002" width="120" height="60" as="geometry" />
        </mxCell>
        <mxCell id="uvsx1aoXTzuLejHF6nzz-549" value="Xác định phương pháp phân phối đào tạo" style="whiteSpace=wrap;rounded=1;fillColor=#999999;strokeColor=none;shadow=1;fontColor=#FFFFFF;fontStyle=0" parent="1" vertex="1">
          <mxGeometry x="2010" y="560.0000000000002" width="120" height="60" as="geometry" />
        </mxCell>
        <mxCell id="uvsx1aoXTzuLejHF6nzz-550" value="Xây dựng tài liệu đào tạo" style="whiteSpace=wrap;rounded=1;fillColor=#999999;strokeColor=none;shadow=1;fontColor=#FFFFFF;fontStyle=0" parent="1" vertex="1">
          <mxGeometry x="2010" y="640.0000000000002" width="120" height="60" as="geometry" />
        </mxCell>
        <mxCell id="uvsx1aoXTzuLejHF6nzz-551" value="Xây dựng cơ chế phân phối đào tạo" style="whiteSpace=wrap;rounded=1;fillColor=#999999;strokeColor=none;shadow=1;fontColor=#FFFFFF;fontStyle=0" parent="1" vertex="1">
          <mxGeometry x="2010" y="880.0000000000002" width="120" height="60" as="geometry" />
        </mxCell>
        <mxCell id="uvsx1aoXTzuLejHF6nzz-552" value="Xây dựng tài liệu phần mềm" style="whiteSpace=wrap;rounded=1;fillColor=#999999;strokeColor=none;shadow=1;fontColor=#FFFFFF;fontStyle=0" parent="1" vertex="1">
          <mxGeometry x="2209.999999999999" y="400.0000000000002" width="120" height="60" as="geometry" />
        </mxCell>
        <mxCell id="uvsx1aoXTzuLejHF6nzz-553" value="Kết hợp phản hồi từ người dùng" style="whiteSpace=wrap;rounded=1;fillColor=#999999;strokeColor=none;shadow=1;fontColor=#FFFFFF;fontStyle=0" parent="1" vertex="1">
          <mxGeometry x="2209.9999999999995" y="640.0000000000002" width="120" height="60" as="geometry" />
        </mxCell>
        <mxCell id="uvsx1aoXTzuLejHF6nzz-554" value="Triển khai" style="whiteSpace=wrap;rounded=1;fillColor=#999999;strokeColor=none;shadow=1;fontColor=#FFFFFF;fontStyle=0" parent="1" vertex="1">
          <mxGeometry x="2204.9999999999995" y="970.0000000000002" width="120" height="60" as="geometry" />
        </mxCell>
        <mxCell id="uvsx1aoXTzuLejHF6nzz-556" value="" style="edgeStyle=elbowEdgeStyle;elbow=horizontal;rounded=0;fontColor=#000000;endArrow=none;endFill=0;strokeWidth=8;strokeColor=#23445D;" parent="1" source="uvsx1aoXTzuLejHF6nzz-545" target="uvsx1aoXTzuLejHF6nzz-547" edge="1">
          <mxGeometry width="100" height="100" relative="1" as="geometry">
            <mxPoint x="1990" y="330.00000000000057" as="sourcePoint" />
            <mxPoint x="1999.9999999999995" y="430.0000000000001" as="targetPoint" />
            <Array as="points">
              <mxPoint x="1990" y="380.0000000000001" />
            </Array>
          </mxGeometry>
        </mxCell>
        <mxCell id="uvsx1aoXTzuLejHF6nzz-557" value="" style="edgeStyle=elbowEdgeStyle;elbow=horizontal;rounded=0;fontColor=#000000;endArrow=none;endFill=0;strokeWidth=8;strokeColor=#23445D;" parent="1" source="uvsx1aoXTzuLejHF6nzz-545" target="uvsx1aoXTzuLejHF6nzz-548" edge="1">
          <mxGeometry width="100" height="100" relative="1" as="geometry">
            <mxPoint x="2000" y="330.0000000000001" as="sourcePoint" />
            <mxPoint x="2000" y="510.0000000000001" as="targetPoint" />
            <Array as="points">
              <mxPoint x="1990" y="420.0000000000001" />
            </Array>
          </mxGeometry>
        </mxCell>
        <mxCell id="uvsx1aoXTzuLejHF6nzz-558" value="" style="edgeStyle=elbowEdgeStyle;elbow=horizontal;rounded=0;fontColor=#000000;endArrow=none;endFill=0;strokeWidth=8;strokeColor=#23445D;" parent="1" source="uvsx1aoXTzuLejHF6nzz-545" target="uvsx1aoXTzuLejHF6nzz-551" edge="1">
          <mxGeometry width="100" height="100" relative="1" as="geometry">
            <mxPoint x="2000" y="330.0000000000001" as="sourcePoint" />
            <mxPoint x="2000" y="750.0000000000001" as="targetPoint" />
            <Array as="points">
              <mxPoint x="1990" y="550.0000000000001" />
            </Array>
          </mxGeometry>
        </mxCell>
        <mxCell id="uvsx1aoXTzuLejHF6nzz-559" value="" style="edgeStyle=elbowEdgeStyle;elbow=horizontal;rounded=0;fontColor=#000000;endArrow=none;endFill=0;strokeWidth=8;strokeColor=#23445D;" parent="1" source="uvsx1aoXTzuLejHF6nzz-545" target="uvsx1aoXTzuLejHF6nzz-550" edge="1">
          <mxGeometry width="100" height="100" relative="1" as="geometry">
            <mxPoint x="2000" y="330.0000000000001" as="sourcePoint" />
            <mxPoint x="2000" y="670.0000000000001" as="targetPoint" />
            <Array as="points">
              <mxPoint x="1990" y="500.0000000000001" />
            </Array>
          </mxGeometry>
        </mxCell>
        <mxCell id="uvsx1aoXTzuLejHF6nzz-560" value="" style="edgeStyle=elbowEdgeStyle;elbow=horizontal;rounded=0;fontColor=#000000;endArrow=none;endFill=0;strokeWidth=8;strokeColor=#23445D;" parent="1" source="uvsx1aoXTzuLejHF6nzz-545" target="uvsx1aoXTzuLejHF6nzz-549" edge="1">
          <mxGeometry width="100" height="100" relative="1" as="geometry">
            <mxPoint x="2000" y="330.0000000000001" as="sourcePoint" />
            <mxPoint x="2000" y="590.0000000000001" as="targetPoint" />
            <Array as="points">
              <mxPoint x="1990" y="470.0000000000001" />
            </Array>
          </mxGeometry>
        </mxCell>
        <mxCell id="uvsx1aoXTzuLejHF6nzz-561" value="" style="edgeStyle=elbowEdgeStyle;elbow=horizontal;rounded=0;fontColor=#000000;endArrow=none;endFill=0;strokeWidth=8;strokeColor=#23445D;" parent="1" source="uvsx1aoXTzuLejHF6nzz-546" target="uvsx1aoXTzuLejHF6nzz-552" edge="1">
          <mxGeometry width="100" height="100" relative="1" as="geometry">
            <mxPoint x="2180" y="330.00000000000057" as="sourcePoint" />
            <mxPoint x="2189.9999999999995" y="430.0000000000001" as="targetPoint" />
            <Array as="points">
              <mxPoint x="2190" y="380.0000000000001" />
            </Array>
          </mxGeometry>
        </mxCell>
        <mxCell id="uvsx1aoXTzuLejHF6nzz-562" value="" style="edgeStyle=elbowEdgeStyle;elbow=horizontal;rounded=0;fontColor=#000000;endArrow=none;endFill=0;strokeWidth=8;strokeColor=#23445D;" parent="1" source="uvsx1aoXTzuLejHF6nzz-546" target="uvsx1aoXTzuLejHF6nzz-553" edge="1">
          <mxGeometry width="100" height="100" relative="1" as="geometry">
            <mxPoint x="2190" y="330.0000000000001" as="sourcePoint" />
            <mxPoint x="2190" y="510.0000000000001" as="targetPoint" />
            <Array as="points">
              <mxPoint x="2190" y="420.0000000000001" />
            </Array>
          </mxGeometry>
        </mxCell>
        <mxCell id="uvsx1aoXTzuLejHF6nzz-564" value="" style="edgeStyle=elbowEdgeStyle;elbow=horizontal;rounded=0;fontColor=#000000;endArrow=none;endFill=0;strokeWidth=8;strokeColor=#23445D;" parent="1" source="uvsx1aoXTzuLejHF6nzz-546" target="uvsx1aoXTzuLejHF6nzz-554" edge="1">
          <mxGeometry width="100" height="100" relative="1" as="geometry">
            <mxPoint x="2190" y="330.0000000000001" as="sourcePoint" />
            <mxPoint x="2190" y="590.0000000000001" as="targetPoint" />
            <Array as="points">
              <mxPoint x="2190" y="470.0000000000001" />
            </Array>
          </mxGeometry>
        </mxCell>
        <mxCell id="uvsx1aoXTzuLejHF6nzz-565" value="" style="edgeStyle=elbowEdgeStyle;elbow=vertical;rounded=0;fontColor=#000000;endArrow=none;endFill=0;strokeWidth=8;strokeColor=#23445D;" parent="1" source="5" target="uvsx1aoXTzuLejHF6nzz-545" edge="1">
          <mxGeometry width="100" height="100" relative="1" as="geometry">
            <mxPoint x="2170" y="230" as="sourcePoint" />
            <mxPoint x="2070" y="190" as="targetPoint" />
          </mxGeometry>
        </mxCell>
        <mxCell id="uvsx1aoXTzuLejHF6nzz-566" value="" style="edgeStyle=elbowEdgeStyle;elbow=vertical;rounded=0;fontColor=#000000;endArrow=none;endFill=0;strokeWidth=8;strokeColor=#23445D;" parent="1" source="5" target="uvsx1aoXTzuLejHF6nzz-546" edge="1">
          <mxGeometry width="100" height="100" relative="1" as="geometry">
            <mxPoint x="2170" y="230" as="sourcePoint" />
            <mxPoint x="2360" y="190" as="targetPoint" />
          </mxGeometry>
        </mxCell>
        <mxCell id="uvsx1aoXTzuLejHF6nzz-573" value="Soạn thảo nội dung tài liệu" style="whiteSpace=wrap;rounded=1;fillColor=#999999;strokeColor=none;shadow=1;fontColor=#FFFFFF;fontStyle=0" parent="1" vertex="1">
          <mxGeometry x="2030" y="720" width="120" height="60" as="geometry" />
        </mxCell>
        <mxCell id="uvsx1aoXTzuLejHF6nzz-574" value="Biên tập hiệu chỉnh tài liệu" style="whiteSpace=wrap;rounded=1;fillColor=#999999;strokeColor=none;shadow=1;fontColor=#FFFFFF;fontStyle=0" parent="1" vertex="1">
          <mxGeometry x="2030" y="800" width="120" height="60" as="geometry" />
        </mxCell>
        <mxCell id="uvsx1aoXTzuLejHF6nzz-576" value="" style="edgeStyle=elbowEdgeStyle;elbow=horizontal;rounded=0;fontColor=#000000;endArrow=none;endFill=0;strokeWidth=8;strokeColor=#23445D;" parent="1" target="uvsx1aoXTzuLejHF6nzz-573" edge="1">
          <mxGeometry width="100" height="100" relative="1" as="geometry">
            <mxPoint x="2020" y="700" as="sourcePoint" />
            <mxPoint x="1990" y="750" as="targetPoint" />
            <Array as="points">
              <mxPoint x="2020" y="710" />
            </Array>
          </mxGeometry>
        </mxCell>
        <mxCell id="uvsx1aoXTzuLejHF6nzz-577" value="" style="edgeStyle=elbowEdgeStyle;elbow=horizontal;rounded=0;fontColor=#000000;endArrow=none;endFill=0;strokeWidth=8;strokeColor=#23445D;entryX=0;entryY=0.5;entryDx=0;entryDy=0;" parent="1" target="uvsx1aoXTzuLejHF6nzz-574" edge="1">
          <mxGeometry width="100" height="100" relative="1" as="geometry">
            <mxPoint x="2020" y="700" as="sourcePoint" />
            <mxPoint x="2030" y="750" as="targetPoint" />
            <Array as="points">
              <mxPoint x="2020" y="710" />
            </Array>
          </mxGeometry>
        </mxCell>
        <mxCell id="uvsx1aoXTzuLejHF6nzz-583" value="Soạn thảo nội dung tài liệu phần mềm" style="whiteSpace=wrap;rounded=1;fillColor=#999999;strokeColor=none;shadow=1;fontColor=#FFFFFF;fontStyle=0" parent="1" vertex="1">
          <mxGeometry x="2230" y="480" width="120" height="60" as="geometry" />
        </mxCell>
        <mxCell id="uvsx1aoXTzuLejHF6nzz-584" value="Biên tập và hiệu chỉnh tài liệu phần mềm" style="whiteSpace=wrap;rounded=1;fillColor=#999999;strokeColor=none;shadow=1;fontColor=#FFFFFF;fontStyle=0" parent="1" vertex="1">
          <mxGeometry x="2230" y="560" width="120" height="60" as="geometry" />
        </mxCell>
        <mxCell id="uvsx1aoXTzuLejHF6nzz-585" value="" style="edgeStyle=elbowEdgeStyle;elbow=horizontal;rounded=0;fontColor=#000000;endArrow=none;endFill=0;strokeWidth=8;strokeColor=#23445D;" parent="1" target="uvsx1aoXTzuLejHF6nzz-583" edge="1">
          <mxGeometry width="100" height="100" relative="1" as="geometry">
            <mxPoint x="2220" y="460" as="sourcePoint" />
            <mxPoint x="2190" y="510" as="targetPoint" />
            <Array as="points">
              <mxPoint x="2220" y="470" />
            </Array>
          </mxGeometry>
        </mxCell>
        <mxCell id="uvsx1aoXTzuLejHF6nzz-586" value="" style="edgeStyle=elbowEdgeStyle;elbow=horizontal;rounded=0;fontColor=#000000;endArrow=none;endFill=0;strokeWidth=8;strokeColor=#23445D;entryX=0;entryY=0.5;entryDx=0;entryDy=0;" parent="1" target="uvsx1aoXTzuLejHF6nzz-584" edge="1">
          <mxGeometry width="100" height="100" relative="1" as="geometry">
            <mxPoint x="2220" y="460" as="sourcePoint" />
            <mxPoint x="2230" y="510" as="targetPoint" />
            <Array as="points">
              <mxPoint x="2220" y="470" />
            </Array>
          </mxGeometry>
        </mxCell>
        <mxCell id="uvsx1aoXTzuLejHF6nzz-587" value="Thu thập phản hồi" style="whiteSpace=wrap;rounded=1;fillColor=#999999;strokeColor=none;shadow=1;fontColor=#FFFFFF;fontStyle=0" parent="1" vertex="1">
          <mxGeometry x="2230" y="720" width="120" height="60" as="geometry" />
        </mxCell>
        <mxCell id="uvsx1aoXTzuLejHF6nzz-588" value="Phân tích và tổng hợp phản hồi" style="whiteSpace=wrap;rounded=1;fillColor=#999999;strokeColor=none;shadow=1;fontColor=#FFFFFF;fontStyle=0" parent="1" vertex="1">
          <mxGeometry x="2230" y="800" width="120" height="60" as="geometry" />
        </mxCell>
        <mxCell id="uvsx1aoXTzuLejHF6nzz-589" value="" style="edgeStyle=elbowEdgeStyle;elbow=horizontal;rounded=0;fontColor=#000000;endArrow=none;endFill=0;strokeWidth=8;strokeColor=#23445D;" parent="1" target="uvsx1aoXTzuLejHF6nzz-587" edge="1">
          <mxGeometry width="100" height="100" relative="1" as="geometry">
            <mxPoint x="2220" y="700" as="sourcePoint" />
            <mxPoint x="2190" y="750" as="targetPoint" />
            <Array as="points">
              <mxPoint x="2220" y="710" />
            </Array>
          </mxGeometry>
        </mxCell>
        <mxCell id="uvsx1aoXTzuLejHF6nzz-590" value="" style="edgeStyle=elbowEdgeStyle;elbow=horizontal;rounded=0;fontColor=#000000;endArrow=none;endFill=0;strokeWidth=8;strokeColor=#23445D;entryX=0;entryY=0.5;entryDx=0;entryDy=0;" parent="1" target="uvsx1aoXTzuLejHF6nzz-588" edge="1">
          <mxGeometry width="100" height="100" relative="1" as="geometry">
            <mxPoint x="2220" y="700" as="sourcePoint" />
            <mxPoint x="2230" y="750" as="targetPoint" />
            <Array as="points">
              <mxPoint x="2220" y="710" />
            </Array>
          </mxGeometry>
        </mxCell>
        <mxCell id="uvsx1aoXTzuLejHF6nzz-591" value="Cài đặt/triển khai phần mềm" style="whiteSpace=wrap;rounded=1;fillColor=#999999;strokeColor=none;shadow=1;fontColor=#FFFFFF;fontStyle=0" parent="1" vertex="1">
          <mxGeometry x="2230" y="1050" width="120" height="60" as="geometry" />
        </mxCell>
        <mxCell id="uvsx1aoXTzuLejHF6nzz-592" value="Thu thập phản hồi của người dùng" style="whiteSpace=wrap;rounded=1;fillColor=#999999;strokeColor=none;shadow=1;fontColor=#FFFFFF;fontStyle=0" parent="1" vertex="1">
          <mxGeometry x="2230" y="1130" width="120" height="60" as="geometry" />
        </mxCell>
        <mxCell id="uvsx1aoXTzuLejHF6nzz-593" value="" style="edgeStyle=elbowEdgeStyle;elbow=horizontal;rounded=0;fontColor=#000000;endArrow=none;endFill=0;strokeWidth=8;strokeColor=#23445D;" parent="1" target="uvsx1aoXTzuLejHF6nzz-591" edge="1">
          <mxGeometry width="100" height="100" relative="1" as="geometry">
            <mxPoint x="2220" y="1030" as="sourcePoint" />
            <mxPoint x="2190" y="1080" as="targetPoint" />
            <Array as="points">
              <mxPoint x="2220" y="1040" />
            </Array>
          </mxGeometry>
        </mxCell>
        <mxCell id="uvsx1aoXTzuLejHF6nzz-594" value="" style="edgeStyle=elbowEdgeStyle;elbow=horizontal;rounded=0;fontColor=#000000;endArrow=none;endFill=0;strokeWidth=8;strokeColor=#23445D;entryX=0;entryY=0.5;entryDx=0;entryDy=0;" parent="1" target="uvsx1aoXTzuLejHF6nzz-592" edge="1">
          <mxGeometry width="100" height="100" relative="1" as="geometry">
            <mxPoint x="2220" y="1030" as="sourcePoint" />
            <mxPoint x="2230" y="1080" as="targetPoint" />
            <Array as="points">
              <mxPoint x="2220" y="1040" />
            </Array>
          </mxGeometry>
        </mxCell>
        <mxCell id="uvsx1aoXTzuLejHF6nzz-595" value="Đào tạo nhân viên hỗ trợ" style="whiteSpace=wrap;rounded=1;fillColor=#999999;strokeColor=none;shadow=1;fontColor=#FFFFFF;fontStyle=0" parent="1" vertex="1">
          <mxGeometry x="2230" y="1450" width="120" height="60" as="geometry" />
        </mxCell>
        <mxCell id="uvsx1aoXTzuLejHF6nzz-596" value="Đào tạo người dùng cuối" style="whiteSpace=wrap;rounded=1;fillColor=#999999;strokeColor=none;shadow=1;fontColor=#FFFFFF;fontStyle=0" parent="1" vertex="1">
          <mxGeometry x="2230" y="1530" width="120" height="60" as="geometry" />
        </mxCell>
        <mxCell id="uvsx1aoXTzuLejHF6nzz-597" value="" style="edgeStyle=elbowEdgeStyle;elbow=horizontal;rounded=0;fontColor=#000000;endArrow=none;endFill=0;strokeWidth=8;strokeColor=#23445D;" parent="1" source="uvsx1aoXTzuLejHF6nzz-554" target="uvsx1aoXTzuLejHF6nzz-595" edge="1">
          <mxGeometry width="100" height="100" relative="1" as="geometry">
            <mxPoint x="2220" y="1190" as="sourcePoint" />
            <mxPoint x="2190" y="1240" as="targetPoint" />
            <Array as="points">
              <mxPoint x="2220" y="1200" />
            </Array>
          </mxGeometry>
        </mxCell>
        <mxCell id="uvsx1aoXTzuLejHF6nzz-598" value="" style="edgeStyle=elbowEdgeStyle;elbow=horizontal;rounded=0;fontColor=#000000;endArrow=none;endFill=0;strokeWidth=8;strokeColor=#23445D;entryX=0;entryY=0.5;entryDx=0;entryDy=0;" parent="1" source="uvsx1aoXTzuLejHF6nzz-554" target="uvsx1aoXTzuLejHF6nzz-596" edge="1">
          <mxGeometry width="100" height="100" relative="1" as="geometry">
            <mxPoint x="2220" y="1190" as="sourcePoint" />
            <mxPoint x="2230" y="1240" as="targetPoint" />
            <Array as="points">
              <mxPoint x="2220" y="1200" />
            </Array>
          </mxGeometry>
        </mxCell>
        <mxCell id="uvsx1aoXTzuLejHF6nzz-605" value="Triển khai" style="whiteSpace=wrap;rounded=1;fillColor=#999999;strokeColor=none;shadow=1;fontColor=#FFFFFF;fontStyle=0" parent="1" vertex="1">
          <mxGeometry x="2204.9999999999995" y="970.0000000000002" width="120" height="60" as="geometry" />
        </mxCell>
        <mxCell id="uvsx1aoXTzuLejHF6nzz-606" value="Sửa đổi tài liệu theo phản hồi" style="whiteSpace=wrap;rounded=1;fillColor=#999999;strokeColor=none;shadow=1;fontColor=#FFFFFF;fontStyle=0" parent="1" vertex="1">
          <mxGeometry x="2230" y="880" width="120" height="60" as="geometry" />
        </mxCell>
        <mxCell id="uvsx1aoXTzuLejHF6nzz-607" value="" style="edgeStyle=elbowEdgeStyle;elbow=horizontal;rounded=0;fontColor=#000000;endArrow=none;endFill=0;strokeWidth=8;strokeColor=#23445D;entryX=0;entryY=0.5;entryDx=0;entryDy=0;" parent="1" target="uvsx1aoXTzuLejHF6nzz-606" edge="1">
          <mxGeometry width="100" height="100" relative="1" as="geometry">
            <mxPoint x="2220" y="780" as="sourcePoint" />
            <mxPoint x="2230" y="830" as="targetPoint" />
            <Array as="points">
              <mxPoint x="2220" y="790" />
            </Array>
          </mxGeometry>
        </mxCell>
        <mxCell id="uvsx1aoXTzuLejHF6nzz-612" value="Thiết kế bảng khảo sát phản hồi" style="whiteSpace=wrap;rounded=1;fillColor=#999999;strokeColor=none;shadow=1;fontColor=#FFFFFF;fontStyle=0" parent="1" vertex="1">
          <mxGeometry x="2260" y="1210" width="120" height="60" as="geometry" />
        </mxCell>
        <mxCell id="uvsx1aoXTzuLejHF6nzz-613" value="Triển khai khảo sát" style="whiteSpace=wrap;rounded=1;fillColor=#999999;strokeColor=none;shadow=1;fontColor=#FFFFFF;fontStyle=0" parent="1" vertex="1">
          <mxGeometry x="2260" y="1290" width="120" height="60" as="geometry" />
        </mxCell>
        <mxCell id="uvsx1aoXTzuLejHF6nzz-614" value="" style="edgeStyle=elbowEdgeStyle;elbow=horizontal;rounded=0;fontColor=#000000;endArrow=none;endFill=0;strokeWidth=8;strokeColor=#23445D;" parent="1" target="uvsx1aoXTzuLejHF6nzz-612" edge="1">
          <mxGeometry width="100" height="100" relative="1" as="geometry">
            <mxPoint x="2250" y="1190" as="sourcePoint" />
            <mxPoint x="2220" y="1240" as="targetPoint" />
            <Array as="points">
              <mxPoint x="2250" y="1200" />
            </Array>
          </mxGeometry>
        </mxCell>
        <mxCell id="uvsx1aoXTzuLejHF6nzz-615" value="" style="edgeStyle=elbowEdgeStyle;elbow=horizontal;rounded=0;fontColor=#000000;endArrow=none;endFill=0;strokeWidth=8;strokeColor=#23445D;entryX=0;entryY=0.5;entryDx=0;entryDy=0;" parent="1" target="uvsx1aoXTzuLejHF6nzz-613" edge="1">
          <mxGeometry width="100" height="100" relative="1" as="geometry">
            <mxPoint x="2250" y="1190" as="sourcePoint" />
            <mxPoint x="2260" y="1240" as="targetPoint" />
            <Array as="points">
              <mxPoint x="2250" y="1200" />
            </Array>
          </mxGeometry>
        </mxCell>
        <mxCell id="uvsx1aoXTzuLejHF6nzz-616" value="Tổng hợp và phân tích khảo sát" style="whiteSpace=wrap;rounded=1;fillColor=#999999;strokeColor=none;shadow=1;fontColor=#FFFFFF;fontStyle=0" parent="1" vertex="1">
          <mxGeometry x="2260" y="1370" width="120" height="60" as="geometry" />
        </mxCell>
        <mxCell id="uvsx1aoXTzuLejHF6nzz-617" value="" style="edgeStyle=elbowEdgeStyle;elbow=horizontal;rounded=0;fontColor=#000000;endArrow=none;endFill=0;strokeWidth=8;strokeColor=#23445D;entryX=0;entryY=0.5;entryDx=0;entryDy=0;" parent="1" target="uvsx1aoXTzuLejHF6nzz-616" edge="1">
          <mxGeometry width="100" height="100" relative="1" as="geometry">
            <mxPoint x="2250" y="1270" as="sourcePoint" />
            <mxPoint x="2260" y="1320" as="targetPoint" />
            <Array as="points">
              <mxPoint x="2250" y="1280" />
            </Array>
          </mxGeometry>
        </mxCell>
        <mxCell id="uvsx1aoXTzuLejHF6nzz-618" value="Bảo trì phần mềm" style="whiteSpace=wrap;rounded=1;fillColor=#12AAB5;strokeColor=none;shadow=1;fontColor=#FFFFFF;" parent="1" vertex="1">
          <mxGeometry x="2750" y="300.0000000000001" width="120" height="60" as="geometry" />
        </mxCell>
        <mxCell id="uvsx1aoXTzuLejHF6nzz-619" value="Vá lỗi bảo mật" style="whiteSpace=wrap;rounded=1;fillColor=#999999;strokeColor=none;shadow=1;fontColor=#FFFFFF;fontStyle=0" parent="1" vertex="1">
          <mxGeometry x="2749.999999999999" y="400.0000000000001" width="120" height="60" as="geometry" />
        </mxCell>
        <mxCell id="uvsx1aoXTzuLejHF6nzz-620" value="Tối ứu hóa và nâng cấp hệ thống" style="whiteSpace=wrap;rounded=1;fillColor=#999999;strokeColor=none;shadow=1;fontColor=#FFFFFF;fontStyle=0" parent="1" vertex="1">
          <mxGeometry x="2749.9999999999995" y="480.0000000000001" width="120" height="60" as="geometry" />
        </mxCell>
        <mxCell id="uvsx1aoXTzuLejHF6nzz-624" value="" style="edgeStyle=elbowEdgeStyle;elbow=horizontal;rounded=0;fontColor=#000000;endArrow=none;endFill=0;strokeWidth=8;strokeColor=#23445D;" parent="1" source="uvsx1aoXTzuLejHF6nzz-618" target="uvsx1aoXTzuLejHF6nzz-619" edge="1">
          <mxGeometry width="100" height="100" relative="1" as="geometry">
            <mxPoint x="2720" y="330.00000000000045" as="sourcePoint" />
            <mxPoint x="2729.9999999999995" y="430" as="targetPoint" />
            <Array as="points">
              <mxPoint x="2730" y="380" />
            </Array>
          </mxGeometry>
        </mxCell>
        <mxCell id="uvsx1aoXTzuLejHF6nzz-625" value="" style="edgeStyle=elbowEdgeStyle;elbow=horizontal;rounded=0;fontColor=#000000;endArrow=none;endFill=0;strokeWidth=8;strokeColor=#23445D;" parent="1" source="uvsx1aoXTzuLejHF6nzz-618" target="uvsx1aoXTzuLejHF6nzz-620" edge="1">
          <mxGeometry width="100" height="100" relative="1" as="geometry">
            <mxPoint x="2730" y="330" as="sourcePoint" />
            <mxPoint x="2730" y="510" as="targetPoint" />
            <Array as="points">
              <mxPoint x="2730" y="420" />
            </Array>
          </mxGeometry>
        </mxCell>
        <mxCell id="uvsx1aoXTzuLejHF6nzz-629" value="Sao lưu và phục hồi dữ liệu" style="whiteSpace=wrap;rounded=1;fillColor=#12AAB5;strokeColor=none;shadow=1;fontColor=#FFFFFF;" parent="1" vertex="1">
          <mxGeometry x="2920" y="300.0000000000002" width="120" height="60" as="geometry" />
        </mxCell>
        <mxCell id="uvsx1aoXTzuLejHF6nzz-630" value="Lập lịch sao lưu dữ liệu" style="whiteSpace=wrap;rounded=1;fillColor=#999999;strokeColor=none;shadow=1;fontColor=#FFFFFF;fontStyle=0" parent="1" vertex="1">
          <mxGeometry x="2920" y="400.0000000000002" width="120" height="60" as="geometry" />
        </mxCell>
        <mxCell id="uvsx1aoXTzuLejHF6nzz-631" value="Sao lưu dữ liệu" style="whiteSpace=wrap;rounded=1;fillColor=#999999;strokeColor=none;shadow=1;fontColor=#FFFFFF;fontStyle=0" parent="1" vertex="1">
          <mxGeometry x="2920" y="480.0000000000002" width="120" height="60" as="geometry" />
        </mxCell>
        <mxCell id="uvsx1aoXTzuLejHF6nzz-635" value="" style="edgeStyle=elbowEdgeStyle;elbow=horizontal;rounded=0;fontColor=#000000;endArrow=none;endFill=0;strokeWidth=8;strokeColor=#23445D;" parent="1" source="uvsx1aoXTzuLejHF6nzz-629" target="uvsx1aoXTzuLejHF6nzz-630" edge="1">
          <mxGeometry width="100" height="100" relative="1" as="geometry">
            <mxPoint x="2900" y="330.00000000000057" as="sourcePoint" />
            <mxPoint x="2909.9999999999995" y="430.0000000000001" as="targetPoint" />
            <Array as="points">
              <mxPoint x="2900" y="380.0000000000001" />
            </Array>
          </mxGeometry>
        </mxCell>
        <mxCell id="uvsx1aoXTzuLejHF6nzz-636" value="" style="edgeStyle=elbowEdgeStyle;elbow=horizontal;rounded=0;fontColor=#000000;endArrow=none;endFill=0;strokeWidth=8;strokeColor=#23445D;" parent="1" source="uvsx1aoXTzuLejHF6nzz-629" target="uvsx1aoXTzuLejHF6nzz-631" edge="1">
          <mxGeometry width="100" height="100" relative="1" as="geometry">
            <mxPoint x="2910" y="330.0000000000001" as="sourcePoint" />
            <mxPoint x="2910" y="510.0000000000001" as="targetPoint" />
            <Array as="points">
              <mxPoint x="2900" y="420.0000000000001" />
            </Array>
          </mxGeometry>
        </mxCell>
        <mxCell id="uvsx1aoXTzuLejHF6nzz-640" value="" style="edgeStyle=elbowEdgeStyle;elbow=vertical;rounded=0;fontColor=#000000;endArrow=none;endFill=0;strokeWidth=8;strokeColor=#23445D;" parent="1" source="uvsx1aoXTzuLejHF6nzz-235" target="uvsx1aoXTzuLejHF6nzz-618" edge="1">
          <mxGeometry width="100" height="100" relative="1" as="geometry">
            <mxPoint x="3080" y="230" as="sourcePoint" />
            <mxPoint x="2870" y="180" as="targetPoint" />
          </mxGeometry>
        </mxCell>
        <mxCell id="uvsx1aoXTzuLejHF6nzz-641" value="" style="edgeStyle=elbowEdgeStyle;elbow=vertical;rounded=0;fontColor=#000000;endArrow=none;endFill=0;strokeWidth=8;strokeColor=#23445D;" parent="1" source="uvsx1aoXTzuLejHF6nzz-235" target="uvsx1aoXTzuLejHF6nzz-629" edge="1">
          <mxGeometry width="100" height="100" relative="1" as="geometry">
            <mxPoint x="3080" y="230" as="sourcePoint" />
            <mxPoint x="2980" y="190" as="targetPoint" />
          </mxGeometry>
        </mxCell>
        <mxCell id="uvsx1aoXTzuLejHF6nzz-668" value="Phân công nhóm bảo trì phần mềm" style="whiteSpace=wrap;rounded=1;fillColor=#12AAB5;strokeColor=none;shadow=1;fontColor=#FFFFFF;" parent="1" vertex="1">
          <mxGeometry x="2410" y="300.0000000000001" width="120" height="60" as="geometry" />
        </mxCell>
        <mxCell id="uvsx1aoXTzuLejHF6nzz-669" value="Lập kế hoạch bảo trì" style="whiteSpace=wrap;rounded=1;fillColor=#12AAB5;strokeColor=none;shadow=1;fontColor=#FFFFFF;" parent="1" vertex="1">
          <mxGeometry x="2580" y="300.0000000000002" width="120" height="60" as="geometry" />
        </mxCell>
        <mxCell id="uvsx1aoXTzuLejHF6nzz-670" value="" style="edgeStyle=elbowEdgeStyle;elbow=vertical;rounded=0;fontColor=#000000;endArrow=none;endFill=0;strokeWidth=8;strokeColor=#23445D;" parent="1" source="uvsx1aoXTzuLejHF6nzz-235" target="uvsx1aoXTzuLejHF6nzz-668" edge="1">
          <mxGeometry width="100" height="100" relative="1" as="geometry">
            <mxPoint x="2560" y="230" as="sourcePoint" />
            <mxPoint x="2530" y="180" as="targetPoint" />
          </mxGeometry>
        </mxCell>
        <mxCell id="uvsx1aoXTzuLejHF6nzz-671" value="" style="edgeStyle=elbowEdgeStyle;elbow=vertical;rounded=0;fontColor=#000000;endArrow=none;endFill=0;strokeWidth=8;strokeColor=#23445D;" parent="1" source="uvsx1aoXTzuLejHF6nzz-235" target="uvsx1aoXTzuLejHF6nzz-669" edge="1">
          <mxGeometry width="100" height="100" relative="1" as="geometry">
            <mxPoint x="2560" y="230" as="sourcePoint" />
            <mxPoint x="2640" y="190" as="targetPoint" />
          </mxGeometry>
        </mxCell>
        <mxCell id="uvsx1aoXTzuLejHF6nzz-673" value="Đánh giá và công nhận hiệu suất làm việc" style="whiteSpace=wrap;rounded=1;fillColor=#12AAB5;strokeColor=none;shadow=1;fontColor=#FFFFFF;" parent="1" vertex="1">
          <mxGeometry x="3270" y="300.0000000000001" width="120" height="60" as="geometry" />
        </mxCell>
        <mxCell id="uvsx1aoXTzuLejHF6nzz-674" value="Đánh giá hiệu suất" style="whiteSpace=wrap;rounded=1;fillColor=#999999;strokeColor=none;shadow=1;fontColor=#FFFFFF;fontStyle=0" parent="1" vertex="1">
          <mxGeometry x="3269.999999999999" y="400.0000000000001" width="120" height="60" as="geometry" />
        </mxCell>
        <mxCell id="uvsx1aoXTzuLejHF6nzz-675" value="Tuyên dương và khen thưởng" style="whiteSpace=wrap;rounded=1;fillColor=#999999;strokeColor=none;shadow=1;fontColor=#FFFFFF;fontStyle=0" parent="1" vertex="1">
          <mxGeometry x="3269.9999999999995" y="480.0000000000001" width="120" height="60" as="geometry" />
        </mxCell>
        <mxCell id="uvsx1aoXTzuLejHF6nzz-676" value="" style="edgeStyle=elbowEdgeStyle;elbow=horizontal;rounded=0;fontColor=#000000;endArrow=none;endFill=0;strokeWidth=8;strokeColor=#23445D;" parent="1" source="uvsx1aoXTzuLejHF6nzz-673" target="uvsx1aoXTzuLejHF6nzz-674" edge="1">
          <mxGeometry width="100" height="100" relative="1" as="geometry">
            <mxPoint x="3240" y="330.00000000000045" as="sourcePoint" />
            <mxPoint x="3249.9999999999995" y="430" as="targetPoint" />
            <Array as="points">
              <mxPoint x="3250" y="380" />
            </Array>
          </mxGeometry>
        </mxCell>
        <mxCell id="uvsx1aoXTzuLejHF6nzz-677" value="" style="edgeStyle=elbowEdgeStyle;elbow=horizontal;rounded=0;fontColor=#000000;endArrow=none;endFill=0;strokeWidth=8;strokeColor=#23445D;" parent="1" source="uvsx1aoXTzuLejHF6nzz-673" target="uvsx1aoXTzuLejHF6nzz-675" edge="1">
          <mxGeometry width="100" height="100" relative="1" as="geometry">
            <mxPoint x="3250" y="330" as="sourcePoint" />
            <mxPoint x="3250" y="510" as="targetPoint" />
            <Array as="points">
              <mxPoint x="3250" y="420" />
            </Array>
          </mxGeometry>
        </mxCell>
        <mxCell id="uvsx1aoXTzuLejHF6nzz-678" value="Đóng hồ sơ dự án" style="whiteSpace=wrap;rounded=1;fillColor=#12AAB5;strokeColor=none;shadow=1;fontColor=#FFFFFF;" parent="1" vertex="1">
          <mxGeometry x="3590" y="300.0000000000002" width="120" height="60" as="geometry" />
        </mxCell>
        <mxCell id="uvsx1aoXTzuLejHF6nzz-679" value="Tổng hợp hồ sơ" style="whiteSpace=wrap;rounded=1;fillColor=#999999;strokeColor=none;shadow=1;fontColor=#FFFFFF;fontStyle=0" parent="1" vertex="1">
          <mxGeometry x="3590" y="400.0000000000002" width="120" height="60" as="geometry" />
        </mxCell>
        <mxCell id="uvsx1aoXTzuLejHF6nzz-680" value="Lưu trữ hồ sơ" style="whiteSpace=wrap;rounded=1;fillColor=#999999;strokeColor=none;shadow=1;fontColor=#FFFFFF;fontStyle=0" parent="1" vertex="1">
          <mxGeometry x="3590" y="480.0000000000002" width="120" height="60" as="geometry" />
        </mxCell>
        <mxCell id="uvsx1aoXTzuLejHF6nzz-681" value="" style="edgeStyle=elbowEdgeStyle;elbow=horizontal;rounded=0;fontColor=#000000;endArrow=none;endFill=0;strokeWidth=8;strokeColor=#23445D;" parent="1" source="uvsx1aoXTzuLejHF6nzz-678" target="uvsx1aoXTzuLejHF6nzz-679" edge="1">
          <mxGeometry width="100" height="100" relative="1" as="geometry">
            <mxPoint x="3570" y="330.00000000000057" as="sourcePoint" />
            <mxPoint x="3579.9999999999995" y="430.0000000000001" as="targetPoint" />
            <Array as="points">
              <mxPoint x="3570" y="380.0000000000001" />
            </Array>
          </mxGeometry>
        </mxCell>
        <mxCell id="uvsx1aoXTzuLejHF6nzz-682" value="" style="edgeStyle=elbowEdgeStyle;elbow=horizontal;rounded=0;fontColor=#000000;endArrow=none;endFill=0;strokeWidth=8;strokeColor=#23445D;" parent="1" source="uvsx1aoXTzuLejHF6nzz-678" target="uvsx1aoXTzuLejHF6nzz-680" edge="1">
          <mxGeometry width="100" height="100" relative="1" as="geometry">
            <mxPoint x="3580" y="330.0000000000001" as="sourcePoint" />
            <mxPoint x="3580" y="510.0000000000001" as="targetPoint" />
            <Array as="points">
              <mxPoint x="3570" y="420.0000000000001" />
            </Array>
          </mxGeometry>
        </mxCell>
        <mxCell id="uvsx1aoXTzuLejHF6nzz-683" value="" style="edgeStyle=elbowEdgeStyle;elbow=vertical;rounded=0;fontColor=#000000;endArrow=none;endFill=0;strokeWidth=8;strokeColor=#23445D;" parent="1" source="uvsx1aoXTzuLejHF6nzz-234" target="uvsx1aoXTzuLejHF6nzz-673" edge="1">
          <mxGeometry width="100" height="100" relative="1" as="geometry">
            <mxPoint x="3210" y="230" as="sourcePoint" />
            <mxPoint x="3390" y="180" as="targetPoint" />
          </mxGeometry>
        </mxCell>
        <mxCell id="uvsx1aoXTzuLejHF6nzz-684" value="" style="edgeStyle=elbowEdgeStyle;elbow=vertical;rounded=0;fontColor=#000000;endArrow=none;endFill=0;strokeWidth=8;strokeColor=#23445D;exitX=0.5;exitY=1;exitDx=0;exitDy=0;" parent="1" source="uvsx1aoXTzuLejHF6nzz-234" target="uvsx1aoXTzuLejHF6nzz-678" edge="1">
          <mxGeometry width="100" height="100" relative="1" as="geometry">
            <mxPoint x="3500" y="229.99999999999977" as="sourcePoint" />
            <mxPoint x="3650" y="190" as="targetPoint" />
          </mxGeometry>
        </mxCell>
        <mxCell id="uvsx1aoXTzuLejHF6nzz-685" value="Ghi lại bài học kinh nghiệm" style="whiteSpace=wrap;rounded=1;fillColor=#12AAB5;strokeColor=none;shadow=1;fontColor=#FFFFFF;" parent="1" vertex="1">
          <mxGeometry x="3100" y="300.0000000000002" width="120" height="60" as="geometry" />
        </mxCell>
        <mxCell id="uvsx1aoXTzuLejHF6nzz-686" value="" style="edgeStyle=elbowEdgeStyle;elbow=vertical;rounded=0;fontColor=#000000;endArrow=none;endFill=0;strokeWidth=8;strokeColor=#23445D;exitX=0.5;exitY=1;exitDx=0;exitDy=0;" parent="1" source="uvsx1aoXTzuLejHF6nzz-234" target="uvsx1aoXTzuLejHF6nzz-685" edge="1">
          <mxGeometry width="100" height="100" relative="1" as="geometry">
            <mxPoint x="3210" y="230" as="sourcePoint" />
            <mxPoint x="3160" y="190" as="targetPoint" />
          </mxGeometry>
        </mxCell>
        <mxCell id="uvsx1aoXTzuLejHF6nzz-687" value="Rà soát và đối chiếu hiệu quả tài chính" style="whiteSpace=wrap;rounded=1;fillColor=#12AAB5;strokeColor=none;shadow=1;fontColor=#FFFFFF;" parent="1" vertex="1">
          <mxGeometry x="3430" y="300.0000000000002" width="120" height="60" as="geometry" />
        </mxCell>
        <mxCell id="uvsx1aoXTzuLejHF6nzz-688" value="" style="edgeStyle=elbowEdgeStyle;elbow=vertical;rounded=0;fontColor=#000000;endArrow=none;endFill=0;strokeWidth=8;strokeColor=#23445D;" parent="1" source="uvsx1aoXTzuLejHF6nzz-234" target="uvsx1aoXTzuLejHF6nzz-687" edge="1">
          <mxGeometry width="100" height="100" relative="1" as="geometry">
            <mxPoint x="3680" y="230" as="sourcePoint" />
            <mxPoint x="3490" y="190" as="targetPoint" />
          </mxGeometry>
        </mxCell>
      </root>
    </mxGraphModel>
  </diagram>
</mxfile>
